<svg width="61" height="213" viewBox="0 0 61 213" fill="none" xmlns="http://www.w3.org/2000/svg">
<path d="M50.5321 200.54C55.3573 200.865 53.4087 202.663 57.0623 205.667C57.4683 208.439 58.025 214.308 50.1146 211.385C50.3814 209.634 48.7227 207.163 47.1685 208.857C45.417 209.738 42.9813 206.873 41.3574 205.354C43.5148 200.888 44.4891 200.076 47.586 197.548C47.6904 197.466 48.5371 199.195 50.5321 200.54Z" fill="#1C2140" stroke="#1C2140" stroke-width="1.15989" stroke-miterlimit="10"/>
<path d="M39.1884 207.533L38.9912 205.573L41.3226 205.341C43.4451 200.922 44.5007 200.04 47.5744 197.535C46.4957 195.714 45.2082 193.579 43.6191 192.942C42.7376 192.837 41.0558 190.204 39.9423 189.021C38.5272 187.293 36.5322 185.275 34.8388 183.86C32.6466 182.479 31.7651 185.112 29.7005 182.781L29.0625 181.563C28.3898 178.791 28.5522 172.678 29.1321 170.556C31.1619 164.513 27.9142 165.731 31.0227 156.196C32.345 151.974 30.0484 151.777 31.4983 149.202C34.4328 145.688 30.756 143.727 34.1313 139.679C37.9473 128.974 37.2398 139.076 43.7583 126.376C47.5744 123.476 44.4659 121.11 43.2132 117.7C41.9605 114.359 39.9075 111.552 38.1445 112.097C37.263 113.246 40.1047 113.617 39.7335 115.067C32.7742 115.879 40.2091 117.224 37.5413 120.367C35.5115 123.302 34.398 124.183 32.3102 122.258C32.171 120.878 29.7121 119.115 31.4287 114.255C33.3193 107.063 30.0137 104.152 32.2058 98.921C34.7692 91.2193 31.0228 93.0751 34.6764 84.26C38.3881 75.0737 34.0964 74.7721 37.1469 68.3231L41.9141 46.1693C43.2016 42.1212 44.8834 36.345 46.5421 32.4594C46.4725 29.896 49.8129 24.9665 50.5901 21.9508C51.4368 19.5498 52.4807 17.868 53.4318 15.2582C55.5544 12.5905 55.8676 8.17132 57.619 7.85815C58.9993 7.66096 58.9992 10.2591 60.0547 8.19452C60.9015 6.03713 58.9065 4.88884 57.619 3.40418C56.6099 2.76624 55.4616 2.92861 54.5801 1.65274C51.3324 -0.98021 47.0524 2.66185 44.8834 3.43897L42.8536 5.22521C45.7881 7.99735 48.769 10.1547 52.0051 12.1497C47.8527 20.5241 45.6258 24.9549 42.7144 32.6797C40.8934 38.4212 39.8147 43.8611 38.388 49.4981C35.9523 60.3083 34.5024 65.2378 31.8695 78.9129C30.2456 86.8813 29.2365 95.9633 28.123 105.092C25.6525 121.98 28.8654 122.42 28.761 126.538C28.529 127.512 27.6475 128.197 26.0584 128.869C27.8794 128.463 29.3293 127.988 30.9184 128.231C31.5911 128.057 31.6955 127.895 32.0318 128.034C32.2058 136.107 31.0576 139.587 30.2456 142.765C29.6077 145.699 29.4337 147.393 28.9002 149.956C27.0443 162.854 27.3111 160.186 26.3368 172.69C16.3734 172.388 25.6641 175.056 25.3277 176.239C28.0998 179.382 22.9615 176.413 22.8919 178.431L21.0361 181.238L17.9972 179.011L19.1455 177.051C13.7752 175.091 12.3601 178.64 8.50931 181.818L1.14404 189.114C3.40583 191.747 4.44972 193.904 7.11746 196.004C10.052 195.864 9.78519 198.405 11.3394 197.326C12.4181 196.375 11.0031 194.832 11.1655 193.034C17.3477 193.579 19.7486 190.297 21.0593 192.965C22.9151 195.458 23.3559 199.414 26.6036 200.434C30.8836 201.246 34.7576 205.329 39.1884 207.533Z" fill="#1C2140" stroke="#1C2140" stroke-width="1.15989" stroke-miterlimit="10"/>
<path d="M40.3599 189.475L32.693 196.666L30.5356 194.636C34.4909 190.785 30.3964 188.117 28.471 186.772L24.249 183.466L26.3136 181.437L29.051 181.576L29.6889 182.794C32.0899 185.16 32.2522 182.527 34.8272 183.872C36.7526 185.461 38.91 187.816 40.3599 189.475Z" fill="#1C2140" stroke="#1C2140" stroke-width="1.15989" stroke-miterlimit="10"/>
</svg>
