<svg width="538" height="770" viewBox="0 0 538 770" fill="none" xmlns="http://www.w3.org/2000/svg">
<path d="M514.227 670.678C510.956 675.143 513.868 679.829 501.933 689.074C493.523 692.194 493.373 696.277 487.666 698.921C482.168 699.675 483.989 703.862 476.693 702.32C473.515 702.494 471.729 702.598 467.681 704.396C465.315 706.634 462.751 705.648 457.892 706.031L455.433 707.794C448.659 712.735 462.67 712.979 452.138 719.451C452.916 718.906 451.802 719.625 450.851 719.753C450.839 714.858 448.276 713.478 448.705 708.27C443.173 708.653 442.535 717.201 438.661 716.865C435.83 717.514 435.227 724.102 422.933 719.625C421.912 717.166 424.812 712.492 426.122 709.383L426.563 708.003C434.137 711.169 440.737 699.605 445.168 703.34C447.801 705.393 446.072 700.464 451.28 702.76C456.082 705.66 452.753 697.425 459.04 700.116C462.322 702.134 463.053 698.179 467.275 697.842C470.175 696.346 470.581 695.743 475.035 693.841C477.737 692.89 477.505 697.854 478.514 696.671C482.655 690.118 487.156 696.996 486.645 690.953C485.891 685.455 488.861 683.553 489.255 674.099C489.406 666.769 492.015 666.931 493.558 665.853C496.33 664.159 500.807 656.214 497.873 658.081C496.249 659.102 495.75 657.849 495.808 655.924C498.696 649.498 499.044 649.603 500.054 651.192C501.005 651.934 499.856 655.043 505.656 650.577C507.848 649.893 509.623 642.933 509.077 638.444C509.17 634.153 505.099 640.405 506.305 635.951C506.978 631.392 507.488 636.855 510.191 634.083C513.056 631.717 512.986 628.945 517.208 628.667C520.618 628.597 523.414 623.958 521.279 622.45C519.424 621.336 521.511 621.939 521.442 618.9C522.289 619.132 522.799 619.132 524.075 620.141C526.337 622.67 531.104 621.417 531.336 623.273C533.064 625.5 533.064 627.46 536.578 629.884C533.922 638.236 526.383 648.547 526.545 650.403C527.241 655.147 516.477 662.802 514.227 670.678Z" stroke="#1C2140" stroke-width="1.15989" stroke-miterlimit="10"/>
<path d="M363.21 669.925C361.157 668.29 359.846 667.385 359.116 663.94C357.399 658.292 356.9 650.915 352.562 650.428C349.036 650.265 348.63 650.103 347.644 646.496C347.238 643.051 346.009 640.348 345.591 642.726C343.956 644.941 344.605 646.495 342.402 646.82C340.105 646.901 339.537 650.091 337.565 648.456C335.686 646.078 329.214 648.456 327.822 642.888C326.511 638.133 328.147 639.699 328.645 638.469C329.875 634.618 327.497 636.671 326.024 634.05C322.915 630.443 322.173 638.887 317.916 633.064C315.863 628.726 313.08 626.267 308.904 627.902C305.378 628.726 306.932 627.578 304.148 625.687C302.095 624.62 300.785 623.889 298.581 622.323C295.299 619.215 295.136 625.768 284.326 622.161C274.745 628.471 272.124 624.295 270.651 627.323C270.001 628.796 270.813 630.187 270.894 631.417C270.976 633.389 267.705 634.363 266.8 631.092C261.151 623.97 261.557 636.091 257.219 632.322C253.531 632.484 252.139 634.119 250.666 635.685C251.571 639.374 252.301 640.36 254.517 643.712C252.301 643.468 252.545 645.846 253.45 646.994C261.72 661.006 263.112 652.237 264.921 658.303C269.259 669.357 274.583 657.317 278.434 662.896C283.189 667.571 274.989 668.464 280.649 672.732C284.419 676.502 288.026 679.448 289.824 679.61C294.904 688.217 283.595 688.785 289.743 692.068C302.026 693.216 293.269 698.702 299.984 698.54C305.471 698.702 304.659 698.621 304.659 695.512C304.659 691.662 306.793 693.715 308.997 691.093C314.077 688.147 314.158 698.308 317.603 700.43C322.846 700.43 314.158 705.511 320.062 706.74C322.359 707.065 322.602 706.902 322.278 708.619C325.386 711.322 319.088 708.781 323.507 713.293C328.75 714.929 325.56 716.901 325.142 720.589C325.467 723.616 322.683 726.4 327.277 725.426C331.777 726.087 330.884 727.56 331.29 731.654L331.046 733.789C337.681 732.722 336.614 730.344 342.1 730.019C348.653 730.1 349.477 722.723 353.652 723.384C356.761 724.208 356.436 721.668 358.408 720.844C361.772 718.142 359.313 716.75 362.178 717.156C366.771 717.724 359.313 721.911 364.799 724.452C373.324 729.613 372.825 728.059 377.256 721.749C380.365 717.075 380.701 716.994 376.351 714.709C377.743 711.681 378.892 709.303 379.379 707.088C382.487 690.873 378.231 695.86 376.757 682.023C376.015 677.604 373.649 675.307 370.772 673.753C369.682 672.048 365.101 671.642 363.21 669.925Z" stroke="#1C2140" stroke-width="1.15989" stroke-miterlimit="10"/>
<path d="M423.698 751.186L421.367 747.278C426.412 743.612 426.378 740.365 421.263 737.546C420.021 736.653 420.915 729.543 422.782 719.614C435.077 724.184 435.819 717.573 438.73 716.958C442.512 717.318 443.242 708.746 448.775 708.363C448.416 713.734 450.851 715.183 450.921 719.846C446.838 721.911 450.759 724.207 447.998 728.163C447.29 731.236 446.826 733.37 442.5 733.034C434.74 735.377 451.083 738.428 436.944 742.429C431.04 746.628 431.006 747.301 432.595 748.519C434.416 749.365 433.546 751.592 434.938 753.645C436.875 757.902 434.079 764.618 426.436 760.176C422.701 759.735 421.483 761.509 420.833 763.586C420.938 759.445 419.987 752.254 423.698 751.186Z" stroke="#1C2140" stroke-width="1.15989" stroke-miterlimit="10"/>
<path d="M420.833 763.574C420.798 759.41 420.346 751.546 423.594 751.082L421.483 747.382C423.35 746.118 428.604 741.664 421.378 737.651C419.522 736.155 421.784 725.345 422.793 718.559C422.376 716.239 424.846 712.69 426.192 709.489C426.424 708.851 426.83 708.341 426.632 708.109C425.716 707.471 422.642 707.065 420.613 705.244C407.622 694.422 407.9 697.902 404.189 696.394C390.641 690.606 391.14 685.038 387.892 688.043C383.577 692.137 379.239 685.12 376.641 682.046C377.917 695.419 382.36 690.675 379.251 707.134C378.613 709.326 377.5 712.238 376.189 714.743C380.515 717.132 380.144 717.063 377.117 721.795C372.605 728.221 373.208 729.532 364.66 724.521C359.081 721.83 366.643 717.828 362.05 717.26C359.011 716.924 361.679 718.142 358.269 720.914C356.448 721.598 356.517 724.254 353.513 723.454C349.396 722.746 348.63 730.077 341.972 730.088C337.715 729.891 336.602 733.069 330.872 733.823C330.478 738.753 329.735 742.337 342.077 749.575C358.106 760.628 358.292 751.106 362.885 754.806C366.504 759.863 366.388 751.523 371.027 759.619C371.201 764.409 377.198 770.754 379.553 766.497C384.679 762.879 386.744 768.005 387.138 761.858C386.118 758.448 392.404 759.144 392.335 761.069C393.622 763.493 400.268 762.333 401.08 763.76C403.412 766.115 405.441 764.294 406.729 766.787C408.561 771.172 408.619 766.95 415.753 768.562C420.195 770.279 419.894 766.602 420.833 763.574Z" stroke="#1C2140" stroke-width="1.15989" stroke-miterlimit="10"/>
<path d="M346.565 641.902C345.985 641.391 345.591 642.273 345.382 642.783C343.793 644.778 344.408 646.495 342.181 646.843C340.151 646.773 339.247 650.195 337.356 648.501C335.558 646.17 329.213 648.409 327.752 642.911C326.36 638.155 328.286 639.733 328.761 638.515C330.072 634.629 327.334 636.589 326.024 633.956C322.973 630.349 322.417 638.689 317.847 633.028C316.014 628.435 312.94 626.255 308.823 627.879C306.085 628.795 306.793 627.577 304.056 625.721L305.169 622.879C307.941 623.923 309.078 616.558 307.187 616.222C302.896 614.308 313.926 608.682 305.32 608.021C297.757 608.3 307.164 603.127 302.165 598.232C297.699 596.109 305.157 591.678 306.677 590.461C310.922 586.227 312.221 593.186 316.907 588.315C313.52 582.921 315.608 577.307 320.839 579.836C324.458 583.548 324.075 578.282 331 574.825C334.201 572.923 333.401 574.21 333.192 576.066C332.299 584.104 340.163 581.866 340.14 591.551C339.571 596.48 344.57 595.088 342.657 599.183C340.372 602.999 341.578 602.489 345.568 602.454C349.21 602.245 345.637 606.838 353.014 609.599C343.608 619.875 352.376 613.751 349.79 622.299C344.234 638.932 339.339 636.473 346.565 641.902Z" stroke="#1C2140" stroke-width="1.15989" stroke-miterlimit="10"/>
<path d="M502.918 632.82L504.507 633.667L506.305 636.033C505.169 640.626 509.008 634.143 509.077 638.527C509.623 643.085 507.883 649.975 505.656 650.659C499.926 655.021 501.132 652.283 500.054 651.274C498.395 647.864 496.98 654.22 495.808 656.006C495.739 657.596 496.156 659.486 497.873 658.164C500.703 656.273 496.469 664.242 493.558 665.935C492.039 666.851 489.51 666.747 489.255 674.182C488.861 683.635 485.903 685.607 486.645 691.035C487.167 697.009 482.655 690.235 478.514 696.753C477.331 697.971 478.108 693.146 475.035 693.923C474.153 692.299 473.817 691.395 472.158 690.177C467.519 684.412 469.49 689.771 462.728 683.206C459.005 678.995 460.293 682 459.109 682.301C457.764 684.969 455.665 682.614 457.787 679.703C460.211 676.56 453.252 676.096 453.867 679.773C453.507 683.763 450.457 682.44 450.225 681.13C447.65 678.937 447.824 681.234 445.875 682.324C439.101 687.671 437.083 678.555 433.58 680.526C427.502 681.652 430.472 678.299 417.156 677.047C409.687 675.098 411.531 668.51 419.534 663.059C426.018 663.824 434.891 660.669 433.151 667.327C432.884 669.078 430.147 670.714 432.351 670.841C438.603 671.537 438.359 668 442.105 667.687C446.293 666.399 454.261 665.402 459.121 668C460.037 668.904 463.54 666.376 460.467 664.311C458.808 663.163 460.258 662.687 459.341 661.238C458.425 658.709 460.014 656.644 461.835 657.549C461.673 660.252 463.656 655.786 463.795 661.156C466.196 661.388 464.804 657.538 467.843 657.607C474.397 655.473 465.93 647.273 472.147 648.479C476.635 648.572 475.081 645.637 476.566 644.187C482.168 644.048 480.579 641.821 486.46 642.517C489.87 644.268 489.87 640.22 491.691 642.575C494.126 646.182 498.314 642.018 498.372 639.664C498.731 635.662 504.043 641.496 502.918 632.82Z" stroke="#1C2140" stroke-width="1.15989" stroke-miterlimit="10"/>
<path d="M450.259 681.083C450.433 682.394 453.646 683.716 453.901 679.726C453.321 676.211 460.142 676.339 457.822 679.656C455.804 682.568 457.625 684.922 459.144 682.254C460.292 682.115 459.132 678.775 462.763 683.159C469.363 689.527 467.495 684.435 472.193 690.13C473.55 691.035 474.362 692.218 475.069 693.877C470.847 695.57 470.72 696.08 467.31 697.878C463.528 698.017 462.357 702.239 459.074 700.152C452.753 697.53 456.117 705.626 451.315 702.796C446.072 700.604 447.905 705.197 445.202 703.376C440.771 699.63 434.404 711.159 426.598 708.039C424.44 707.227 422.538 706.658 420.578 705.174C407.622 694.422 407.97 697.797 404.154 696.324C390.606 690.501 390.896 684.969 387.857 687.973C383.543 691.998 379.309 685.189 376.664 681.918C376.154 677.429 373.649 675.063 370.807 673.59C368.104 671.328 365.843 671.873 363.302 669.82C365.866 670.76 368.534 670.551 370.494 668.962C373.092 667.779 373.463 670.273 375.017 670.006C377.523 670.412 377.987 669.53 376.943 668.046C376.305 667.477 375.215 663.383 378.694 664.462C386.326 665.761 385.317 665.03 386.477 674.042L390.421 670.052C385.619 666.144 391.697 664.311 388.414 661.608C386.825 659.613 390.803 659.683 393.239 659.776C395.977 660.043 394.457 661.527 395.002 662.849C395.037 665.25 396.556 663.789 396.359 667.002C397.612 670.308 403.713 665.1 405.337 663.511L412.83 662.826L419.545 663.012C411.925 668.22 409.536 674.982 417.168 677L420.137 677.429C429.022 678.392 427.781 681.466 433.58 680.48C436.921 678.52 439.194 687.602 445.875 682.278C447.858 680.886 447.754 679.053 450.259 681.083Z" stroke="#1C2140" stroke-width="1.15989" stroke-miterlimit="10"/>
<path d="M401.475 628.215C398.204 630.28 396.441 626.267 394.956 625.791C396.731 636.59 402.124 633.11 404.699 636.822C406.601 640.905 409.977 640.997 410.417 645.219C410.905 650.857 414.651 649.36 413.41 653.93C413.781 656.865 410.812 655.287 412.853 662.815L419.569 663.001C426.122 663.662 434.926 660.774 433.186 667.269C433.116 668.928 430.147 670.621 432.386 670.783C438.904 671.514 438.521 667.872 442.14 667.628C446.629 666.167 454.331 665.483 459.156 667.942C460.142 668.881 463.645 666.318 460.501 664.253C458.912 662.943 460.2 662.664 459.376 661.179C458.263 658.686 460.281 656.517 461.87 657.491C461.777 660.194 463.656 655.67 463.83 661.098C466.162 661.295 465.002 657.479 467.878 657.549C474.432 655.45 466.034 647.284 472.181 648.421C476.67 648.514 475.116 645.544 476.601 644.129C475.244 643.561 475.046 645.95 473.225 644.941C469.885 643.561 466.312 649.349 464.48 643.735C462.879 637.901 458.24 645.741 456.5 640.232C453.24 633.145 454.783 646.345 451.129 640C448.485 636.52 449.97 634.699 446.838 635.012C440.864 635.291 439.101 631.916 438.255 634.351C435.657 637.019 434.369 634.258 433.256 632.472C430.785 627.45 429.126 628.192 426.957 625.455C422.793 621.952 422.503 629.515 418.421 629.584C413.723 630.941 411.867 630.64 408.086 628.795C406.103 627.972 404.409 627.566 401.475 628.215Z" stroke="#1C2140" stroke-width="1.15989" stroke-miterlimit="10"/>
<path d="M363.163 669.844C361.342 668.8 359.881 666.944 359.266 663.836C357.329 657.596 357.016 650.671 352.62 650.3C348.769 649.963 348.978 650.172 347.749 646.426C347.609 645.104 347.343 643.282 346.554 641.902C339.56 636.578 344.048 638.492 349.059 624.376C349.836 624.713 355.949 622.474 357.828 620.989C359.765 629.329 370.158 622.787 369.392 627.995C369.23 630.095 367.838 630.593 368.047 633.226C374.194 633.354 374.53 632.948 374.994 631.057C375.365 627.81 371.816 627.45 375.122 623.495C379.541 619.226 383.554 617.301 386.825 613.009C387.973 610.075 388.101 608.718 391.001 608.439C392.381 608.474 396.812 610.864 396.139 613.021C391.755 613.23 389.133 624.284 394.91 625.826C396.719 636.66 402.321 633.238 404.653 636.857C406.52 640.673 409.826 641.032 410.371 645.254C410.788 650.891 414.732 649.465 413.352 653.965C413.63 656.934 410.788 655.253 412.795 662.85L405.302 663.534C403.678 665.123 397.45 670.296 396.325 667.025C396.487 663.813 395.176 665.506 394.968 662.873C394.457 661.69 395.907 660.066 393.205 659.799C391.14 659.672 386.756 659.637 388.379 661.632C391.731 664.265 385.549 666.028 390.386 670.076C389.133 671.526 387.997 672.778 386.442 674.066C385.178 665.088 386.361 665.854 378.66 664.485C375.076 663.685 376.433 667.362 376.908 668.069C377.824 669.519 377.349 670.435 374.983 670.029C372.721 670.435 372.988 667.733 370.459 668.986C368.499 670.679 365.704 670.725 363.163 669.844Z" stroke="#1C2140" stroke-width="1.15989" stroke-miterlimit="10"/>
<path d="M486.819 622.148C486.413 620.026 485.497 616.581 482.423 616.511C479.489 616.117 478.259 613.24 478.12 610.851C476.798 609.134 477.737 605.04 473.62 604.645C465.547 605.701 466.95 597.222 462.728 594.496C459.481 590.448 460.258 590.68 460.583 586.899C462.462 580.346 458.947 575.416 457.161 581.807C456.419 584.881 453.832 588.129 451.559 582.863C451.559 584.417 450.48 584.719 450.48 584.719C445.33 594.009 452.162 601.363 440.482 602.059C439.879 601.897 434.242 604.599 432.896 608.044C432.664 610.886 431.945 607.406 429.358 613.658C428.848 611.941 427.363 613.867 418.177 611.141C415.103 611.35 410.348 613.008 408.121 616.094C403.841 619.608 399.654 620.965 391.616 620.675C391.952 622.902 391.825 624.422 394.933 625.802C396.452 626.301 397.949 630.256 401.452 628.226C403.516 627.646 406.045 627.878 408.075 628.818C412.134 630.731 413.746 630.905 418.409 629.606C422.492 629.537 422.782 621.963 426.946 625.477C429.382 628.377 431.133 627.832 433.244 632.494C434.126 633.875 435.645 637.146 438.243 634.373C439.113 632.077 440.772 635.313 446.826 635.035C449.97 634.826 448.346 636.484 451.118 640.022C454.737 646.436 453.229 633.167 456.488 640.254C458.251 645.717 462.937 637.911 464.468 643.757C466.371 649.394 469.839 643.548 473.214 644.963C475.244 645.938 475.209 643.606 476.589 644.151C482.261 644.035 480.637 641.75 486.483 642.481C489.858 644.198 489.986 640.184 491.714 642.539C494.115 646.181 498.233 642.052 498.395 639.628C498.824 635.673 504.102 641.379 502.942 632.796C502.327 630.94 500.204 634.223 497.572 631.764C495.75 630.65 495.368 627.646 493.651 627.82C491.181 627.658 494.405 631.775 489.939 632.657C483.456 633.179 481.971 632.065 480.417 630.279C477.273 627.982 474.873 625.837 472.1 623.575C470.245 622.195 472.564 620.397 473.817 618.68C475.336 617.567 476.879 614.76 478.979 616.813C481.542 618.819 484.558 623.749 486.819 622.148Z" stroke="#1C2140" stroke-width="1.15989" stroke-miterlimit="10"/>
<path d="M480.451 570.36C480.892 571.068 480.997 571.88 481.565 572.622C480.359 576.206 475.162 581.716 478.538 583.166C486.17 583.224 483.038 590.148 484.731 593.083C486.529 597.374 490.067 593.547 490.693 604.183C488.617 611.687 490.67 613.439 493.245 612.592C496.481 611.2 498.847 609.031 501.074 607.071C502.698 610.214 504.763 611.154 506.967 613.914C510.087 618.635 512.986 616.71 515.584 618.125C517.614 619.54 518.252 619.366 519.296 619.064C520.108 619.064 520.816 618.797 521.256 618.925C521.43 621.825 519.401 621.256 521.268 622.474C523.402 624.086 520.642 628.552 517.197 628.691C512.94 628.97 513.01 631.8 510.179 634.108C507.512 636.915 506.967 631.417 506.294 635.975L504.496 633.609L502.907 632.762C502.431 630.941 500.204 634.259 497.537 631.73C495.878 630.512 495.472 627.914 493.616 627.787C491.122 627.694 494.405 631.8 489.905 632.623C483.119 633.203 481.936 631.927 480.382 630.246C477.308 628.053 475.139 626 472.066 623.541C470.302 622.3 472.332 620.502 473.782 618.647C475.162 617.568 476.914 614.796 478.944 616.779C481.611 618.867 484.186 623.692 486.784 622.138C486.471 620.073 485.462 616.605 482.389 616.501C479.454 616.072 478.259 613.497 478.085 610.841C476.798 609.02 477.668 604.96 473.585 604.635C465.28 605.459 466.858 597.49 462.694 594.486C459.446 590.206 460.188 590.577 460.548 586.889C462.427 580.336 458.878 575.336 457.126 581.797C456.825 584.36 453.728 588.385 451.524 582.852C451.86 579.883 453.078 579.883 454.215 579.036C456.813 578.456 457.544 573.156 452.579 572.054C449.946 570.975 449.668 569.119 447.232 568.249C446.119 567.438 445.342 566.869 444.831 566.092C442.999 561.812 442.384 558.263 441.502 553.101C444.507 551.408 447.441 548.021 450.515 548.021C453.148 548.021 453.078 547.847 452.846 545.956C452.405 543.961 453.449 543.219 455.549 544.46C458.901 547.592 461.858 542.662 464.932 541.839C466.556 545.353 467.438 547.708 470.558 552.127C474.176 556.987 477.946 564.723 480.451 570.36Z" stroke="#1C2140" stroke-width="1.15989" stroke-miterlimit="10"/>
<path d="M469.804 574.2C471.66 572.808 471.59 572.344 473.04 574.13C474.153 576.427 475.336 573.689 475.777 577.134C476.218 579.292 476.253 580.347 474.026 580.985C470.917 580.985 470.65 580.962 470.581 578.596C470.592 576.891 466.44 576.635 469.804 574.2Z" stroke="#1C2140" stroke-width="1.15989" stroke-miterlimit="10"/>
<path d="M481.82 572.366C480.509 576.02 475.22 581.703 478.561 583.142C486.262 583.234 482.991 589.985 484.755 593.059C486.552 597.408 490.09 593.557 490.716 604.159C488.64 611.895 490.728 613.345 493.268 612.568C497.757 610.399 498.87 608.949 501.097 607.047C500.552 606.374 500.146 605.632 499.775 604.855C496.017 598.649 499.021 598.371 492.862 587.781C489.348 582.991 491.899 579.743 484.604 575.939C483.339 574.837 482.632 574.094 481.82 572.366Z" stroke="#1C2140" stroke-width="1.15989" stroke-miterlimit="10"/>
<path d="M447.36 568.318C446.35 567.68 445.539 567.008 444.924 566.126C443.161 561.846 442.407 558.459 441.595 553.135C439.971 553.878 439.032 554.794 436.77 555.304C433.905 557.705 435.413 553.008 429.544 556.499C424.788 558.401 426.064 554.98 419.754 556.951L413.27 559.561C409.083 561.927 407.865 561.023 403.748 558.668C398.807 555.165 403.33 553.913 398.737 551.314C397.02 553.275 399.584 555.27 395.663 553.483V554.562C393.935 554.435 392.961 555.513 390.966 554.736C395.501 558.007 395.675 560.396 397.055 563.203C397.67 565.465 402.263 567.483 399.189 569.351C398.111 571.009 393.32 571.079 401.184 572.761C403.783 573.19 400.106 575.463 404.165 580.416C406.091 582.539 410.962 584.928 403.226 584.476C392.056 587.538 405.406 596.759 397.264 596.538C395.165 596.504 394.875 599.171 396.429 600.691C397.786 602.512 398.563 602.883 398.633 606.189C397.96 609.842 404.722 610.225 396.174 613.044C393.367 613.357 391.627 616.871 391.627 620.722C399.398 620.977 403.411 619.887 408.132 616.141C410.394 613.032 415.184 611.339 418.188 611.188C427.41 613.902 428.79 611.977 429.37 613.705C431.863 607.592 432.71 610.863 432.907 608.091C434.114 604.751 439.96 601.897 440.493 602.106C452.312 601.34 445.341 594.091 450.491 584.766C453.089 583.142 450.051 581.158 454.261 579.082C457.033 578.305 457.393 573.028 452.625 572.1C450.074 571.021 449.656 569.223 447.36 568.318Z" stroke="#1C2140" stroke-width="1.15989" stroke-miterlimit="10"/>
<path d="M364.544 561.035C366.539 562.357 369.647 563.668 368.94 561.708C368.302 557.857 366.608 558.263 368.023 556.511C368.255 556.279 369.102 556.778 369.346 556.743C370.935 557.451 372.489 560.524 373.463 558.089C375.795 555.792 374.414 558.495 377.581 557.416C379.506 556.129 379.843 560.524 383.902 558.46C386.976 556.906 387.544 554.539 391.024 554.783C395.652 558.158 395.687 560.559 397.102 563.262C397.682 565.454 402.24 567.449 399.224 569.409C398.308 570.731 393.483 571.137 401.15 572.68C403.783 573.016 400.106 575.487 404.119 580.347C406.045 582.539 410.905 584.836 403.168 584.395C392.056 587.538 405.395 596.655 397.287 596.516C395.026 596.481 394.991 599.392 396.441 600.668C397.925 602.628 398.563 603.034 398.668 606.178C397.925 609.855 404.606 610.261 396.197 613.033C396.742 610.771 392.416 608.544 391.059 608.439C388.287 608.637 388.182 609.762 386.872 612.998C385.955 615.062 380.156 619.041 375.157 623.506C371.944 627.125 375.632 628.401 375.052 631.069C375.018 632.762 373.637 633.597 368.093 633.226C367.861 630.93 369.346 629.712 369.439 627.995C370.413 622.729 359.649 629.549 357.689 621.175C356.065 622.393 349.987 624.794 349.071 624.388L349.778 622.323C352.411 613.81 343.631 619.888 353.026 609.623C352.458 609.391 351.773 609.182 351.437 608.776C354.917 601.318 355.995 604.183 355.995 600.332C356.332 589.591 360.113 587.26 359.243 581.379C356.68 573.944 366.434 579.083 361.911 569.386C360.797 567.565 359.104 565.164 359.174 563.911C359.208 563.935 358.57 558.472 364.544 561.035Z" stroke="#1C2140" stroke-width="1.15989" stroke-miterlimit="10"/>
<path d="M367.432 538.625C368.07 538.892 368.476 539.031 368.986 539.031C371.723 539.228 374.553 544.065 372.535 544.969C369.23 546.419 366.562 541.351 365.982 544.088C365.1 549.632 370.471 546.582 368.209 556.348C366.388 557.833 368.348 557.937 368.916 561.649C369.728 563.771 366.179 562.055 364.497 561.011C358.617 558.517 359.231 563.644 359.231 563.91C359.231 565.256 360.519 567.216 361.864 569.35C366.457 579.116 356.796 573.909 359.266 581.378C360.078 587.317 356.332 589.382 355.96 600.261C355.995 604.216 354.58 601.514 351.402 608.74C346.403 606.675 349.071 602.395 345.556 602.361C341.972 602.395 340.256 603.405 342.622 599.148C344.478 595.1 339.478 596.306 340.128 591.516C340.093 581.784 332.357 584.15 333.238 576.078C333.47 574.257 334.085 572.865 331.046 574.825C331.046 572.726 331.626 570 329.898 569.489C328.378 568.538 327.706 565.778 330.002 564.351C335.175 563.064 333.853 560.129 331.754 559.723C320.711 556.545 322.764 553.17 319.494 545.399C322.231 542.835 321.152 541.211 317.974 540.504C318.148 536.143 321.013 534.994 323.078 536.583C326.522 539.692 323.31 529.218 326.325 532.802C327.207 539.321 335.883 535.4 338.284 537.465C342.332 540.33 345.614 539.089 349.129 539.019C352.539 540.365 353.177 536.897 357.132 540.028C358.617 543.624 364.555 540.005 367.432 538.625Z" stroke="#1C2140" stroke-width="1.15989" stroke-miterlimit="10"/>
<path d="M284.581 566.811C281.577 566.405 281.879 566.138 278.236 568.098C279.188 570.534 279.385 572.32 279.35 575.359C281.415 578.839 283.746 579.349 281.043 591.029C279.048 595.112 282.018 602.953 278.376 603.625C275.777 604.066 278.202 604.507 276.311 605.69C278.236 606.235 278.376 608.497 277.865 614.064C276.717 618.391 278.84 620.479 284.929 622.172C295.565 625.884 295.438 619.203 298.569 622.346C300.564 623.831 301.84 624.817 304.137 625.826L305.25 622.984C308.022 624.063 309.136 616.663 307.245 616.326C303.023 614.204 313.996 608.799 305.389 608.114C297.827 608.416 307.21 603.382 302.211 598.348C297.815 596.353 305.181 591.795 306.735 590.542C310.412 586.691 312.372 592.769 316.698 588.35C312.546 579.941 317.301 577.98 320.886 579.941C324.806 583.559 324.156 578.386 331.046 574.907C331.046 572.807 331.522 569.803 329.863 569.502C327.972 568.829 328.17 564.734 329.967 564.363C334.932 563.041 333.784 560.246 331.719 559.735C320.468 556.36 322.765 553.112 319.459 545.411C317.162 544.03 315.538 548.821 312.43 545.921C309.762 542.337 309.124 542.847 305.645 542.244C306.085 545.759 306.654 547.58 304.798 547.986C300.506 550.827 303.139 553.356 304.322 556.499C302.432 557.613 295.913 558.726 298.616 560.721C299.022 562.043 300.274 563.087 299.903 564.607C293.559 565.616 295.878 557.578 287.574 561.603C281.612 563.598 289.07 566.532 284.581 566.811Z" stroke="#1C2140" stroke-width="1.15989" stroke-miterlimit="10"/>
<path d="M279.385 575.278C281.542 578.92 283.676 579.326 281.078 590.948C279.083 595.17 281.994 602.976 278.41 603.544C275.847 603.985 278.213 604.217 276.288 605.574C278.55 605.678 278.213 610.504 277.842 613.948C277.03 617.834 278.074 619.957 284.256 622.126C274.629 628.343 271.892 624.155 270.616 627.264C269.908 628.447 270.72 630.477 270.813 631.381C270.987 633.539 267.438 634.351 266.765 631.01C260.885 624.318 261.627 636.079 257.138 632.228C253.055 622.566 251.223 631.045 247.65 621.522C242.651 611.698 238.429 624.329 236.341 615.549C235.332 601.909 227.63 609.297 229.591 602.744C228.338 600.992 228.338 602.234 229.788 597.71C232.63 589.776 241.538 584.336 234.346 580.01C226.273 576.832 220.938 584.603 218.409 578.63C215.916 576.066 218.108 574.675 220.474 565.79C221.286 559.816 227.468 557.787 230.843 553.565C237.258 548.334 225.172 545.492 232.699 544.575C238.777 545.179 234.323 543.126 239.021 542.244C245.272 542.882 242.941 538.602 248.033 537.512C249.483 537.883 249.726 537.883 251.107 539.878C252.557 544.204 257.184 538.289 257.15 543.056C255.329 548.565 267.345 540.423 264.712 549.134C261.499 550.143 266.498 550.688 271.776 551.976C277.285 552.312 262.729 562.716 271.173 562.009C276.914 561.811 275.905 565.964 278.294 568.017C279.211 570.58 279.35 572.03 279.385 575.278Z" stroke="#1C2140" stroke-width="1.15989" stroke-miterlimit="10"/>
<path d="M152.459 565.872C152.493 565.872 152.192 563.308 153.537 562.462C157.956 558.344 157.991 554.76 158.571 550.469C158.13 546.479 159.615 545.203 159.139 542.976C166.667 541.189 177.547 536.689 180.354 537.408C184.379 536.933 186.501 541.329 188.995 538.116C192.37 536.016 193.321 537.779 194.191 540.749C196.789 547.534 204.329 540.041 203.238 546.664C203.412 549.529 204.491 546.768 210.905 554.099C211.543 555.653 215.127 557.95 217.285 563.25C218.062 565.315 219.245 564.84 220.358 565.814C218.097 575 216.067 576.009 218.642 578.816C221.275 584.755 225.833 576.891 234.312 580.069C241.747 584.465 232.05 590.137 229.753 597.769C228.837 601.248 227.828 601.016 229.556 602.803C227.7 609.623 235.228 601.724 236.307 615.608C238.464 624.226 242.651 611.989 247.616 621.581C251.165 631.174 253.09 622.59 257.138 632.357C253.357 632.391 252.406 634.421 250.921 635.396C242.849 638.202 246.293 645.835 240.819 641.578C236.052 639.014 235.68 644.385 232.236 641.207C228.246 640.94 231.389 643.364 230.345 646.681C225.149 653.432 221.391 647.69 220.892 643.41C222.214 633.853 221.599 629.399 212.112 630.976C206.509 634.189 198.877 628.343 197.59 624.423C197.184 621.825 196.407 621.349 194.818 620.943C191.918 622.057 191.477 618.102 187.789 619.563C184.007 623.077 179.206 617.232 174.148 610.377C176.143 608.115 173.673 605.447 171.179 605.447C168.651 605.447 169.358 605.621 168.917 605.749C167.804 594.196 175.332 598.894 173.51 589.267C172.594 582.203 180.133 583.491 178.544 580.046C176.143 578.526 173.441 581.264 167.839 579.164C162.202 576.496 162.132 585.08 160.276 579.025C157.527 570.024 153.062 569.177 152.459 565.872Z" stroke="#1C2140" stroke-width="1.15989" stroke-miterlimit="10"/>
<path d="M130.362 599.206C130.931 598.603 131.615 598.255 132.52 598.568C142.019 595.866 136.614 608.485 143.747 603.405C149.651 596.028 148.503 612.336 152.435 606.595C158.246 600.447 151.53 613.635 164.312 607.662C166.11 606.513 167.502 605.864 168.987 605.609C167.757 594.88 175.54 598.232 173.58 589.219C172.594 582.179 180.214 583.408 178.66 580.045C176.282 578.491 173.499 581.193 167.931 579.14C162.364 576.437 162.282 585.044 160.392 578.978C157.689 570.046 153.177 569.142 152.528 565.871C152.551 565.848 152.528 565.697 152.516 565.477C151.704 566.3 151.263 566.741 151.043 566.961V567.182H150.823V567.402L150.602 567.622H150.382H150.162V567.843V568.063H149.941H149.721L149.5 568.283V568.504H149.28V568.724H149.06V568.945H148.839V569.165H148.619L148.399 569.385V569.606V569.826L148.178 570.046H147.958V570.267H147.737V570.487H147.517V570.708H147.297V570.928H147.065L146.844 571.148C146.844 571.369 146.624 571.589 146.404 571.589C146.404 572.03 146.183 571.589 146.183 572.03C145.963 572.03 145.742 572.25 145.742 572.471L145.522 572.691L145.302 572.911H145.081H144.861C144.861 573.352 144.641 572.911 144.641 573.352C144.42 573.352 144.2 573.573 143.979 573.573C143.979 574.013 143.759 573.573 143.759 574.013H143.318V574.234H142.657V574.454H141.996V574.674H140.674V574.895H139.792V575.115H138.69V575.336H137.809V575.556H137.148V575.776H136.707L136.487 575.997V576.217L136.266 576.437H136.046H135.825L135.605 576.658V576.878H135.385V577.099H135.164V577.319H134.944V577.539H134.723V577.76H134.503V577.98H134.283L134.062 578.201C134.062 578.421 133.842 578.641 133.842 578.862L133.622 579.082H133.401V579.302H133.181L132.96 579.523C132.96 579.743 132.74 580.184 132.52 580.184V580.625H132.299V580.845V581.065H132.079C131.859 581.286 131.859 582.388 131.638 582.608H131.418V583.269H131.197V583.49V583.71H130.977V583.93V584.151H130.757C130.316 585.032 130.757 588.338 130.757 589.219C131.197 589.219 130.757 589.44 131.197 589.44V589.881H131.418V590.321L131.638 590.542H131.859V590.762L132.079 590.982H132.52V591.203H132.96L133.181 591.423L133.401 591.644V591.864V592.084L133.622 592.305H133.842L134.062 592.525V592.966H134.283V594.949L134.062 595.17H133.842V595.39H133.622V595.61L133.401 595.831H133.181H132.96L132.74 596.051V596.272H132.52V596.492H132.299V596.712H132.079V596.933H131.859L131.638 597.153V597.594H131.418V598.035C130.954 598.081 131.395 598.301 130.362 599.206Z" stroke="#1C2140" stroke-width="1.15989" stroke-miterlimit="10"/>
<path d="M152.505 565.489C152.47 564.793 152.47 563.367 153.572 562.45C157.829 558.6 157.991 554.83 158.652 550.492C158.165 545.992 160.125 544.345 159.22 542.953C152.829 537.71 151.6 553.519 146.357 549.831C144.478 546.722 139.398 551.965 139.56 547.128C138.992 540.818 141.358 535.982 138.087 535.982C136.115 535.576 134.48 537.698 132.845 535.332C132.439 530.414 128.507 533.117 128.913 528.454C129.4 526.981 129.655 525.264 128.507 524.197C126.628 528.535 118.346 525.914 117.453 531.319C117.047 535.657 112.454 543.521 109.751 540.656C106.469 539.102 104.833 536.968 94.1855 540.981C95.009 542.291 94.9278 543.683 93.8607 544.832C93.4547 545.319 89.1864 545.075 86.9014 545.156C84.8484 547.94 79.3621 543.277 77.4831 547.209C75.4301 552.371 69.7814 562.195 73.7946 564.086C78.2138 568.18 92.55 577.854 96.0761 577.436C97.3056 578.584 96.0761 578.747 96.1573 580.22C98.4539 581.774 100.414 582.598 100.913 584.72C104.103 589.221 103.209 582.586 105.993 585.045C110.667 588.815 118.276 583.815 119.1 588.327C119.262 592.921 121.721 590.949 122.208 596.934C122.777 600.379 124.343 597.421 125.572 600.379C127.973 605.053 128.657 601.005 130.374 599.219C131.406 598.314 130.966 598.094 131.406 598.094V597.653H131.627V597.212L131.847 596.992H132.067V596.771H132.288V596.551H132.508V596.331H132.729V596.11L132.949 595.89H133.169H133.39L133.61 595.67V595.449H133.83V595.229H134.051L134.271 595.008V593.025H134.051V592.584L133.83 592.364H133.61L133.39 592.144V591.923V591.703L133.169 591.482L132.949 591.262H132.508V591.042H132.067L131.847 590.821V590.601H131.627L131.406 590.38V589.94H131.186V589.499C130.745 589.499 131.186 589.279 130.745 589.279C130.745 588.397 130.304 585.091 130.745 584.21H130.966V583.989V583.769H131.186V583.549V583.328H131.406V582.667H131.627C131.847 582.447 131.847 581.345 132.067 581.125H132.288V580.904V580.684H132.508V580.243C132.729 580.243 132.949 579.802 132.949 579.582L133.169 579.362H133.39V579.141H133.61L133.83 578.921C133.83 578.7 134.051 578.48 134.051 578.26L134.271 578.039H134.492V577.819H134.712V577.598H134.932V577.378H135.153V577.158H135.373V576.937H135.593V576.717L135.814 576.497H136.034H136.255L136.475 576.276V576.056L136.695 575.836H137.136V575.615H137.797V575.395H138.679V575.174H139.781V574.954H140.662V574.734H141.984V574.513H142.646V574.293H143.307V574.072H143.747C143.747 573.632 143.968 574.072 143.968 573.632C144.188 573.632 144.409 573.411 144.629 573.411C144.629 572.971 144.849 573.411 144.849 572.971H145.07H145.29L145.511 572.75L145.731 572.53C145.731 572.309 145.951 572.089 146.172 572.089C146.172 571.648 146.392 572.089 146.392 571.648C146.612 571.648 146.833 571.428 146.833 571.208L147.053 570.987H147.274V570.767H147.494V570.546H147.714V570.326H147.935V570.106H148.155L148.375 569.885V569.665V569.445L148.596 569.224H148.816V569.004H149.037V568.783H149.257V568.563H149.477V568.343L149.698 568.122H149.918H150.138V567.902V567.681H150.359H150.579L150.8 567.461V567.241H151.02V567.02C151.252 566.754 151.693 566.313 152.505 565.489Z" stroke="#1C2140" stroke-width="1.15989" stroke-miterlimit="10"/>
<path d="M411.055 483.194C413.967 484.307 413.619 483.252 416.194 485.85C418.908 490.037 416.205 490.142 419.523 494.491L415.544 496.66C414.257 494.236 413.549 492.647 412.865 490.35L411.009 490.826L410.673 492.148C409.524 490.431 408.713 490.095 406.08 490.06C403.342 489.933 401.858 488.483 403.029 484.191C404.282 484.864 405.766 486.082 406.717 486.14L406.706 482.289C407.912 482.463 409.432 482.799 411.055 483.194Z" stroke="#1C2140" stroke-width="1.15989" stroke-miterlimit="10"/>
<path d="M452.858 545.91C452.417 544.089 453.391 543.033 455.56 544.425C458.739 547.592 461.708 542.79 464.77 541.978C462.903 538.603 462.265 537.489 460.003 536.039C454.493 532.096 450.747 531.295 449.181 527.584C447.592 525.426 446.038 523.269 444.344 521.413C439.74 517.168 432.676 510.023 430.263 505.499C426.737 499.155 425.38 496.023 424.673 491.929C423.176 487.776 421.784 484.668 420.335 482.951C418.653 483.937 417.562 484.204 416.147 485.828C418.862 489.98 416.055 489.505 419.476 494.469L415.498 496.638C414.176 494.272 413.561 492.694 412.819 490.328L410.963 490.804L410.626 492.126C409.756 494.689 408.295 493.274 408.098 496.557C408.608 498.447 408.202 500.141 407.031 501.823C406.288 503.586 407.506 503.644 407.379 504.966C409.13 504.015 415.915 503.736 416.635 504.641C417.783 507.75 418.711 512.134 413.503 512.552C408.005 513.375 411.728 519.279 405.65 519.928C401.127 519.998 402.925 522.561 398.366 524.603C395.467 526.737 390.236 526.401 392.799 530.657C393.309 532.444 395.641 535.854 396.731 537.269C399.468 539.728 398.552 533.522 401.22 535.946C401.8 538.173 403.284 539.728 405.117 541.584C395.768 544.669 403.876 549.958 399.723 550.503L398.68 551.245C403.377 553.844 398.482 554.887 403.69 558.599L405.21 559.411C407.808 560.965 409.026 561.766 413.213 559.504L419.697 556.894C425.937 554.992 424.661 558.274 429.486 556.442C435.494 552.95 433.847 557.718 436.712 555.247C438.974 554.771 439.914 553.786 441.537 553.078C444.542 551.385 447.847 547.905 450.55 547.998C452.997 548.102 453.229 547.592 452.858 545.91Z" stroke="#1C2140" stroke-width="1.15989" stroke-miterlimit="10"/>
<path d="M368.766 508.317C369.612 508.178 369.914 508.549 370.216 508.654C372.211 511.426 370.993 512.238 369.879 513.989C372.443 513.444 372.373 514.256 372.686 516.019C373.568 515.683 374.507 515.045 375.215 514.43C376.63 513.386 376.966 515.439 375.887 516.019C373.359 517.945 371.839 516.866 369.914 519.023C366.875 522.433 367.014 519.87 365.622 522.062C365.147 523.442 364.95 524.591 363.43 524.962C362.015 526.145 361.203 527.664 363.094 527.896C366.168 527.827 363.465 533.673 364.822 536.816C365.158 537.825 368.302 539.217 369.079 539.043C371.445 539.043 374.786 543.938 372.593 544.982C369.38 546.501 366.585 541.339 366.04 544.1C365.193 549.911 370.529 546.571 368.232 556.395C368.743 556.499 368.232 556.36 369.276 556.662C371.805 558.32 372.524 560.141 373.463 558.042C375.899 555.676 374.345 558.448 377.581 557.334C379.541 556.082 379.843 560.478 383.902 558.413C386.906 557.033 387.382 554.562 391.024 554.736C392.949 555.513 394.028 554.435 395.652 554.504V553.426C400.013 555.653 396.255 552.01 399.735 550.526C403.887 550.224 395.78 544.448 405.14 541.606C403.145 539.542 401.834 538.161 401.254 535.969C398.691 533.499 399.433 539.89 396.765 537.291C395.443 535.401 393.796 533.209 392.88 530.738C390.386 526.412 395.316 526.818 398.389 524.626C402.948 522.561 401.231 520.067 405.685 519.963C411.763 519.29 408.051 513.514 413.549 512.597C418.722 512.087 417.736 507.738 416.658 504.664C415.95 503.747 409.362 504.061 407.402 505C405.987 505.743 403.922 506.821 402.472 506.253C400.071 505.441 403.04 509.361 399.839 507.877C398.354 507.912 393.123 506.357 392.207 509.501C389.841 511.658 389.737 508.352 387.173 504.165C386.663 502.472 385.851 504.467 380.109 502.066C378.486 501.323 377.639 501.892 376.224 503.075C374.136 504.664 370.39 507.877 368.766 508.317Z" stroke="#1C2140" stroke-width="1.15989" stroke-miterlimit="10"/>
<path d="M305.158 537.663C306.271 545.561 306.909 547.487 304.926 547.928C300.739 550.561 303.07 552.962 304.45 556.441C301.956 557.729 296.238 558.633 298.744 560.663C299.15 561.951 300.437 563.029 300.031 564.549C293.71 565.558 295.983 557.52 287.736 561.475C281.519 563.54 289.36 566.439 284.697 566.741C282.169 566.509 281.995 565.86 278.353 568.029C275.952 565.929 276.764 561.684 271.231 562.02C262.555 562.728 277.344 552.289 271.834 551.987C268.563 550.874 261.163 550.468 264.77 549.146C267.438 540.702 255.317 548.403 257.208 543.068C257.312 538.37 252.615 544.146 251.165 539.89C250.214 538.405 249.75 537.895 248.091 537.523C247.894 533.035 253.16 526.713 247.488 524.011C241.538 516.541 260.862 522.085 255.12 513.572C250.666 513.166 247.964 512.864 251.072 511.414C254.25 508.004 250.771 510.707 251.142 506.253C256.582 505.742 258.577 511.252 260.804 504.733C264.852 504.965 267.763 510.742 268.842 507.401C269.549 506.288 270.767 506.554 271.37 505.615C270.964 508.828 272.75 507.1 275.789 508.758C281.728 512.064 279.269 516.495 282.575 519.673C287.272 523.593 289.534 514.105 298.918 515.961C299.834 516.135 307.767 526.122 304.218 526.528C301.713 527.734 304.346 531.283 305.158 537.663Z" stroke="#1C2140" stroke-width="1.15989" stroke-miterlimit="10"/>
<path d="M230.82 553.635C237.304 548.531 225.114 545.457 232.676 544.646C238.487 545.191 234.532 543.23 238.998 542.314C245.319 542.917 243.185 538.359 248.01 537.582C247.813 533.093 253.079 526.806 247.407 524.069C241.596 516.507 260.78 522.109 255.039 513.63C250.747 513.189 247.778 512.992 250.991 511.473C254.099 508.202 250.689 510.661 251.061 506.3C256.396 505.755 258.391 511.334 260.722 504.78L247.21 505.186C243.394 506.972 241.167 508.329 236.237 508.19L236.168 498.563C222.284 500.523 232.178 494.446 222.69 495.35C213.538 496.301 212.622 498.122 212.158 496.232L206.927 499.677C204.827 499.851 203.215 499.097 202.508 502.855C199.295 510.046 190.016 503.423 189.169 513.05C189.099 515.277 189.343 514.164 182.65 515.312C183.833 522.503 173.568 524.904 180.389 537.396C185.457 537.257 186.06 541.386 189.03 538.104C192.811 535.633 193.727 538.545 194.226 540.737C196.697 547.395 204.015 540.029 203.273 546.652C203.343 549.355 204.189 546.42 210.638 553.774C210.94 555.433 215.162 557.694 217.331 563.227C218.885 565.93 218.282 564.143 220.671 566.231C221.46 560.327 227.41 557.822 230.82 553.635Z" stroke="#1C2140" stroke-width="1.15989" stroke-miterlimit="10"/>
<path d="M109.832 540.702C112.396 543.544 117.128 535.598 117.499 531.342C118.276 526.041 126.616 528.604 128.437 524.22C129.388 524.521 129.481 527.468 128.878 528.477C128.472 532.896 132.125 530.228 132.833 535.366C134.283 537.698 135.733 535.633 138.064 536.039C141.312 536.213 139.015 541.038 139.549 547.186C139.444 551.953 143.945 546.71 146.299 549.888C151.403 553.843 152.551 537.628 159.162 542.998C166.284 541.177 177.5 536.886 180.377 537.431C173.487 524.939 183.752 522.468 182.406 515.405C178.358 508.619 174.914 508.248 176.932 504.397C177.941 499.63 177.5 491.697 172.64 489.133C167.873 487.103 165.716 489.806 160.821 486.361C157.678 484.668 159.128 482.615 157.921 481.501C156.576 478.903 155.114 483.531 154.036 481.432C153.061 479.877 150.695 477.511 147.714 479.912C144.501 482.441 144.872 477.685 135.651 478.161C135.245 478.601 134.271 478.764 133.355 478.764C132.786 480.55 134.097 481.571 132.914 483.16C129.701 486.094 130.849 487.823 129.666 486.906L127.265 485.758C127.091 483.287 125.375 481.64 124.053 482.545C123.681 483.183 123.101 483.322 121.188 484.204C116.42 490.247 125.305 487.753 117.267 494.643C112.674 501.567 114.866 493.019 105.204 503.899C103.175 508.016 100.344 502.889 97.6766 508.724C95.8208 517.202 100.008 515.845 97.9086 521.796C92.3064 532.803 95.2409 531.388 93.5126 535.007C92.5963 536.491 91.7264 537.501 94.2202 541.05C104.706 537.083 105.854 538.904 109.832 540.702Z" stroke="#1C2140" stroke-width="1.15989" stroke-miterlimit="10"/>
<path d="M363.407 524.893C363.407 524.893 360.334 527.457 363.071 527.828C366.249 527.862 363.303 533.094 364.799 536.747L367.432 538.568C364.126 540.053 358.652 543.463 357.098 539.983C353.212 536.875 352.47 540.285 349.094 538.974C345.545 539.113 342.379 540.297 338.249 537.42C336.127 535.297 327.37 539.45 326.291 532.757C323.322 529.278 326.465 539.717 323.043 536.538C321.013 535.019 318.114 536.063 317.94 540.459C321.153 541.097 322.162 542.895 319.459 545.354C317.163 543.939 315.539 548.798 312.43 545.864C309.623 542.083 308.985 542.929 305.645 542.187C304.937 532.363 301.458 527.63 304.091 526.517C307.71 525.775 299.637 516.113 298.79 515.95C301.052 509.977 303.383 519.395 310.308 515.753C313.242 509.873 318.682 516.194 319.668 508.052C320.341 505.349 313.892 505.175 309.971 503.052C306.19 500.988 310.006 501.197 309.67 498.355C308.487 498.355 307.918 498.552 307.106 498.123C304.369 495.687 314.599 492.521 309.542 490.526C307.385 489.922 303.058 489.981 303.024 488.635C302.014 485.225 300.959 486.269 298.5 485.155C298.697 484.784 298.697 484.111 298.268 483.532C295.705 476.236 300.019 479.344 301.609 480.562C305.053 485.353 306.306 485.701 312.419 486.106C324.099 486.304 322.208 483.845 327.613 483.879C333.32 480.098 338.69 482.731 344.2 482.151L347.471 477.326C354.36 478.405 353.015 482.058 349.663 483.74C348.039 484.854 347.401 486.072 348.108 488.334C350.173 491.372 348.514 494.145 351.519 494.748C355.3 494.005 355.845 494.145 356.146 497.218C356.518 499.283 354.36 499.619 356.042 500.396C358.443 500.907 357.863 503.331 361.238 501.742C362.456 501.069 363.639 503.969 361.134 506.3C358.942 508.562 357.991 511.868 362.456 511.091C364.312 510.139 364.486 512.378 365.426 512.378C367.919 512.575 366.841 508.736 368.801 508.226C369.311 508.191 369.752 508.295 370.181 508.597C372.246 511.531 370.889 512.378 369.845 513.932C372.339 513.329 372.478 514.303 372.652 515.962C373.835 515.486 374.681 514.744 375.691 514.106C376.607 513.932 376.804 515.185 375.865 515.962C373.429 517.853 371.782 516.844 369.914 518.966C366.91 522.376 367.015 519.813 365.588 522.005C365.298 522.863 365.031 524.592 363.407 524.893Z" stroke="#1C2140" stroke-width="1.15989" stroke-miterlimit="10"/>
<path d="M264.805 492.113C262.207 490.083 264.028 488.703 262.137 487.114C261.128 485.792 259.098 485.896 258.658 484.644L261.697 483.055C266.858 486.94 266.464 485.119 270.547 488.657C272.24 490.721 273.017 489.167 280.986 492.032C280.846 488.413 282.609 486.151 282.47 482.266C286.623 482.301 288.316 480.851 290.682 482.266C292.063 482.904 293.895 482.602 296.319 485.235C297.096 486.082 298.21 485.502 298.442 485.166C300.912 486.244 301.956 485.363 302.965 488.645C303.197 489.828 304.659 489.654 309.484 490.536C314.588 492.6 304.253 495.767 307.048 498.133C307.999 498.609 308.742 498.272 309.612 498.365C310.018 500.894 306.028 501.102 309.913 503.063C313.834 505.092 320.317 505.29 319.61 508.062C318.427 516.274 313.161 509.883 310.25 515.763C303.464 519.44 300.889 509.952 298.732 515.961C289.279 514.14 287.145 523.558 282.389 519.672C279.118 516.738 281.508 512.11 275.604 508.758C272.6 507.099 270.813 508.758 271.185 505.614C272.031 502.645 273.307 501.497 275.175 498.145C273.957 496.266 267.368 495.419 264.805 492.113Z" stroke="#1C2140" stroke-width="1.15989" stroke-miterlimit="10"/>
<path d="M268.807 507.448C269.688 506.126 270.43 506.845 271.335 505.662C271.602 503.667 273.435 501.475 275.325 498.192C275.522 496.742 267.113 495.327 264.956 492.114C262.358 490.085 264.039 488.09 262.288 487.115C260.699 485.631 259.249 485.863 258.808 484.645L261.847 483.056L256.071 477.651L248.601 478.602C247.592 473.777 246.641 473.939 246.166 474.855C245.899 476.201 246.363 476.305 245.562 478.439C242.257 481.652 240.157 472.802 237.223 471.004C233.917 471.202 230.368 470.494 229.382 468.673C224.244 474.148 218.235 462.792 216.925 471.376C214.593 477.999 212.436 474.994 206.625 475.4L206.66 481.583L206.834 489.075L210.105 486.373L211.114 487.046C204.7 495.188 218.885 487.927 212.192 496.232C212.738 498.227 213.573 496.302 222.724 495.351C232.177 494.469 222.492 500.651 236.202 498.563L236.272 508.19C241.236 508.33 243.463 507.007 247.244 505.186L258.658 504.885C263.912 503.261 267.658 511.102 268.807 507.448Z" stroke="#1C2140" stroke-width="1.15989" stroke-miterlimit="10"/>
<path d="M172.652 489.086C177.547 491.858 177.953 499.525 176.944 504.35C174.879 508.201 178.428 508.711 182.418 515.358C189.134 514.244 189.134 515.16 189.169 513.026C189.946 503.608 199.272 509.883 202.508 502.831C203.076 499.281 204.63 499.827 206.927 499.653L212.158 496.208C218.375 488.437 206.486 494.085 210.035 488.541L211.079 487.021L210.07 486.349L206.799 489.051L206.625 481.558C203.25 480.781 199.596 478.009 195.919 475.643C192.776 472.708 191.663 476.42 186.13 474.425C183.659 474.193 179.472 475.608 178.162 478.137C176.804 479.865 176.236 484.597 172.652 489.086Z" stroke="#1C2140" stroke-width="1.15989" stroke-miterlimit="10"/>
<path d="M189.586 443.191C192.996 452.273 194.04 453.421 196.337 460.589C197.346 464.509 197.044 464.231 200.559 464.103C206.37 464.103 204.978 463.628 206.973 465.658C208.898 469.207 211.299 463.291 210.928 466.91C210.696 469.88 211.531 466.876 212.819 470.831C213.085 472.153 215.115 472.246 216.867 471.341C214.802 477.79 212.308 475.053 206.567 475.366V481.583C203.261 480.632 199.41 477.941 195.896 475.644C192.961 472.779 190.897 476.387 186.106 474.426C183.706 474.16 179.414 475.714 178.068 478.103C176.851 479.797 176.143 484.587 172.629 489.076C167.363 486.884 166.481 489.957 160.809 486.304C157.562 484.517 159.081 482.557 157.91 481.444C156.495 478.811 155.068 483.508 154.024 481.374C152.679 479.414 150.51 477.628 147.703 479.855C144.397 482.325 145.336 477.825 135.744 478.266C136.347 477.697 135.744 477.152 135.512 476.514C132.775 474.786 133.888 473.51 134.225 473.336C134.596 472.327 133.552 470.529 135.269 470.262C138.168 469.787 132.427 467.63 136.452 467.084H142.158C144.223 467.224 145.232 463.906 145.093 461.946C149.176 466.876 149.825 459.383 151.913 460.322C155.184 460.427 152.11 462.851 155.659 462.248C159.371 460.427 162.248 462.445 163.5 459.51C163.268 453.432 160.357 453.838 160.833 450.22C160.195 445.081 154.488 443.399 154.685 439.85C154.65 438.632 160.229 431.302 163.837 423.194C165.797 421.814 168.534 431.87 171.735 431.035C175.25 429.69 174.264 426.303 175.146 425.897C177.674 423.635 179.739 429.608 181.154 428.704C183.218 425.456 177.164 421.675 179.228 419.587C187.603 417.731 193.646 428.704 192.903 433.946C184.715 433.424 186.304 437.577 189.586 443.191Z" stroke="#1C2140" stroke-width="1.15989" stroke-miterlimit="10"/>
<path d="M296.435 485.201C296.667 486.083 299.776 485.677 298.326 483.508C295.832 476.015 300.251 479.483 301.666 480.538C304.369 480.306 301.156 475.841 298.697 475.771C291.471 474.762 300.553 469.45 293.733 469.427C289.917 469.728 281.206 468.951 278.329 457.747C277.355 453.722 274.177 457.074 273.156 453.698C271.973 447.516 264.167 441.067 268.366 438.469C270.024 435.5 272.924 429.851 268.841 432.148C265.733 432.38 269.039 429.039 268.946 427.45C267.02 429.41 264.724 431.301 263.378 434.676C262.126 438.829 257.405 440.893 256.593 444.675C252.916 449.5 252.371 446.53 248.184 448.224C245.887 449.546 244.368 449.233 241.932 447.076C236.829 452.515 240.308 455.346 235.924 456.331C230.623 457.039 232.78 460.449 237.849 460.252C240.621 461.4 241.155 463.152 241.294 465.889C241.259 468.858 238.255 468.383 237.211 470.958C240.181 472.813 242.28 481.629 245.551 478.393C246.189 477.105 245.957 475.992 246.154 474.808C246.595 474.228 247.441 473.359 248.59 478.555L256.059 477.604L261.836 483.009C267.067 486.825 266.603 485.166 270.686 488.611C272.205 490.711 273.121 489.052 281.125 491.986C281.055 488.31 282.818 485.874 282.609 482.232C286.762 482.267 288.49 480.817 290.821 482.232C292.376 482.765 293.965 482.626 296.435 485.201Z" stroke="#1C2140" stroke-width="1.15989" stroke-miterlimit="10"/>
<path d="M200.559 464.172C206.196 464.103 204.955 463.732 206.973 465.727C209.037 469.345 211.16 463.326 210.928 466.979C210.627 470.018 211.473 466.805 212.819 470.9C213.12 472.245 215.15 472.28 216.867 471.41C218.119 462.862 224.232 474.147 229.324 468.707C230.275 470.436 233.72 471.236 237.165 471.039C238.243 468.51 241.19 468.916 241.248 465.97C241.178 463.268 240.61 461.481 237.803 460.333C232.699 460.472 230.542 457.12 235.877 456.413C240.169 455.404 236.991 452.492 241.886 447.157C244.113 449.117 245.562 449.824 248.137 448.305C252.359 446.577 252.962 449.627 256.547 444.756C256.987 443.538 256.987 443.306 258.031 441.879C260.293 438.806 261.302 439.351 263.332 434.757C264.585 431.579 266.951 429.422 268.899 427.531C268.633 426.963 267.612 427.462 266.904 427.763C257.115 431.684 260.154 429.109 253.194 431.811C246.537 432.38 242.895 425.432 235.866 423.913C234.683 423.344 230.461 425.061 229.521 420.502C226.007 415.608 223.269 421.952 218.038 417.058C217.528 420.236 215.51 417.324 213.712 420.305C212.053 423.855 206.683 423.785 202.194 428.68C199.294 429.051 199.793 431.951 196.789 433.412C195.13 432.531 192.463 436.08 192.903 434.015C184.761 433.54 186.211 437.321 189.563 443.271C192.335 450.462 194.261 454.383 196.314 460.669C197.415 464.636 197.079 464.207 200.559 464.172Z" stroke="#1C2140" stroke-width="1.15989" stroke-miterlimit="10"/>
<path d="M364.59 432.089C365.541 430.941 366.446 431.451 368.302 431.243C367.861 430.361 365.367 428.772 363.709 428.749C363.372 427.867 364.486 426.522 365.831 425.814L367.212 426.557L367.014 424.562L369.415 424.388C371.039 425.907 373.498 428.679 375.226 427.833C376.815 426.104 378.404 428.61 378.161 430.361C386.095 433.296 385.457 427.322 385.051 424.62C388.936 426.847 392.717 424.956 393.564 429.41C395.455 435.349 392.891 435.929 393.599 439.605C394.678 443.793 392.416 441.334 393.669 445.451C395.188 449.198 394.307 453.721 395.594 456.598C396.51 462.536 396.916 465.958 397.891 467.64C398.668 470.238 399.271 472.303 401.162 474.356C405.279 479.958 406.358 480.839 411.937 480.399C413.491 480.503 417.098 480.805 417.272 481.211C418.757 482.695 420.276 482.185 420.45 482.997C418.861 483.739 417.644 484.412 416.263 485.897C413.7 483.426 413.967 484.18 410.997 483.159L406.775 482.313V486.163C405.824 486.163 404.444 484.98 403.098 484.203C401.95 488.564 403.296 489.91 406.033 490.049C408.527 490.084 409.513 490.281 410.731 492.172C409.919 494.665 408.469 492.984 408.167 496.533C408.712 498.528 408.132 500.349 407.089 501.799C406.451 503.527 407.46 503.492 407.46 504.942C406.079 505.684 403.841 506.833 402.461 506.229C400.094 505.348 403.006 509.442 399.828 507.853C398.413 507.888 393.042 506.299 392.196 509.442C389.829 511.634 389.795 508.294 387.162 504.107C386.559 502.355 385.816 504.513 380.075 502.042C378.416 501.265 377.511 501.938 376.189 503.051C371.967 506.16 370.274 507.911 368.824 508.224C366.794 508.77 367.85 512.551 365.449 512.377C364.497 512.377 364.474 510.219 362.479 511.089C358.118 511.832 358.93 508.619 361.157 506.299C363.685 503.898 362.479 501.103 361.261 501.741C357.851 503.364 358.489 500.929 356.065 500.395C354.406 499.757 356.633 498.98 356.169 497.217C355.903 494.248 355.427 493.969 351.541 494.746C348.468 494.039 350.092 490.826 348.131 488.332C347.459 486.303 348.062 484.887 349.686 483.739C353.026 482.081 354.418 478.439 347.493 477.325L349.314 474.692C348.236 474.657 344.211 475.643 343.028 473.509C340.836 470.435 338.261 476.722 337.832 470.296C337.971 466.921 336.417 466.213 335.941 467.93C335.303 472.117 327.091 474.216 328.042 464.659C329.736 458.744 334.259 461.817 334.827 459.729C334.793 458.883 334.63 457.734 333.853 457.665C331.151 456.957 330.037 457.665 329.933 452.028C328.68 446.356 335.779 448.281 332.74 442.401C331.696 439.907 330.814 438.48 331.928 437.738C333.076 437.332 332.937 436.288 334.259 435.209C345.545 433.957 354.627 436.798 358.64 438.828C361.691 440.093 358.408 436.613 364.59 432.089Z" stroke="#1C2140" stroke-width="1.15989" stroke-miterlimit="10"/>
<path d="M223.722 375.394L219.906 375.626C217.134 375.557 217.006 375.22 217.342 380.486C217.203 386.97 216.496 384.94 214.779 386.054C213.225 385.949 212.923 389.464 211.914 389.939C212.552 390.983 214.408 391.32 213.944 392.781C215.765 399.671 208.098 394.602 208.574 399.23C207.495 404.125 215.637 400.517 213.503 403.858C204.456 404.426 211.346 407.778 210.232 409.739C210.337 411.154 213.236 410.713 213.004 413.729C213.144 417.371 216.82 415.55 217.934 416.999C223.339 421.894 226.007 415.619 229.556 420.479C230.635 424.806 234.625 423.414 235.901 423.889C237.93 414.135 240.9 426.453 249.75 410.04H251.814L251.884 413.114C255.433 413.485 254.146 412.198 257.358 411.826C263.61 411.281 264.422 408.961 265.292 412.87L269.816 411.826C266.069 404.67 268.261 411.629 260.803 402.71C258.333 400.889 260.977 400.854 261.406 398.488C263.193 393.999 267.322 398.627 267.658 390.276C267.183 384.024 263.575 386.286 260.966 383.351C260.977 382.191 261.151 381.426 261.847 380.405C264.492 376.554 261.604 375.754 260.595 376.543C260.873 371.404 257.938 371.601 256.222 371.497C254.888 371.543 254.262 371.381 252.893 372.147C252.232 372.947 249.483 371.903 245.98 373.701C240.946 375.928 237.06 377.007 231.226 377.181L231.331 374.988L223.722 375.394Z" stroke="#1C2140" stroke-width="1.15989" stroke-miterlimit="10"/>
<path d="M217.145 361.882C216.136 363.297 215.417 365.025 219.813 364.758C222.284 365.164 223.293 367.426 223.734 375.464L219.918 375.696C217.215 375.661 216.948 375.29 217.354 380.556C217.215 387.109 216.647 384.952 214.791 386.123C213.063 386.088 213.063 389.429 211.926 390.009C210.952 388.826 210.812 387.817 210.198 386.367C204.317 386.471 200.002 388.559 198.077 387.782C198.007 383.258 194.702 380.927 193.484 377.552L203.343 368.539C201.382 367.994 200.779 365.5 200.234 362.694C198.854 362.357 197.126 362.694 195.537 362.659C193.101 362.694 194.191 357.428 195.873 354.25L196.175 353.809C198.402 355.734 198.738 355.537 201.104 355.873L201.243 352.568H203.505C205.361 358.344 206.614 352.8 208.133 353.008C210.464 353.96 212.622 353.078 214.547 351.559L217.319 352.301C217.319 352.301 217.725 354.563 219.72 356.187L218.375 357.741L219.628 358.993C218.12 360.432 218.259 360.699 217.145 361.882Z" stroke="#1C2140" stroke-width="1.15989" stroke-miterlimit="10"/>
<path d="M285.289 380.371C285.335 380.29 285.393 380.208 285.439 380.127C287.655 368.482 300.031 356.512 291.134 345.91C287.458 338.278 266.638 350.434 288.873 327.039C289.603 328.895 291.146 329.08 293.941 329.892C297.108 331.342 299.95 328.002 302.107 331.11C305.355 335.634 307.756 331.655 310.446 334.219C311.293 335.437 313.625 335.193 314.668 334.822C319.981 333.975 318.833 338.603 324.4 337.258C330.849 335.738 326.963 340.703 329.608 341.781C331.765 341.99 332.403 346.108 334.329 343.567C335.071 339.485 338.551 342.593 341.184 340.703C342.239 340.436 343.387 340.366 342.239 342.361C341.253 344.751 344.733 345.122 345.243 343.405C345.649 340.9 350.671 342.558 350.915 345.899C352.736 349.819 356.448 346.711 359.115 347.384C359.73 347.256 359.556 347.082 360.241 347.186C360.206 357.289 359.324 358.031 358.443 361.917C357.944 364.851 357.434 366.939 357.097 369.108C355.671 378.457 355.265 381.971 354.522 391.83C344.559 391.529 353.85 394.197 353.513 395.38C356.25 398.419 351.112 395.646 351.077 397.572L349.222 400.379L346.183 398.152L347.331 396.192C342.459 395.148 344.396 395.055 340.29 397.038L336.498 400.773L329.005 408.127C329.747 408.95 330.362 409.658 330.895 410.296C330.953 410.377 331.011 410.447 331.069 410.516C332.194 411.873 332.972 412.882 333.83 413.799C333.841 413.81 333.865 413.834 333.876 413.857C334.317 414.321 334.793 414.761 335.349 415.225C335.535 415.167 336.266 416.072 336.59 415.956C339.815 418.032 340.07 416.072 340.128 413.88C340.174 413.845 339.258 413.358 339.258 413.242C339.258 412.906 339.142 412.256 339.281 412.001C339.305 411.943 339.339 411.908 339.386 411.885C340.998 411.247 343.921 411.56 345.464 411.259C345.51 411.259 345.568 411.247 345.614 411.235C349.187 410.412 348.642 411.781 349.465 412.511C349.488 412.523 349.5 412.546 349.523 412.558C349.581 412.662 349.628 412.766 349.674 412.871C349.686 412.882 349.697 412.894 349.697 412.906C350.787 415.156 351.472 418.067 354.035 419.146C354.058 419.146 354.07 419.157 354.082 419.169C354.464 419.32 354.893 419.436 355.369 419.505C357.84 419.865 359.614 421.234 360.797 422.417C360.809 422.417 360.82 422.428 360.82 422.44" stroke="#1C2140" stroke-width="1.15989" stroke-miterlimit="10"/>
<path d="M254.308 358.274L258.901 358.169V360.57L260.386 360.605L260.351 358.947L263.355 358.981L263.39 357.288L270.106 357.427L270.477 355.571H272.808L273.481 358.436C278.144 359.956 275.07 361.846 280.916 363.064C282.169 363.644 280.719 364.618 279.628 365.871C278.782 367.321 279.049 366.544 274.293 364.897L273.075 367.46L269.804 365.129L269.259 366.509L266.522 366.613L266.557 364.885C265.64 362.484 263.448 365.523 262.706 366.231C261.627 368.492 263.146 368.226 264.121 371.74C264.388 372.923 264.353 376.6 262.567 376.739C262.056 376.333 261.488 376.194 260.711 376.368C260.34 372.111 259.632 372.007 256.013 371.334C257.266 369.409 257.939 367.715 256.895 363.029C256.048 363.064 255.201 363.064 254.331 362.763L254.308 358.274Z" stroke="#1C2140" stroke-width="1.15989" stroke-miterlimit="10"/>
<path d="M285.532 380.301C286.831 370.708 300.332 355.514 290.879 345.608C285.973 338.255 267.264 350.016 288.873 327.178C288.281 326.273 288.525 325.391 284.221 322.538C281.449 322.469 281.078 323.652 275.847 323.86C270.778 324.568 265.744 323.965 260.212 323.315L259.574 327.236C264.944 326.087 265.176 327.781 269.804 330.878C271.59 332.571 271.289 334.729 269.734 335.1C264.967 335.506 261.093 338.347 261.221 342.5C260.885 348.172 257.973 349.865 259.191 354.655C260.107 355.804 260.85 357.091 260.513 359.051L263.517 359.086L263.552 357.393L270.268 357.532L270.639 355.676L272.936 355.607L273.608 358.483C278.167 359.898 275.267 361.963 281.078 363.181C282.458 363.923 280.405 365.106 279.791 365.988C278.909 367.611 278.874 366.359 274.455 365.013L273.237 367.577L269.966 365.245L269.421 366.625L266.684 366.73L266.719 365.002C265.942 362.844 264.086 365.106 262.868 366.359C261.65 368.284 263.842 369.363 264.283 371.868C264.457 373.318 264.654 376.427 262.729 376.867C263.332 377.644 262.659 378.932 261.917 380.486L273.295 379.883C278.492 385.253 280.858 382.852 282.377 380.591L285.532 380.301Z" stroke="#1C2140" stroke-width="1.15989" stroke-miterlimit="10"/>
<path d="M218.41 357.764L219.697 359.04L220.973 357.149H222.829L223.409 359.979L226.111 360.141L226.308 358.622L227.793 358.552L227.99 356.859L228.628 356.894V355.374L227.445 354.528L228.686 352.869L226.691 350.746L227.399 348.345L225.473 347.371L224.325 348.485L221.785 346.803L218.99 349.343C217.227 348.264 216.322 347.487 216.322 349.25C217.134 351.651 217.644 354.481 219.778 356.163L218.41 357.764Z" stroke="#1C2140" stroke-width="1.15989" stroke-miterlimit="10"/>
<path d="M254.32 362.473C252.997 362.844 258.426 362.728 256.941 363.007C257.718 365.953 257.788 368.458 255.816 371.845C254.401 371.3 253.438 371.787 252.278 372.472C250.55 372.472 248.381 372.657 246.085 373.771C241.051 375.963 237.119 377.111 231.238 377.25L231.342 375.058L223.78 375.464C223.339 367.356 222.33 365.164 219.859 364.758C215.336 364.99 216.345 363.204 217.192 361.882C218.201 360.733 218.236 360.293 219.662 358.982L220.95 357.161H222.806L223.374 359.933L226.076 360.107L226.274 358.588L227.758 358.518L227.955 356.894L228.593 356.929V355.41L227.41 354.563L228.663 352.904L226.668 350.782L227.376 348.381L225.45 347.406L224.302 348.52L221.773 346.826L218.966 349.355C217.308 348.381 216.368 347.43 216.403 349.285L217.377 352.289L214.605 351.582C212.645 353.101 210.488 353.983 208.191 353.032C206.637 352.858 205.349 358.263 203.493 352.521H201.232L201.092 355.827C198.622 355.421 198.286 355.688 196.163 353.762C198.286 350.619 197.914 345.319 197.276 342.384C196.499 340.598 195.757 339.751 195.49 335.935C189.343 333.87 189.644 336.747 190.224 329.521C190.19 326.447 189.784 324.151 186.814 320.369C184.692 317.899 185.736 311.287 186.582 310.301C189.691 304.595 193.066 309.629 193.808 304.699C193.878 302.809 193.774 300.674 194.818 300.002C196.233 299.085 194.145 298.517 197.311 296.36L198.228 295.722C202.38 296.093 203.331 296.696 205.999 296.429C208.667 297.032 213.457 294.434 213.932 298.25C214.443 297.612 214.478 298.111 216.403 297.032C219.338 295.617 214.918 299.097 217.621 297.809C218.096 296.766 225.323 296.893 225.763 296.893C226.274 297.67 224.279 299.294 223.641 301.289L234.207 301.394L239.949 306.532C241.329 307.205 242.211 306.729 243.66 306.161C246.838 305.117 250.179 315.173 258.356 312.041C261.395 311.125 262.613 307.993 266.127 307.622C268.726 307.425 270.987 307.727 273.319 308.098C277.239 309.919 281.252 302.252 281.183 305.766C281.148 307.425 281.322 310.093 282.192 312.146C283.039 312.958 282.83 314.953 285.405 314.883C290.636 315.892 282.737 317.586 284.152 322.55C281.345 322.48 280.881 323.663 275.778 323.837C270.848 324.615 265.443 323.872 260.108 323.269L259.47 327.224C264.805 326.076 265.107 327.769 269.769 330.901C271.556 332.56 271.219 334.787 269.665 335.123C264.77 335.564 261.082 338.336 261.151 342.523C260.78 348.195 257.904 349.749 259.052 354.644C259.829 355.421 260.711 356.975 260.374 358.901L260.444 360.629L258.959 360.594V358.193L254.366 358.298L254.32 362.473Z" stroke="#1C2140" stroke-width="1.15989" stroke-miterlimit="10"/>
<path d="M352.133 279.297C351.089 284.064 350.393 289.156 345.696 288.391C339.653 289.887 347.563 292.914 348.804 291.662C349.106 290.71 350.219 291.116 350.185 292.033C350.254 294.155 350.59 294.26 348.097 295.014C345.232 295.663 344.93 301.3 347.436 302.82C349.291 303.597 351.391 304.397 351.924 301.764C353.432 297.333 354.917 292.949 354.638 287.242C354.488 280.283 357.26 282.44 357.144 274.333C355.752 267.814 361.76 267.745 360.67 261.157C359.916 257.642 361.296 255.415 362.781 250.381C362.781 248.224 365.17 242.169 365.159 236.602C364.985 230.292 367.641 229.028 370.877 224.33C373.788 227.125 376.792 229.283 380.04 231.266C375.899 239.652 373.545 244.176 370.749 251.785C368.94 257.526 367.896 263.036 366.458 268.684C364.01 279.529 362.572 284.424 359.928 298.111C358.281 306.149 357.26 315.207 356.193 324.289C353.757 341.142 356.9 341.711 356.842 345.736C356.912 346.687 352.864 350.027 350.799 345.91C350.66 342.604 346.125 341.015 345.023 343.288C344.547 345.109 341.172 344.75 342.112 342.384C343.388 340.215 341.868 340.493 341.056 340.725C338.528 342.685 334.944 339.414 334.201 343.578C332.253 346.118 331.626 342.001 329.469 341.792C326.871 340.818 330.71 335.714 324.261 337.28C319.366 338.881 319.262 333.882 314.53 334.833C313.752 335.169 311.293 335.482 310.342 334.229C307.431 331.597 305.25 335.761 301.991 331.133C299.718 328.059 297.433 331.307 293.814 329.892C286.553 327.676 292.121 327.966 284.071 322.549C282.644 317.515 290.613 315.857 285.312 314.883C282.749 314.952 282.981 312.957 282.099 312.157C281.183 310.069 281.078 307.459 281.113 305.777C281.276 302.159 277.1 310.011 273.214 308.12C270.848 307.714 268.552 307.448 266.023 307.622C262.509 308.028 261.267 311.171 258.263 312.064C249.959 315.115 246.699 305.024 243.533 306.149C241.712 307.1 240.459 306.995 239.821 306.531L234.068 301.405L223.502 301.289C224.139 299.294 226.1 297.705 225.624 296.893C225.114 296.858 217.992 296.8 217.482 297.821C214.779 299.143 219.198 295.594 216.264 297.043C213.805 298.296 214.338 297.519 213.805 298.261C213.329 294.445 208.539 297.02 205.86 296.417C203.261 296.696 201.904 296.058 198.088 295.721C200.455 293.657 197.033 289.945 198.448 287.718C199.689 285.421 196.592 285.63 197.288 282.313C198.865 278.195 202.218 283.009 202.508 275.852C202.531 272.036 203.435 268.731 206.648 265.61C210.058 262.293 214.304 260.762 215.916 255.67C220.138 255.902 221.53 257.317 223.757 256.401C226.993 255.415 228.187 258.86 231.052 256.181C235.031 251.819 235.843 253.234 237.931 252.051C241.573 250.497 242.431 256.03 244.588 253.698C244.716 252.655 243.974 251.843 248.323 248.154C254.459 243.955 254.679 251.657 259.574 248.711C265.107 245.765 261.673 253.942 265.861 252.747C271.382 243.074 266.557 242.853 269.561 241.601C277.054 238.144 273.307 241.357 279.513 237.901C282.679 235.5 282.285 240.325 285.15 239.211C286.565 237.785 287.319 241.578 289.441 243.758C290.183 242.807 290.995 241.253 292.712 241.288C295.078 241.554 299.439 243.468 302.977 241.334C305.169 239.71 303.986 236.741 309.902 239.223C312.709 239.896 314.831 238.945 316.525 240.058C319.03 241.612 323.611 239.2 323.716 241.67C324.4 243.665 322.278 247.307 325.514 247.203C332.937 246.612 331.394 250.602 332.543 252.225C332.949 254.893 335.083 254.65 336.161 258.396C337.449 263.557 339.815 265.344 340.743 268.151C341.253 270.586 341.184 272.141 343.794 273.915C345.081 274.391 346.299 274.321 347.308 273.846C347.888 274.994 349.199 274.994 350.382 275.226C351.762 275.586 352.098 277.163 352.133 279.297Z" stroke="#1C2140" stroke-width="1.15989" stroke-miterlimit="10"/>
<path d="M321.895 165.466C324.806 169.653 322.069 171.034 325.56 177.181C329.283 181.333 325.537 180.255 332.566 188.919C336.393 192.491 335.918 197.154 338.353 198.871C340.754 200.924 340.244 200.657 340.627 202.316C341.242 205.181 343.608 209.031 345.301 211.966C348.955 218.577 345.092 226.627 352.794 225.896C356.877 226.256 351.727 233.424 353.281 235.558C355.415 238.353 357.434 231.301 359.429 237.739C359.707 241.891 360.786 240.302 360.681 242.227C360.716 243.851 363.187 245.394 359.916 246.751C356.1 247.366 354.348 252.945 351.588 256.32C349.303 260.171 356.598 260.333 354.07 264.358C352.319 265.912 350.927 266.284 349.245 269.705C348.305 271.259 347.122 272.686 347.366 273.834C346.183 274.275 345.034 274.345 343.851 273.904C341.416 272.593 341.044 269.624 340.801 268.139C340.024 265.541 337.518 263.523 336.219 258.385C335.303 254.87 333.204 255.044 332.6 252.214C331.417 250.567 332.96 246.647 325.571 247.192C322.301 247.227 324.481 243.817 323.774 241.659C323.704 239.293 318.705 241.497 316.582 240.047C314.819 238.968 312.871 239.919 309.959 239.212C303.905 236.788 305.169 239.792 303.035 241.323C299.462 243.387 295.101 241.543 292.77 241.276C291.111 241.242 290.276 242.703 289.499 243.747C287.608 241.729 286.518 237.704 285.207 239.2C282.377 240.453 282.841 235.349 279.57 237.889C273.771 241.102 276.636 238.33 269.618 241.59C266.51 242.842 271.509 242.738 265.918 252.736C261.766 253.931 265.025 245.406 259.632 248.7C254.61 251.646 254.586 243.979 248.381 248.143C244.066 251.762 244.704 252.771 244.646 253.687C242.895 256.158 241.433 250.347 237.988 252.04C235.692 253.397 235.112 251.739 231.11 256.169C228.21 258.744 227.027 255.404 223.814 256.39C221.321 257.202 219.766 255.891 215.974 255.659C216.716 254.14 217.551 253.061 218.537 251.936C220.926 248.897 223.026 248.792 225.079 248.375C229.637 247.621 229.869 247.586 230.368 242.796L231.133 235.059L225.902 237.866C222.933 239.455 223.838 237.797 223.397 232.067C222.852 228.552 219.163 225.792 217.006 228.054C213.329 231.44 210.696 228.947 208.052 226.917C207.379 225.664 206.764 225.165 204.642 225.908L201.533 225.85C198.529 226.059 202.542 224.029 202.739 219.528C203.006 218.345 203.145 217.371 203.134 216.153C208.4 216.884 209.838 224.11 215.405 221.941L215.498 219.54L217.192 219.644C216.762 222.243 217.157 221.5 221.854 223.008C223.478 224.156 228.268 222.08 230.983 225.351C232.398 226.198 233.21 225.757 232.131 224.539C231.423 223.159 229.092 222.277 229.858 220.422C232.084 215.794 231.563 210.899 234.845 211.061C236.028 211.224 236.596 211.525 237.548 212.14C239.171 213.114 238.325 209.669 240.958 210.992C241.804 212.546 244.31 212.813 243.73 210.447C243.695 210.145 243.591 207.674 243.556 207.373C242.535 201.805 243.486 202.954 245.748 202.606C247.337 202.501 247.36 200.031 245.945 199.764C243.881 199.126 246.757 198.476 245.597 197.096C245.191 196.389 244.658 197.607 244.217 197.839L244.113 196.389L242.825 196.493C242.86 198.384 242.999 198.65 241.004 198.662C240.575 187.11 237.443 190.833 240.111 187.69C244.565 183.12 246.699 186.796 245.864 176.903C245.655 172.611 247.279 174.676 245.214 171.126C243.915 161.905 242.06 160.293 243.637 158.402L247.581 155.189L250.457 157.683C252.046 159.574 252.452 156.222 254.041 157.648C256.512 158.658 257.857 157.776 259.272 155.92C261.36 154.528 258.924 149.204 260.699 143.556C261.569 137.78 262.856 139.67 267.229 130.437C271.985 125.334 281.136 123.698 287.922 123.849C288.536 124.766 288.733 125.775 289.012 126.853C290.264 130.089 290.369 133.233 291.088 136.376C292.515 139.45 292.039 142.825 293.837 144.472C295.658 146.119 296.203 148.149 297.085 151.118C297.491 154.122 299.799 155.201 302.733 157.057C303.406 157.695 304.16 158.947 305.471 159.11C309.217 159.168 312.789 154.47 316.536 155.213C320.294 155.943 319.83 162.636 321.895 165.466Z" stroke="#1C2140" stroke-width="1.15989" stroke-miterlimit="10"/>
<path d="M241.294 239.502C240.668 240.662 239.949 239.235 236.759 239.432C236.538 237.959 235.912 235.558 235.042 234.804L235.785 230.756C237.13 230.779 239.345 230.988 240.03 231.765C240.366 231.162 240.297 230.942 240.61 231.162C246.084 231.904 244.866 228.309 246.247 229.341C247.117 230.257 244.519 231.533 246.247 232.044C247.499 232.519 247.325 231.29 248.798 232.16C249.518 232.38 249.286 233.656 248.706 233.818C247.592 234.131 244.82 233.389 245.238 235.048C246.108 237.623 243.428 237.147 242.953 238.017C242.512 238.829 241.909 238.005 241.294 239.502Z" stroke="#1C2140" stroke-width="1.15989" stroke-miterlimit="10"/>
<path d="M185.967 205.68C186.466 202.536 185.213 201.295 184.877 200.112C181.931 192.48 187.974 193.756 191.071 188.722C195.316 183.444 197.346 185.126 197.346 181.925C196.395 177.633 190.827 181.763 190.619 177.541L188.716 152.151C188.716 150.225 188.948 151.002 202.589 150.167L202.136 142.466C202.125 138.719 195.548 140.076 200.501 131.018C203.169 128.721 196.673 121.866 196.963 114.373L195.339 49.9065L195.073 12.9641C183.856 13.7644 185.782 10.2152 179.739 9.41485C173.661 7.87219 166.4 7.70981 159.707 6.8167C153.015 5.85399 149.071 8.04619 143.121 5.35525C138.992 2.55992 137.101 3.47622 133.668 3.78939C129.144 3.83579 127.66 4.50853 125.932 3.02387C122.521 1.78279 118.566 4.39254 115.388 1.92198C111.665 0.205343 109.682 1.08685 107.524 2.91947C100.913 6.8167 99.3817 3.17466 95.2989 3.27904L81.0439 21.9764L86.4026 37.9713L48.9846 80.7596L47.1172 77.4539L43.6027 77.5583L42.4544 80.0288L29.0113 80.458L24.9053 86.5126L28.9649 92.1497L26.5407 94.8174L22.6899 94.8522L21.9012 105.187L42.3616 104.41C45.7485 110.314 45.9457 107.611 47.7087 109.165C50.5504 111.114 46.2588 110.418 54.3317 114.222L43.9275 134.741L21.3096 140.691C17.8996 140.935 17.6676 142.593 17.8416 145.597L6.52107 144.809L1 157.521L30.8555 159.423L31.4007 160.943L34.4048 160.966L34.4396 159.342L63.6224 162.567L63.2628 168.238C63.2628 168.238 63.5064 169.827 61.3374 171.115L60.5023 196.238C70.8485 200.1 81.4614 206.433 90.5202 211.317C91.8772 213.81 93.4315 212.291 97.3751 212.279L106.735 212.268L107.002 207.303L116.258 207.385C117.441 210.829 117.859 213.022 122.545 212.511H143.284L141.776 220.828C141.277 223.124 138.366 222.858 136.173 223.437C136.347 227.764 138.447 231.568 139.572 235.628C140.279 237.252 141.068 238.261 142.518 238.191L145.012 238.156L144.803 234.306C147.401 233.691 146.763 233.123 146.856 228.599L163.814 228.437C167.026 228.437 169.857 227.949 169.717 223.124L168.917 211.978L186.605 209.182C185.944 208.011 185.875 207.767 185.967 205.68Z" stroke="#1C2140" stroke-width="1.15989" stroke-miterlimit="10"/>
<path d="M243.66 208.313C243.66 209.322 243.764 209.635 243.73 210.343C244.31 212.674 241.909 212.477 240.958 210.888C238.29 209.647 239.032 213.219 237.547 212.036C236.596 211.433 236.063 211.097 234.845 210.957C231.597 210.76 232.015 215.759 229.857 220.318C229.08 222.081 231.354 223.055 232.131 224.435C233.209 225.653 232.34 226.129 230.983 225.247C228.002 221.872 223.455 224.111 221.866 222.904C217.133 221.292 216.867 222.336 217.203 219.541L215.51 219.436L215.417 221.837C209.884 224.006 208.388 216.745 203.145 216.084C203.482 211.966 199.758 211.839 199.99 206.631C200.385 201.029 200.315 200.588 198.494 200.623L184.912 200.066C181.757 192.469 188.345 193.71 191.14 188.78C194.272 184.187 197.682 184.883 197.415 181.949C196.325 177.622 190.932 181.856 190.688 177.564L188.786 152.209C188.786 150.284 188.612 151.2 202.623 150.156L202.136 142.454C202.264 138.94 195.618 139.763 200.559 131.041C203.087 128.745 196.766 121.832 197.056 114.397L195.397 49.9649L195.165 13.0225C209.153 13.7416 204.525 15.4698 210.197 15.5974C211.009 15.2958 213.341 14.2056 220.242 20.411C224.232 23.6818 227.004 26.512 232.305 27.1151C238.046 29.0985 236.399 31.8707 239.774 32.3694L249.135 35.6287C252.116 37.3801 253.461 37.3105 251.942 39.5723C250.666 41.0918 251.234 42.3444 254.749 42.1705C257.312 42.2285 259.748 42.8664 262.184 44.1887C265.466 46.8796 266.777 41.8225 262.01 39.7695C261.024 38.9924 261.325 37.1713 264.167 37.6701C271.126 37.8325 269.966 35.4315 273.11 33.3669L279.338 38.7604L277.134 50.5217L276.566 51.1596C275.592 52.6095 275.859 54.0013 277.552 53.3866L280.487 50.8464C282.748 50.1969 284.001 50.0345 283.027 53.375C281.345 56.3211 278.236 59.4644 278.039 62.1321C277.703 65.3798 276.624 65.8786 274.096 63.5936C272.298 62.1437 270.72 62.7933 271.161 66.5049C271.138 71.2025 270.697 74.2762 269.421 77.895C268.041 80.2264 265.512 80.2032 263.819 78.0342C263.309 77.3615 263.575 76.0044 260.942 73.3831C259.957 72.374 258.947 72.2696 258.17 73.2207C257.324 74.2298 257.776 76.364 258.008 78.0458C258.588 79.3913 258.785 80.7135 258.147 82.639C257.103 85.8866 259.133 85.8751 262.369 86.1766L266.591 86.0374C267.333 86.2694 267.368 87.9628 266.127 88.6008C265.965 91.0945 264.608 91.1989 263.332 90.8742C260.896 90.3406 257.927 90.8858 255.595 92.4748C253.334 93.6579 253.206 95.6529 256.036 96.2908C257.393 96.5576 258.634 96.0473 260.223 95.9429C261.94 95.8385 263.158 96.4416 265.756 95.8037C267.786 95.2933 267.751 96.2096 267.113 97.0796C265.907 101.708 266.208 104.48 260.536 104.085C256.488 103.888 252.8 102.311 250.967 98.6686C250.086 96.6156 249.239 96.6156 248.508 99.8517C247.801 102.891 248.323 106.846 250.248 107.89C255.352 110.105 255.375 104.978 259.261 108.249C260.745 109.432 262.984 109.734 264.967 110.024C266.15 110.291 268.516 111.23 270.106 113.794C272.472 117.296 273.086 119.5 281.902 119.581C285.52 119.953 287.307 122.307 287.921 123.792C280.997 123.664 272.019 125.207 267.229 130.38C262.856 139.671 261.43 137.919 260.734 143.464C258.959 149.135 261.395 154.506 259.272 155.828C257.927 157.684 256.512 158.6 254.041 157.556C252.417 156.141 252.081 159.516 250.457 157.591L247.615 155.097L243.672 158.31C242.059 160.131 243.88 161.755 245.214 171.034C247.314 174.641 245.62 172.519 245.864 176.845L246.038 180.487C245.875 186.124 244.426 183.364 240.041 187.586C237.35 190.694 240.644 187.145 241.004 198.558C242.999 198.454 242.86 198.245 242.755 196.354L244.101 196.285L244.205 197.735C244.716 197.503 245.11 196.32 245.62 196.992C246.699 198.338 243.938 199.022 245.968 199.66C247.349 200.066 247.325 202.363 245.736 202.502C243.312 202.78 242.535 201.667 243.66 208.313Z" stroke="#1C2140" stroke-width="1.15989" stroke-miterlimit="10"/>
<path fill-rule="evenodd" clip-rule="evenodd" d="M286.124 110.73C283.537 110.116 281.438 108.283 280.034 106.114C279.64 105.418 280.51 103.539 282.029 103.527C283.386 103.562 284.071 104.015 284.395 104.792C284.674 106.508 284.535 106.381 285.868 107.088C286.796 107.506 287.782 107.993 288.281 108.99C288.571 110.069 288.084 110.927 286.124 110.73Z" stroke="#1C2140" stroke-width="1.15989" stroke-miterlimit="10"/>
<path fill-rule="evenodd" clip-rule="evenodd" d="M287.597 65.1015L287.492 61.0535C287.481 60.5083 286.878 59.418 286.553 58.5713C286.135 57.8406 286.205 56.6923 287.133 56.0544C289.058 54.8249 291.262 53.5606 293.211 55.9036C293.906 56.8315 294.08 58.3509 293.674 59.5108C293.06 60.5779 293.095 62.1902 293.106 63.988C293.141 64.1504 292.364 65.3915 291.772 66.0178C289.65 67.2125 288.826 66.6674 287.597 65.1015Z" stroke="#1C2140" stroke-width="1.15989" stroke-miterlimit="10"/>
<path d="M378.532 419.54C383.357 419.865 381.409 421.663 385.062 424.667C385.468 427.439 386.025 433.308 378.115 430.385C378.381 428.634 376.723 426.163 375.168 427.857C373.417 428.738 370.981 425.873 369.357 424.354C371.515 419.888 372.489 419.076 375.586 416.548C375.69 416.466 376.537 418.195 378.532 419.54Z" stroke="#1C2140" stroke-width="1.15989" stroke-miterlimit="10"/>
<path d="M367.188 426.533L366.991 424.573L369.323 424.341C371.445 419.922 372.501 419.04 375.574 416.535C374.496 414.714 373.208 412.579 371.619 411.942C370.738 411.837 369.056 409.204 367.942 408.021C366.527 406.293 364.532 404.275 362.839 402.86C360.647 401.479 359.765 404.112 357.7 401.781L357.063 400.563C356.39 397.791 356.552 391.678 357.132 389.556C359.162 383.513 355.914 384.731 359.023 375.196C360.345 370.974 358.048 370.777 359.498 368.202C362.433 364.688 358.756 362.727 362.131 358.679C365.947 347.974 365.24 358.076 371.758 345.376C375.574 342.476 372.466 340.11 371.213 336.7C369.96 333.359 367.908 330.552 366.144 331.097C365.263 332.246 368.105 332.617 367.734 334.067C360.774 334.879 368.209 336.224 365.541 339.367C363.512 342.302 362.398 343.183 360.31 341.258C360.171 339.878 357.712 338.115 359.429 333.255C361.319 326.063 358.014 323.152 360.206 317.921C362.769 310.219 359.023 312.075 362.676 303.26C366.388 294.074 362.096 293.772 365.147 287.323L369.914 265.169C371.202 261.121 372.883 255.345 374.542 251.459C374.472 248.896 377.813 243.966 378.59 240.951C379.437 238.55 380.481 236.868 381.432 234.258C383.554 231.59 383.868 227.171 385.619 226.858C386.999 226.661 386.999 229.259 388.055 227.195C388.901 225.037 386.906 223.889 385.619 222.404C384.61 221.766 383.462 221.929 382.58 220.653C379.332 218.02 375.052 221.662 372.883 222.439L370.854 224.225C373.788 226.997 376.769 229.155 380.005 231.15C375.853 239.524 373.626 243.955 370.714 251.68C368.893 257.421 367.815 262.861 366.388 268.498C363.952 279.308 362.502 284.238 359.869 297.913C358.246 305.881 357.237 314.963 356.123 324.092C353.652 340.98 356.865 341.42 356.761 345.538C356.529 346.512 355.647 347.197 354.058 347.869C355.879 347.463 357.329 346.988 358.918 347.231C359.591 347.057 359.695 346.895 360.032 347.034C360.206 355.107 359.058 358.587 358.246 361.765C357.608 364.699 357.434 366.393 356.9 368.956C355.044 381.854 355.311 379.186 354.337 391.69C344.373 391.388 353.664 394.056 353.328 395.239C356.1 398.382 350.962 395.413 350.892 397.431L349.036 400.238L345.997 398.011L347.145 396.051C341.775 394.091 340.36 397.64 336.509 400.818L329.144 408.114C331.406 410.747 332.45 412.904 335.117 415.004C338.052 414.864 337.785 417.405 339.339 416.326C340.418 415.375 339.003 413.832 339.165 412.034C345.348 412.579 347.749 409.297 349.059 411.965C350.915 414.458 351.356 418.414 354.604 419.434C358.884 420.246 362.758 424.329 367.188 426.533Z" stroke="#1C2140" stroke-width="1.15989" stroke-miterlimit="10"/>
<path d="M368.36 408.475L360.693 415.666L358.536 413.636C362.491 409.785 358.396 407.117 356.471 405.772L352.249 402.466L354.314 400.437L357.051 400.576L357.689 401.794C360.09 404.16 360.252 401.527 362.827 402.872C364.753 404.461 366.91 406.816 368.36 408.475Z" stroke="#1C2140" stroke-width="1.15989" stroke-miterlimit="10"/>
<path fill-rule="evenodd" clip-rule="evenodd" d="M387.243 222.207C390.049 223.147 390.548 221.024 389.435 219.702C388.692 218.786 387.475 218.02 387.231 216.907C385.166 214.042 385.746 218.902 384.088 216.849C383.345 216.037 382.765 216.617 383.009 217.73C382.475 219.343 385.352 222.033 387.243 222.207Z" stroke="#1C2140" stroke-width="1.15989" stroke-miterlimit="10"/>
<path fill-rule="evenodd" clip-rule="evenodd" d="M387.301 214.53C387.069 216.49 389.563 215.4 389.261 216.919C390.247 218.172 392.207 218.67 392.88 218.23C394.26 216.745 392.335 214.414 390.073 213.579C389.087 213.347 387.568 213.207 387.301 214.53Z" stroke="#1C2140" stroke-width="1.15989" stroke-miterlimit="10"/>
<path fill-rule="evenodd" clip-rule="evenodd" d="M403.76 202.061C403.319 200.344 404.467 199.59 405.407 200.669L407.402 202.931C407.715 205.703 405.952 205.193 405.14 204.288L403.76 202.061Z" stroke="#1C2140" stroke-width="1.15989" stroke-miterlimit="10"/>
<path fill-rule="evenodd" clip-rule="evenodd" d="M400.999 205.819C399.816 206.897 401.405 208.254 402.356 207.675L404.142 206.689C405.291 204.926 404.003 203.685 402.588 204.601L400.999 205.819Z" stroke="#1C2140" stroke-width="1.15989" stroke-miterlimit="10"/>
<path fill-rule="evenodd" clip-rule="evenodd" d="M397.96 202.06C396.835 198.51 400.999 200.911 401.811 201.48C402.414 202.292 401.707 204.623 397.96 202.06Z" stroke="#1C2140" stroke-width="1.15989" stroke-miterlimit="10"/>
<path fill-rule="evenodd" clip-rule="evenodd" d="M381.397 211.246C377.894 214.123 378.184 211.652 377.581 209.298C376.085 206.526 376.792 202.072 378.347 201.294C381.919 200.077 383.937 194.567 389.076 197.629L394.55 202.918C398.065 205.922 395.223 200.413 397.995 203.081C402.901 206.688 397.462 205.748 400.094 208.544C399.967 210.91 398.041 210.434 396.719 212.743C394.863 214.842 394.921 210.481 393.645 212.406C391.616 213.114 391.477 210.724 388.809 211.304C384.888 209.762 392.277 208.358 388.936 207.964C386.257 208.37 383.891 210.168 381.397 211.246Z" stroke="#1C2140" stroke-width="1.15989" stroke-miterlimit="10"/>
<path d="M303 429.5C304 428 307 428.5 308 428C308.667 428.5 310.6 429.8 313 431C316 432.5 313 433.5 313 435C313 436.5 311 442 310 441.5C309 441 308 439.5 307 439C306 438.5 303 436.5 302 435C301 433.5 302 431 303 429.5Z" stroke="black"/>
</svg>
