<svg width="1920" height="175" viewBox="0 0 1920 175" fill="none" xmlns="http://www.w3.org/2000/svg">
<path d="M2282.89 104.029C2279.07 101.003 2279.89 97.9888 2282.15 94.4525C2283.47 92.3772 2284.76 89.8265 2284.81 87.4613C2285.05 73.9309 2284.99 60.3773 2284.85 46.8353C2284.83 44.6556 2284.46 42.0237 2283.22 40.4005C2263.55 14.5919 2238.15 -0.353003 2205.04 0.00641622C2190.16 0.15714 2176.96 6.31365 2163.66 12.1455C2161.61 13.0499 2158.32 13.131 2156.42 12.0991C2129.95 -2.21967 2103.5 -2.78778 2076.7 11.1948C2074.72 12.2383 2071.39 12.3542 2069.36 11.4151C2047.52 1.36294 2024.63 -1.91822 2001.58 4.4238C1982.32 9.72233 1964.17 10.6499 1945.08 3.93684C1933.51 -0.132714 1920.88 0.0643878 1907.43 2.30206C1919.18 13.6412 1933.07 17.7571 1948.01 20.8643C1943.72 25.1194 1941.87 29.6527 1945.35 34.5339C1949.88 40.8991 1956.01 40.0759 1962.15 37.015C1966.14 51.7048 1971.97 56.7947 1983.31 55.7976C1991.75 55.0671 1998.61 49.1541 1999.14 42.186C1988.88 45.3744 1982.43 42.9628 1979.07 34.6962C1975.51 25.9658 1978.24 16.2151 1985.77 12.4006C1996.69 6.87017 2008.43 5.618 2021.11 6.41799C2018.36 10.8122 2016.23 15.4151 2020.56 18.673C2023.05 20.5513 2027.57 21.3745 2030.59 20.5513C2036.64 18.9165 2036.08 13.3861 2034.64 7.0093C2045.18 11.0325 2054.51 14.6035 2064.02 18.2325C2055.21 27.4962 2047.4 35.7049 2039.61 43.902C2032.67 36.5049 2027.84 34.986 2021.56 38.3483C2028.45 42.7541 2029.22 47.3918 2023.88 51.8324C2019.26 55.6584 2014.71 59.5425 2009.69 63.786C2000.04 60.412 1991.73 63.3918 1985.58 74.5222C1976.18 91.554 1978.63 102.51 1989.37 110.766C1986.88 120.528 1990.05 125.142 2003.33 129.815C1998.2 137.397 1993.25 144.713 1988.24 152.122C1960.35 132.644 1951.98 104.389 1945.66 74.87C1955.36 74.4758 1959.52 72.1454 1961.3 66.3251C1962.95 60.9686 1960.79 54.2324 1956.3 51.3454C1949.1 46.7309 1943.19 49.6527 1937.87 55.2526C1935.6 51.8324 1933.63 48.7367 1931.53 45.7338C1911.5 17.0498 1885.17 -0.376191 1849.1 0.00641622C1834.43 0.15714 1821.28 5.98901 1808.35 12.1687C1805.25 13.6528 1803.01 13.6412 1799.9 11.9252C1774.15 -2.28923 1748.02 -2.67184 1721.87 10.789C1718.37 12.5861 1715.81 12.6209 1712.25 11.0557C1706.28 8.42378 1700.03 6.22089 1693.71 4.57452C1672.68 -0.932711 1651.86 1.44409 1631.45 7.64698C1621.76 10.6035 1612.7 10.1629 1603.11 7.48466C1593.49 4.78322 1583.59 2.83539 1573.68 1.51366C1566.87 0.609313 1559.84 1.35134 1552.91 1.35134C1552.86 2.01221 1552.82 2.67308 1552.77 3.34554C1563.68 13.7339 1577.62 17.7571 1592.57 21.0266C1587.59 25.2121 1586.3 29.7107 1589.57 34.4063C1594.02 40.7947 1600.13 40.273 1606.31 36.957C1610.97 51.9135 1615.74 56.3077 1626.38 55.8324C1635.17 55.4497 1642.08 50.1512 1643.59 42.5222C1643.01 42.5686 1642.45 42.557 1641.94 42.673C1632.28 44.9802 1626.2 42.2324 1623.22 34.2092C1619.72 24.8064 1623.01 15.5194 1631.52 11.647C1642.08 6.84698 1653.21 5.44408 1665.29 6.48756C1662.41 11.0904 1660.45 15.96 1665.32 19.0556C1668.03 20.7832 1672.81 21.073 1675.91 19.9484C1681.04 18.1049 1680.32 13.0962 1678.46 6.85857C1689.26 10.9513 1698.73 14.5455 1708.33 18.1861C1699.58 27.3571 1691.75 35.5541 1683.95 43.7396C1677.48 36.6788 1671.28 34.8005 1665.79 38.302C1672.89 42.9512 1673.27 48.0874 1667.22 52.5512C1662.85 55.7628 1658.87 59.5077 1654.02 63.612C1642.12 60.8178 1633.94 65.0033 1627.79 78.1048C1621.49 91.5192 1623.44 102.313 1633.58 110.221C1631.45 121.05 1634.3 125.27 1647.67 129.722C1642.42 137.502 1637.35 144.992 1632.22 152.597C1604.51 133.015 1596.66 104.4 1589.82 74.5801C1597.7 75.5077 1603.61 73.2468 1605.8 65.3164C1607.28 59.9831 1604.95 54.5802 1600.24 51.844C1593.24 47.7744 1587.75 50.8353 1582.65 56.215C1579.53 51.67 1576.75 47.2874 1573.64 43.1367C1554.46 17.4556 1529.95 1.54844 1496.95 0.910761C1481.33 0.609313 1467.55 6.47596 1453.71 12.5397C1451.6 13.4672 1448.27 13.873 1446.44 12.8528C1418.94 -2.66024 1391.44 -2.99647 1363.67 12.0296C1362.24 12.7948 1359.84 13.0383 1358.44 12.3774C1331.46 -0.37619 1303.85 -0.179091 1276.02 8.64407C1266.93 11.531 1258.4 11.3571 1249.4 8.80639C1240.89 6.38321 1232.24 3.97162 1223.49 2.95134C1214.93 1.96583 1206.16 2.74264 1197.49 2.74264C1208.24 14.5223 1222.12 18.6498 1236.63 21.7107C1231.98 27.8904 1231.32 31.844 1234.49 35.7512C1239.23 41.5831 1245.1 41.015 1251.1 37.8382C1254.87 51.9019 1260.12 57.0381 1270.3 56.8526C1279.37 56.6903 1286.49 51.3454 1288.41 43.2411C1288.05 43.2179 1287.61 43.044 1287.34 43.1831C1279.21 47.5077 1270.63 43.0556 1267.74 34.8121C1264.36 25.0846 1268.02 15.9368 1276.97 12.1455C1287.45 7.70495 1298.38 6.46437 1310.18 7.33393C1307.22 11.6006 1305.14 16.2499 1309.51 19.4846C1312.11 21.4093 1316.9 22.1745 1320.01 21.2006C1325.4 19.5194 1325.34 14.4643 1323.07 7.83248C1333.64 11.7745 1342.78 15.1832 1352.17 18.6846C1343.5 27.8324 1335.86 35.9136 1328.22 43.9831C1322.74 37.0382 1315.53 34.5339 1310.2 38.3136C1318.01 43.4382 1317.73 48.4005 1309.98 53.5483C1305.97 56.215 1302.72 60.041 1298.7 63.7512C1287.33 60.5976 1278.98 64.6323 1272.62 77.1308C1265.77 90.6381 1267.59 101.908 1277.98 110.325C1275.82 120.806 1277.97 124.041 1291.8 130.105C1286.67 137.676 1281.68 145.084 1276.66 152.516C1250.96 134.325 1241.54 109.502 1234.88 75.5772C1242.18 76.3193 1248.03 74.2903 1250.38 66.6729C1251.96 61.5599 1249.61 55.0903 1245.28 52.2613C1238.12 47.5773 1232.22 50.4643 1226.83 56.1106C1224.63 52.8179 1222.78 49.8961 1220.78 47.0556C1208.95 30.1281 1194.62 16.0643 1175.27 7.91364C1149.09 -3.11242 1123.63 -0.67764 1098.81 12.2962C1095.86 13.8383 1093.49 14.0586 1090.29 12.2615C1063.58 -2.7414 1036.62 -2.753 1009.74 11.8557C1006.88 13.3977 1004.82 13.618 1001.83 12.2151C984.484 4.14554 966.246 0.470183 947.185 3.19481C936.89 4.66727 926.652 6.85857 916.623 9.56001C909.794 11.4035 903.382 11.3571 896.716 9.49045C889.655 7.51944 882.606 5.46727 875.429 3.97162C864.287 1.64119 853.029 1.45569 840.461 3.0325C852.391 14.4875 866.304 18.5571 880.762 21.7339C876.275 27.7976 875.812 32.3078 879 36.1802C882.571 40.5049 887.823 41.0498 895.359 37.873C899.406 52.1106 904.171 56.8874 914.258 56.8526C923.278 56.8179 930.606 51.4961 932.832 42.9744C931.904 43.2411 931.232 43.4498 930.547 43.6237C921.666 45.9889 915.603 43.3802 912.472 35.8672C908.82 27.0672 911.313 17.3165 918.722 13.4325C929.748 7.64698 941.643 6.46437 954.443 7.34553C951.44 11.7513 949.376 16.389 953.875 19.5658C956.518 21.4324 961.284 22.1049 964.368 21.0962C969.631 19.3803 969.701 14.3716 967.22 7.75132C978.223 11.902 987.591 15.4383 997.191 19.0556C988.739 28.0063 981.237 35.9599 973.747 43.8904C967.521 36.5049 960.426 34.8121 955.661 38.2788C962.698 43.0904 963.023 48.0874 956.924 52.5744C952.576 55.7976 948.635 59.5773 943.869 63.6468C932.426 60.7483 924.437 64.6091 918.119 77.0845C911.278 90.5917 913.075 101.861 923.429 110.29C921.133 120.748 923.765 124.69 937.504 129.977C931.916 137.977 926.513 145.699 921.087 153.444C893.377 133.71 885.539 105.189 878.896 75.8555C888.936 75.2526 893.191 72.7251 894.722 66.6497C896.09 61.1889 894.223 55.6353 889.493 53.015C887.243 51.7628 884.194 50.6382 881.887 51.1483C878.177 51.9831 874.78 54.2208 870.78 56.0874C864.055 45.3048 856.264 34.9165 846.351 26.36C828.704 9.25857 807.128 -0.283438 780.577 0.00641622C765.702 0.15714 752.496 6.31365 739.197 12.1455C737.145 13.0499 733.876 13.131 731.963 12.0991C705.493 -2.21967 679.035 -2.78778 652.253 11.1948C650.259 12.2383 646.943 12.3542 644.914 11.4151C623.058 1.36294 600.172 -1.91822 577.122 4.4238C557.865 9.72233 539.72 10.6499 520.624 3.93684C509.053 -0.132714 496.415 0.0643878 482.978 2.30206C494.734 13.6412 508.624 17.7571 523.546 20.8643C519.256 25.1194 517.412 29.6527 520.902 34.5339C525.436 40.8991 531.546 40.0759 537.691 37.015C541.691 51.7048 547.522 56.7947 558.862 55.7976C567.302 55.0671 574.166 49.1541 574.688 42.186C564.415 45.3744 557.969 42.9628 554.607 34.6962C551.059 25.9658 553.783 16.2151 561.308 12.4006C572.241 6.87017 583.975 5.618 596.647 6.41799C593.899 10.8122 591.777 15.4151 596.102 18.673C598.595 20.5513 603.105 21.3745 606.143 20.5513C612.183 18.9165 611.615 13.3861 610.177 7.0093C620.728 11.0325 630.05 14.6035 639.569 18.2325C630.757 27.4962 622.954 35.7049 615.151 43.902C608.218 36.5049 603.395 34.986 597.111 38.3483C603.998 42.7541 604.775 47.3918 599.43 51.8324C594.815 55.6584 590.259 59.5425 585.238 63.786C575.58 60.412 567.267 63.3918 561.122 74.5222C551.72 91.554 554.166 102.51 564.914 110.766C562.421 120.528 565.586 125.142 578.873 129.815C573.737 137.397 568.798 144.713 563.778 152.122C535.905 132.644 527.534 104.389 521.215 74.87C530.896 74.4758 535.059 72.1454 536.856 66.3251C538.491 60.9686 536.346 54.2324 531.847 51.3454C524.647 46.7309 518.734 49.6527 513.412 55.2526C511.14 51.8324 509.169 48.7367 507.07 45.7338C487.036 17.0498 460.717 -0.376191 424.647 0.00641622C409.969 0.15714 396.833 5.98901 383.906 12.1687C380.787 13.6528 378.549 13.6412 375.453 11.9252C349.691 -2.28923 323.57 -2.67184 297.413 10.789C293.912 12.5861 291.349 12.6209 287.802 11.0557C281.819 8.42378 275.581 6.22089 269.251 4.57452C248.231 -0.932711 227.396 1.44409 207.002 7.64698C197.297 10.6035 188.254 10.1629 178.666 7.48466C169.042 4.78322 159.129 2.83539 149.228 1.51366C142.411 0.609313 135.385 1.35134 128.463 1.35134C128.405 2.01221 128.358 2.67308 128.312 3.34554C139.222 13.7339 153.158 17.7571 168.126 21.0266C163.129 25.2121 161.854 29.7107 165.124 34.4063C169.564 40.7947 175.686 40.273 181.854 36.957C186.526 51.9135 191.28 56.3077 201.935 55.8324C210.723 55.4497 217.634 50.1512 219.129 42.5222C218.549 42.5686 218.005 42.557 217.483 42.673C207.836 44.9802 201.738 42.2324 198.758 34.2092C195.268 24.8064 198.55 15.5194 207.071 11.647C217.634 6.84698 228.764 5.44408 240.833 6.48756C237.947 11.0904 235.999 15.96 240.857 19.0556C243.57 20.7832 248.346 21.073 251.465 19.9484C256.59 18.1049 255.86 13.0962 254.016 6.85857C264.799 10.9513 274.283 14.5455 283.871 18.1861C275.117 27.3571 267.303 35.5541 259.489 43.7396C253.031 36.6788 246.828 34.8005 241.344 38.302C248.428 42.9512 248.822 48.0874 242.77 52.5512C238.399 55.7628 234.422 59.5077 229.576 63.612C217.668 60.8178 209.494 65.0033 203.338 78.1048C197.031 91.5192 198.979 102.313 209.135 110.221C207.002 121.05 209.842 125.27 223.21 129.722C217.958 137.502 212.903 144.992 207.767 152.597C180.045 133.015 172.208 104.4 165.367 74.5801C173.239 75.5077 179.153 73.2468 181.355 65.3164C182.828 59.9831 180.497 54.5802 175.79 51.844C168.776 47.7744 163.303 50.8353 158.202 56.215C155.083 51.67 152.289 47.2874 149.193 43.1367C130.016 17.4556 105.506 1.54844 72.4861 0.910761C56.8688 0.609313 43.1065 6.47596 29.2631 12.5397C27.153 13.4672 23.8138 13.873 21.9935 12.8528C-5.50787 -2.66024 -33.0092 -2.99647 -60.7889 12.0296C-62.215 12.7948 -64.6033 13.0383 -66.0062 12.3774C-92.9859 -0.37619 -120.603 -0.179091 -148.429 8.64407C-157.531 11.531 -166.064 11.3571 -175.049 8.80639C-183.571 6.38321 -192.22 3.97162 -200.962 2.95134C-209.53 1.96583 -218.296 2.74264 -226.968 2.74264C-216.209 14.5223 -202.342 18.6498 -187.826 21.7107C-192.475 27.8904 -193.136 31.844 -189.96 35.7512C-185.217 41.5831 -179.362 41.015 -173.357 37.8382C-169.589 51.9019 -164.336 57.0381 -154.145 56.8526C-145.079 56.6903 -137.96 51.3454 -136.035 43.2411C-136.406 43.2179 -136.847 43.044 -137.113 43.1831C-145.241 47.5077 -153.832 43.0556 -156.707 34.8121C-160.105 25.0846 -156.441 15.9368 -147.478 12.1455C-136.997 7.70495 -126.064 6.46437 -114.273 7.33393C-117.229 11.6006 -119.305 16.2499 -114.945 19.4846C-112.348 21.4093 -107.56 22.1745 -104.453 21.2006C-99.0612 19.5194 -99.1076 14.4643 -101.38 7.83248C-90.8178 11.7745 -81.67 15.1832 -72.2903 18.6846C-80.9511 27.8324 -88.6033 35.9136 -96.2439 43.9831C-101.716 37.0382 -108.916 34.5339 -114.25 38.3136C-106.435 43.4382 -106.725 48.4005 -114.481 53.5483C-118.481 56.215 -121.728 60.041 -125.763 63.7512C-137.125 60.5976 -145.473 64.6323 -151.826 77.1308C-158.69 90.6381 -156.87 101.908 -146.47 110.325C-148.626 120.806 -146.493 124.041 -132.661 130.105C-137.774 137.676 -142.783 145.084 -147.803 152.516C-173.484 134.325 -182.91 109.502 -189.565 75.5772C-182.273 76.3193 -176.418 74.2903 -174.076 66.6729C-172.499 61.5599 -174.841 55.0903 -179.165 52.2613C-186.331 47.5773 -192.232 50.4643 -197.623 56.1106C-199.815 52.8179 -201.681 49.8961 -203.664 47.0556C-215.501 30.1281 -229.832 16.0643 -249.183 7.91364C-275.362 -3.11242 -300.835 -0.67764 -325.646 12.2962C-328.591 13.8383 -330.968 14.0586 -334.168 12.2615C-360.881 -2.7414 -387.837 -2.753 -414.713 11.8557C-417.565 13.3977 -419.628 13.618 -422.631 12.2151C-439.976 4.14554 -458.214 0.470183 -477.275 3.19481C-487.559 4.66727 -497.796 6.85857 -507.837 9.56001C-514.654 11.4035 -521.077 11.3571 -527.733 9.49045C-534.793 7.51944 -541.854 5.46727 -549.019 3.97162C-560.173 1.64119 -571.431 1.45569 -583.999 3.0325C-572.057 14.4875 -558.144 18.5571 -543.686 21.7339C-548.185 27.7976 -548.648 32.3078 -545.448 36.1802C-541.889 40.5049 -536.637 41.0498 -529.101 37.873C-525.054 52.1106 -520.289 56.8874 -510.191 56.8526C-501.182 56.8179 -493.843 51.4961 -491.617 42.9744C-492.544 43.2411 -493.217 43.4498 -493.901 43.6237C-502.782 45.9889 -508.857 43.3802 -511.976 35.8672C-515.64 27.0672 -513.135 17.3165 -505.727 13.4325C-494.712 7.64698 -482.817 6.46437 -470.017 7.34553C-473.02 11.7513 -475.083 16.389 -470.573 19.5658C-467.941 21.4324 -463.176 22.1049 -460.081 21.0962C-454.817 19.3803 -454.747 14.3716 -457.228 7.75132C-446.225 11.902 -436.869 15.4383 -427.269 19.0556C-435.721 28.0063 -443.223 35.9599 -450.701 43.8904C-456.927 36.5049 -464.034 34.8121 -468.799 38.2788C-461.75 43.0904 -461.437 48.0874 -467.524 52.5744C-471.883 55.7976 -475.825 59.5773 -480.591 63.6468C-492.022 60.7483 -500.022 64.6091 -506.341 77.0845C-513.182 90.5917 -511.373 101.861 -501.02 110.29C-503.315 120.748 -500.695 124.69 -486.944 129.977C-492.544 137.977 -497.947 145.699 -503.362 153.444C-531.083 133.71 -538.909 105.189 -545.553 75.8555C-535.512 75.2526 -531.257 72.7251 -529.738 66.6497C-528.359 61.1889 -530.237 55.6353 -534.956 53.015C-537.205 51.7628 -540.254 50.6382 -542.573 51.1483C-546.272 51.9831 -549.669 54.2208 -553.669 56.0874C-562.608 41.7686 -573.414 28.1455 -588.602 18.5571C-587.802 26.7426 -578.689 28.7484 -575.663 35.8092C-578.19 35.8092 -580.44 35.8556 -582.689 35.7976C-587.176 35.6701 -589.367 37.2817 -588.95 42.2904C-588.498 47.473 -588.845 52.7251 -588.845 57.9541C-588.845 67.2526 -588.834 67.241 -579.767 70.07C-579.512 70.1512 -579.373 70.6265 -578.967 71.2294C-589.286 78.3134 -590.051 87.9714 -585.924 98.8119C-585.158 100.795 -584.208 102.708 -583.535 104.725C-580.034 115.206 -578.851 125.965 -585.298 135.45C-589.843 142.139 -588.66 148.678 -588.556 156.678C-581.738 151.983 -575.767 147.867 -569.541 143.577C-566.364 154.928 -561.564 164.586 -548.15 166.847C-553.008 154.081 -552.718 152.249 -544.231 139.357C-533.831 145.815 -523.431 152.284 -512.509 159.09C-525.054 166.626 -538.492 168.261 -552.103 168.667C-553.785 172.933 -552.185 174.174 -548.312 173.989C-535.257 173.386 -522.504 171.31 -511.095 164.551C-507.246 162.267 -504.324 162.336 -500.498 164.273C-480.185 174.557 -458.967 176.771 -436.904 171.067C-413.53 165.015 -397.008 149.907 -383.501 130.8C-380.533 126.615 -377.785 122.267 -374.91 117.942C-367.652 124.574 -362.574 125.873 -357.055 122.418C-352.127 119.334 -350.005 114.696 -351.316 108.98C-353.229 100.551 -359.675 98.8815 -367.281 99.3569C-360.614 70.2439 -353.043 42.1049 -326.655 22.8469C-319.339 30.3484 -312.081 37.7686 -304.359 45.6875C-317.368 49.8614 -320.429 54.7309 -318.075 65.7222C-328.429 74.128 -330.087 85.1308 -323.095 98.9511C-316.278 112.424 -308.417 116.157 -298.933 113.606C-293.217 117.409 -289.182 119.716 -285.6 122.592C-282.771 124.876 -279.061 127.565 -278.458 130.615C-277.936 133.189 -281.333 136.539 -283.362 140.226C-280.73 140.052 -277.403 140.447 -274.539 139.484C-271.409 138.441 -268.707 136.134 -265.959 134.476C-261.438 141.281 -256.858 148.145 -251.733 155.855C-260.545 159.078 -269.264 162.278 -278.829 165.791C-277.785 159.6 -277.971 154.719 -282.956 153.061C-285.982 152.064 -291.513 152.226 -292.881 154.105C-295.153 157.2 -294.968 162.093 -295.977 166.974C-306.075 167.496 -317.681 166.36 -328.464 160.806C-334.411 157.745 -337.055 151.786 -336.127 144.644C-335.13 137.05 -331.327 131.797 -324.997 130.742C-321.6 130.163 -317.959 131.055 -314.458 131.276C-316.371 123.171 -323.49 116.957 -332.417 117.502C-337.043 117.78 -342.481 119.728 -345.774 122.823C-349.205 126.047 -350.492 131.565 -352.788 136.203C-357.356 133.548 -362.539 132.644 -367.281 136.852C-372.811 141.757 -370.342 147.229 -367.35 152.678C-382.133 155.658 -395.768 160.018 -407.223 171.658C-404.394 172.122 -402.91 172.481 -401.402 172.597C-387.397 173.687 -373.507 172.562 -360.208 168.122C-347.687 163.936 -335.745 163.473 -322.91 167.391C-296.974 175.31 -271.13 174.661 -245.948 163.391C-244.278 162.638 -241.484 163.16 -239.699 164.064C-213.136 177.362 -186.133 177.664 -159.293 165.803C-152.87 162.974 -148.348 162.36 -141.983 165.432C-104.545 183.461 -61.3917 172.841 -36.2556 141.734C-30.0875 134.105 -24.5687 125.977 -18.7716 118.093C-12.1513 124.493 -7.33972 125.838 -1.51947 122.51C3.3385 119.728 5.37909 115.31 4.61389 109.792C3.67474 103.09 -0.139771 100.551 -11.4441 98.8235C-4.89337 70.3946 2.52692 42.5107 28.5674 23.3339C35.7558 30.7889 42.7007 37.9889 50.0515 45.6063C36.95 50.2787 33.808 55.3338 36.5558 65.5946C26.608 73.8381 24.6022 84.354 30.5152 97.2699C37.0079 111.45 44.7761 115.519 58.9789 112.992C62.6427 116.47 65.8427 119.403 68.9151 122.452C71.5354 125.05 75.4774 127.484 76.1035 130.557C76.6368 133.131 73.2513 136.516 71.5238 139.681C77.9586 142.394 83.4542 138.858 88.3122 134.012C93.1702 141.328 97.831 148.319 103.13 156.284C94.3759 159.391 85.7151 162.476 75.8253 165.989C77.7267 159.786 77.9586 154.997 73.1702 153.27C70.0514 152.157 65.2629 152.447 62.5499 154.174C57.6572 157.293 59.6398 162.197 62.7355 166.835C50.2717 167.554 38.9094 166.464 28.2428 161.305C20.1501 157.397 16.9269 148.4 20.2081 139.612C23.2109 131.554 30.179 127.032 39.1296 130.545C39.7209 130.777 40.4515 130.65 41.2747 130.696C38.1558 121.954 30.979 116.899 22.0979 117.258C10.1907 117.745 5.72693 125.803 3.89502 136.168C-3.69916 133.107 -8.8006 133.513 -12.2789 137.583C-16.7658 142.835 -14.9803 147.763 -10.5745 152.481C-25.4614 155.449 -39.1657 159.565 -50.9106 171.055C-48.2092 171.438 -46.9222 171.704 -45.6353 171.786C-31.2354 172.713 -16.9745 171.681 -3.30499 166.904C8.64862 162.707 20.0689 162.673 32.2891 166.441C57.6108 174.244 82.8977 173.884 107.674 163.287C109.657 162.441 112.857 163.067 114.967 164.087C143.86 178.012 172.613 177.954 201.158 163.357C204.289 161.757 206.468 161.861 209.622 162.881C220.938 166.568 232.254 171.786 243.871 172.725C278.051 175.519 304.938 161.235 324.891 133.548C328.798 128.122 332.509 122.545 336.358 116.98C342.654 123.31 347.987 124.794 353.494 121.78C358.41 119.09 360.787 114.754 359.871 109.258C359.465 106.742 358.306 103.496 356.404 102.267C352.764 99.9134 348.346 98.7656 344.08 97.0496C351.28 60.8758 365.714 33.4208 383.732 23.102C391.106 30.0585 398.63 37.1541 406.816 44.8759C392.219 50.8816 389.633 54.986 392.079 65.757C381.68 74.0932 380.056 85.5366 387.291 99.5308C393.981 112.481 402.398 116.354 413.9 112.992C419.001 117.108 423.256 120.818 427.79 124.134C432.462 127.542 433.83 132.574 430.433 135.855C429.192 137.038 427.592 137.85 425.633 139.183C433.795 142.244 439.302 138.847 443.963 133.942C448.636 141.107 453.111 147.948 458.131 155.647C449.575 158.649 441.424 161.513 432.532 164.62C433.123 158.418 432.879 153.444 427.778 151.994C424.74 151.148 419.453 151.623 417.946 153.606C415.766 156.493 416.079 161.27 415.198 165.907C404.972 166.626 393.378 165.513 382.607 159.925C376.497 156.76 373.807 150.418 375.036 143.194C376.335 135.623 380.427 130.476 386.665 129.722C389.923 129.328 393.343 130.267 396.659 130.592C394.758 122.522 388.103 116.667 379.453 116.586C375.581 116.551 370.514 117.038 368.068 119.415C363.778 123.623 361.077 129.467 357.587 134.8C351.848 132.203 346.978 132.481 343.326 136.4C338.607 141.479 340.694 146.58 343.79 151.763C329.077 154.719 315.43 159.218 303.57 170.649C306.538 171.218 307.975 171.635 309.436 171.751C326.051 173.073 342.143 170.533 357.911 165.362C365.772 162.789 373.529 162.348 381.714 164.922C409.424 173.664 437.053 174.881 464.323 162.777C465.714 162.162 468.079 162.696 469.575 163.484C495.894 177.339 523.117 177.942 549.957 166.638C558.838 162.893 565.204 162.777 573.737 166.348C608.635 180.991 646.085 172.447 671.499 144.331C679.082 135.96 685.47 126.499 692.392 117.56C699.36 123.589 704.589 124.771 710.084 121.363C714.525 118.615 716.867 112.98 715.429 107.728C713.238 99.6235 707 97.9076 699.603 98.4873C705.597 63.4381 719.858 35.9947 739.047 23.0904C746.502 30.2672 754.061 37.5252 762.258 45.4208C748.45 49.9657 745.192 55.0439 747.893 65.4207C737.551 74.6497 735.858 85.27 742.571 98.7076C749.25 112.052 756.751 115.693 770.316 112.945C774.107 116.505 776.994 120.261 780.774 122.545C790.003 128.134 790.525 133.177 781.47 139.113C789.18 142.476 794.815 139.055 799.626 133.989C804.38 141.2 808.878 148.029 813.933 155.705C804.948 158.789 796.542 161.676 787 164.957C788.867 158.835 788.983 154.058 784.183 152.377C781.064 151.276 776.31 151.589 773.586 153.316C768.542 156.539 770.861 161.478 773.551 165.815C761.25 166.557 749.783 165.606 739.07 160.307C731.197 156.412 728.16 147.403 731.441 138.418C734.49 130.093 740.38 127.322 749.991 129.652C750.699 129.826 751.441 129.803 752.287 129.884C749.539 121.583 743.116 116.69 734.548 116.435C721.713 116.052 716.937 124.47 714.838 135.415C707.348 132.087 702.142 132.621 698.571 136.922C694.224 142.174 696.183 146.893 700.264 151.322C677.11 157.397 667.801 161.745 660.369 170.29C677.853 172.284 694.2 170.673 710.166 165.362C719.928 162.116 729.389 161.49 739.58 164.667C766.154 172.957 792.728 173.629 818.907 162.383C820.554 161.687 823.371 162.36 825.064 163.368C833.168 168.18 841.771 171.067 850.988 172.562C851.533 172.655 852.09 172.748 852.646 172.818C853.133 172.887 853.632 172.957 854.13 173.015C856.09 173.258 858.096 173.444 860.055 173.583C866.328 174.035 872.217 174.035 874.988 174H875.023C875.638 173.989 876.09 173.977 876.356 173.977C876.542 173.965 876.646 173.965 876.646 173.965C876.646 173.965 876.646 173.965 876.658 173.965C889.539 173.328 902.095 171.218 913.353 164.551C917.214 162.267 920.136 162.336 923.962 164.273C944.264 174.557 965.481 176.771 987.556 171.067C1010.93 165.015 1027.45 149.907 1040.96 130.8C1043.92 126.615 1046.66 122.267 1049.55 117.942C1056.81 124.574 1061.87 125.873 1067.39 122.418C1072.33 119.334 1074.44 114.696 1073.14 108.98C1071.22 100.551 1064.77 98.8815 1057.18 99.3569C1063.85 70.2439 1071.41 42.1049 1097.79 22.8469C1105.12 30.3484 1112.37 37.7686 1120.1 45.6875C1107.08 49.8614 1104.03 54.7309 1106.38 65.7222C1096.03 74.128 1094.36 85.1308 1101.36 98.9511C1108.18 112.424 1116.03 116.157 1125.52 113.606C1131.23 117.409 1135.28 119.716 1138.85 122.592C1141.68 124.876 1145.39 127.565 1146 130.615C1146.51 133.189 1143.13 136.539 1141.09 140.226C1143.73 140.052 1147.05 140.447 1149.91 139.484C1153.04 138.441 1155.75 136.134 1158.49 134.476C1163.02 141.281 1167.59 148.145 1172.71 155.855C1163.9 159.078 1155.2 162.278 1145.62 165.791C1146.67 159.6 1146.48 154.719 1141.49 153.061C1138.47 152.064 1132.94 152.226 1131.57 154.105C1129.31 157.2 1129.48 162.093 1128.48 166.974C1118.37 167.496 1106.77 166.36 1095.98 160.806C1090.05 157.745 1087.39 151.786 1088.33 144.644C1089.32 137.05 1093.13 131.797 1099.45 130.742C1102.86 130.163 1106.5 131.055 1110 131.276C1108.09 123.171 1100.97 116.957 1092.04 117.502C1087.42 117.78 1081.97 119.728 1078.67 122.823C1075.24 126.047 1073.96 131.565 1071.67 136.203C1067.1 133.548 1061.91 132.644 1057.17 136.852C1051.64 141.757 1054.11 147.229 1057.1 152.678C1042.32 155.658 1028.68 160.018 1017.24 171.658C1020.07 172.122 1021.55 172.481 1023.05 172.597C1037.06 173.687 1050.95 172.562 1064.25 168.122C1076.77 163.936 1088.7 163.473 1101.54 167.391C1127.49 175.31 1153.33 174.661 1178.5 163.391C1180.18 162.638 1182.96 163.16 1184.75 164.064C1211.31 177.362 1238.31 177.664 1265.17 165.803C1271.59 162.974 1276.1 162.36 1282.48 165.432C1319.9 183.461 1363.07 172.841 1388.2 141.734C1394.36 134.105 1399.88 125.977 1405.69 118.093C1412.3 124.493 1417.11 125.838 1422.93 122.51C1427.8 119.728 1429.83 115.31 1429.06 109.792C1428.13 103.09 1424.31 100.551 1413 98.8235C1419.55 70.3946 1426.98 42.5107 1453.03 23.3339C1460.2 30.7889 1467.15 37.9889 1474.5 45.6063C1461.41 50.2787 1458.26 55.3338 1461 65.5946C1451.07 73.8381 1449.06 84.354 1454.98 97.2699C1461.47 111.45 1469.22 115.519 1483.43 112.992C1487.1 116.47 1490.29 119.403 1493.36 122.452C1495.98 125.05 1499.93 127.484 1500.56 130.557C1501.1 133.131 1497.7 136.516 1495.97 139.681C1502.42 142.394 1507.91 138.858 1512.76 134.012C1517.63 141.328 1522.28 148.319 1527.58 156.284C1518.84 159.391 1510.16 162.476 1500.27 165.989C1502.18 159.786 1502.42 154.997 1497.62 153.27C1494.5 152.157 1489.72 152.447 1487 154.174C1482.12 157.293 1484.09 162.197 1487.18 166.835C1474.73 167.554 1463.37 166.464 1452.69 161.305C1444.61 157.397 1441.39 148.4 1444.66 139.612C1447.66 131.554 1454.63 127.032 1463.58 130.545C1464.17 130.777 1464.9 130.65 1465.73 130.696C1462.6 121.954 1455.43 116.899 1446.55 117.258C1434.64 117.745 1430.19 125.803 1428.34 136.168C1420.75 133.107 1415.65 133.513 1412.17 137.583C1407.69 142.835 1409.48 147.763 1413.87 152.481C1399 155.449 1385.29 159.565 1373.55 171.055C1376.25 171.438 1377.53 171.704 1378.81 171.786C1393.22 172.713 1407.49 171.681 1421.14 166.904C1433.1 162.707 1444.52 162.673 1456.75 166.441C1482.06 174.244 1507.35 173.884 1532.12 163.287C1534.12 162.441 1537.31 163.067 1539.43 164.087C1568.31 178.012 1597.07 177.954 1625.62 163.357C1628.74 161.757 1630.92 161.861 1634.08 162.881C1645.4 166.568 1656.7 171.786 1668.32 172.725C1702.5 175.519 1729.4 161.235 1749.34 133.548C1753.25 128.122 1756.97 122.545 1760.81 116.98C1767.1 123.31 1772.44 124.794 1777.95 121.78C1782.87 119.09 1785.24 114.754 1784.33 109.258C1783.91 106.742 1782.75 103.496 1780.85 102.267C1777.21 99.9134 1772.79 98.7656 1768.54 97.0496C1775.73 60.8758 1790.16 33.4208 1808.19 23.102C1815.55 30.0585 1823.08 37.1541 1831.26 44.8759C1816.67 50.8816 1814.09 54.986 1816.53 65.757C1806.13 74.0932 1804.5 85.5366 1811.74 99.5308C1818.44 112.481 1826.85 116.354 1838.36 112.992C1843.46 117.108 1847.7 120.818 1852.25 124.134C1856.92 127.542 1858.28 132.574 1854.88 135.855C1853.65 137.038 1852.04 137.85 1850.09 139.183C1858.24 142.244 1863.76 138.847 1868.41 133.942C1873.1 141.107 1877.56 147.948 1882.59 155.647C1874.03 158.649 1865.88 161.513 1856.99 164.62C1857.57 158.418 1857.33 153.444 1852.23 151.994C1849.2 151.148 1843.91 151.623 1842.41 153.606C1840.21 156.493 1840.53 161.27 1839.65 165.907C1829.43 166.626 1817.84 165.513 1807.06 159.925C1800.95 156.76 1798.26 150.418 1799.5 143.194C1800.78 135.623 1804.88 130.476 1811.11 129.722C1814.38 129.328 1817.8 130.267 1821.12 130.592C1819.21 122.522 1812.56 116.667 1803.9 116.586C1800.03 116.551 1794.96 117.038 1792.53 119.415C1788.23 123.623 1785.52 129.467 1782.04 134.8C1776.3 132.203 1771.44 132.481 1767.77 136.4C1763.06 141.479 1765.14 146.58 1768.24 151.763C1753.54 154.719 1739.89 159.218 1728.02 170.649C1731 171.218 1732.44 171.635 1733.9 171.751C1750.5 173.073 1766.6 170.533 1782.37 165.362C1790.23 162.789 1797.99 162.348 1806.16 164.922C1833.87 173.664 1861.5 174.881 1888.77 162.777C1890.17 162.162 1892.53 162.696 1894.02 163.484C1920.34 177.339 1947.58 177.942 1974.42 166.638C1983.3 162.893 1989.66 162.777 1998.2 166.348C2033.1 180.991 2070.54 172.447 2095.96 144.331C2103.53 135.96 2109.92 126.499 2116.85 117.56C2123.82 123.589 2129.05 124.771 2134.54 121.363C2138.97 118.615 2141.32 112.98 2139.89 107.728C2137.69 99.6235 2131.46 97.9076 2124.06 98.4873C2130.05 63.4381 2144.32 35.9947 2163.5 23.0904C2170.95 30.2672 2178.51 37.5252 2186.72 45.4208C2172.9 49.9657 2169.64 55.0439 2172.35 65.4207C2162.01 74.6497 2160.32 85.27 2167.03 98.7076C2173.7 112.052 2181.21 115.693 2194.76 112.945C2198.56 116.505 2201.45 120.261 2205.23 122.545C2214.46 128.134 2214.97 133.177 2205.93 139.113C2213.63 142.476 2219.26 139.055 2224.07 133.989C2228.83 141.2 2233.33 148.029 2238.39 155.705C2229.41 158.789 2220.99 161.676 2211.45 164.957C2213.32 158.835 2213.43 154.058 2208.63 152.377C2205.51 151.276 2200.76 151.589 2198.05 153.316C2193 156.539 2195.31 161.478 2198 165.815C2185.71 166.557 2174.23 165.606 2163.53 160.307C2155.65 156.412 2152.61 147.403 2155.9 138.418C2158.94 130.093 2164.84 127.322 2174.45 129.652C2175.15 129.826 2175.89 129.803 2176.74 129.884C2174 121.583 2167.58 116.69 2159 116.435C2146.16 116.052 2141.4 124.47 2139.3 135.415C2131.8 132.087 2126.59 132.621 2123.03 136.922C2118.68 142.174 2120.63 146.893 2124.72 151.322C2101.56 157.397 2092.26 161.745 2084.82 170.29C2102.3 172.284 2118.66 170.673 2134.61 165.362C2144.39 162.116 2153.85 161.49 2164.04 164.667C2190.6 172.957 2217.19 173.629 2243.37 162.383C2245 161.687 2247.83 162.36 2249.52 163.368C2260.23 169.722 2271.81 172.725 2284.5 173.606V169.583C2273.38 166.278 2262.79 163.125 2250.69 159.531C2260.63 152.922 2268.74 147.542 2276.63 142.29C2278.96 147.276 2281.2 152.076 2283.45 156.887C2283.94 156.69 2284.43 156.481 2284.92 156.284C2284.92 140.052 2284.96 123.809 2284.83 107.577C2284.83 106.36 2283.88 104.818 2282.89 104.029ZM-564.961 104.597C-567.837 101.444 -566.538 98.1859 -563.605 95.5772C-560.927 93.1772 -558.179 90.8583 -555.501 88.5395C-551.988 94.4062 -552.138 100.308 -556.289 103.832C-558.921 106.07 -562.156 107.67 -564.961 104.597ZM-552.37 122.209C-556.312 121.293 -557.066 117.768 -555.64 114.348C-554.063 110.592 -551.895 107.079 -549.982 103.45C-549.321 103.531 -548.66 103.612 -548.011 103.693C-547.419 107.89 -546.353 112.087 -546.388 116.284C-546.422 119.6 -548.103 123.194 -552.37 122.209ZM-465.321 72.2729C-464.359 70.7541 -460.776 69.4787 -459.269 70.128C-457.808 70.7541 -456.196 74.6381 -456.869 75.9946C-459.594 81.5134 -463.176 86.6149 -466.434 91.8786C-467.246 91.5192 -468.057 91.1482 -468.881 90.7888C-469.46 84.3308 -468.915 77.9077 -465.321 72.2729ZM-485.692 76.5975C-483.315 73.8381 -477.402 74.3946 -475.292 78.6033C-472.904 83.3337 -472.057 88.9221 -471.095 94.2438C-470.736 96.238 -471.663 98.4757 -472.127 100.621C-472.104 100.621 -472.092 100.621 -472.08 100.632C-472.069 100.655 -472.046 100.667 -472.023 100.69C-468.962 95.1134 -465.24 90.1743 -458.759 88.3424C-456.591 87.7395 -454.167 87.4613 -451.953 87.7395C-448.208 88.2265 -445.066 90.1279 -445.715 94.4873C-446.295 98.4525 -449.414 99.6931 -453.112 99.1018C-459.362 98.0931 -465.402 97.9656 -470.747 102.163C-470.805 102.163 -471.559 101.224 -472.023 100.69C-472.08 100.806 -472.15 100.91 -472.208 101.026C-472.185 100.887 -472.15 100.76 -472.127 100.621C-473.043 100.226 -474.654 99.925 -474.712 99.438C-475.478 93.5598 -479.269 89.896 -483.512 86.383C-486.654 83.7859 -489.205 80.6671 -485.692 76.5975ZM-470.515 112.215C-472.556 113.722 -474.701 116.539 -476.625 116.4C-478.631 116.261 -481.808 113.339 -481.924 111.484C-482.028 109.687 -479.072 106.476 -477.089 106.139C-475.188 105.826 -472.799 108.4 -470.62 109.71C-470.585 110.545 -470.55 111.38 -470.515 112.215ZM-442.017 166.209C-436.602 157.791 -432.602 149.478 -441.043 140.736C-444.602 148.841 -446.098 149.536 -454.805 148.249C-458.596 147.681 -462.481 147.113 -466.283 147.299C-477.866 147.867 -482.028 153.803 -480.37 167.878C-486.956 164.099 -493.066 160.586 -498.851 157.27C-493.089 148.644 -487.675 140.551 -482.202 132.377C-469.02 137.525 -465.124 136.829 -459.86 127.971C-447.57 130.603 -438.052 124.505 -432.521 110.824C-426.944 97.0496 -429.657 87.5772 -440.336 81.0381C-440.336 75.6352 -439.686 70.6497 -440.475 65.9193C-441.994 56.8874 -438.399 53.1193 -429.518 55.3918C-430.886 49.2353 -433.298 47.5077 -444.962 45.1773C-437.634 37.9889 -431.049 31.3571 -424.185 25.0382C-423.373 24.2962 -420.556 24.7136 -419.373 25.5716C-403.13 37.4092 -398.515 54.0468 -406.086 72.6903C-406.817 74.4758 -407.617 76.2381 -408.22 78.07C-412 89.4439 -409.924 96.0525 -399.466 104.864C-411.246 107.937 -421.878 112.4 -420.521 127.009C-419.686 136.018 -413.321 139.565 -399.014 140.481C-405.936 151.693 -425.646 163.623 -442.017 166.209ZM-376.962 86.6033C-379.942 84.0526 -382.713 81.7685 -385.391 79.3801C-388.15 76.9337 -389.321 73.8845 -386.956 70.7309C-384.301 67.1946 -381.136 68.841 -378.388 70.8816C-373.971 74.1743 -373.553 79.2758 -376.962 86.6033ZM-369.658 71.3222C-370.318 71.4149 -370.968 71.5077 -371.629 71.6004C-373.507 68.099 -375.745 64.7135 -377.182 61.0381C-378.55 57.5135 -378.179 53.5251 -373.774 52.6787C-369.507 51.8556 -368 55.8208 -367.93 59.0207C-367.849 63.1019 -369.02 67.2178 -369.658 71.3222ZM-366.017 35.8092C-370.608 27.16 -377.901 18.9513 -368.069 7.72813C-382.898 10.302 -388.058 19.7281 -391.095 31.5194C-398.26 26.5687 -405.159 21.8035 -412.162 16.9687C-390.179 3.00931 -357.147 3.14844 -336.916 17.4325C-346.597 23.5426 -356.127 29.56 -366.017 35.8092ZM-194.504 103.403C-193.646 103.508 -192.788 103.612 -191.942 103.716C-191.745 108.319 -191.084 112.98 -191.641 117.49C-191.826 119.021 -195.061 120.192 -196.904 121.513C-198.017 119.392 -200.452 116.91 -199.988 115.206C-198.875 111.079 -196.417 107.31 -194.504 103.403ZM-208.093 95.7511C-206.655 94.4757 -204.986 93.4786 -203.571 92.2033C-202.342 91.0786 -201.31 89.7337 -199.803 88.0526C-196.557 95.4033 -197.102 100.829 -201.844 103.438C-203.849 104.539 -207.791 104.806 -209.322 103.566C-212.267 101.177 -210.632 98.0235 -208.093 95.7511ZM-274.562 105.884C-278.91 103.137 -282.562 100.841 -286.887 98.1163C-281.797 95.7859 -277.519 93.838 -272.023 91.3221C-272.997 96.8873 -273.727 101.096 -274.562 105.884ZM-289.252 84.9801C-289.252 83.0902 -286.342 80.0874 -284.243 79.5888C-280.881 78.7772 -278.017 81.3163 -278.458 84.8874C-278.736 87.183 -281.032 89.2236 -282.423 91.3685C-283.246 91.4381 -284.081 91.5076 -284.904 91.5656C-286.481 89.3743 -289.252 87.1714 -289.252 84.9801ZM-275.177 75.5656C-280.788 74.7077 -286.133 72.0874 -290.852 70.499C-291.93 74.1164 -292.823 79.0555 -294.945 83.3917C-296.162 85.8613 -299.153 88.0526 -301.832 89.0265C-303.64 89.6873 -307.351 88.7018 -308.324 87.2178C-309.495 85.4323 -309.356 82.0468 -308.487 79.8671C-307.64 77.7337 -304.823 76.47 -303.466 74.4294C-300.371 69.7801 -297.646 64.899 -294.435 59.5309C-289.577 63.6816 -282.84 64.3193 -275.443 63.0091C-269.635 61.9657 -266.087 64.4352 -265.867 68.5628C-265.635 72.8062 -269.472 76.4468 -275.177 75.5656ZM-247.409 152.145C-252.128 145.142 -256.858 138.128 -262.064 130.418C-249.217 129.815 -245.658 127.739 -243.629 121.409C-246.898 120.713 -251.42 121.073 -253.125 119.055C-255.014 116.818 -254.562 112.424 -254.725 108.945C-254.945 104.261 -254.783 99.554 -254.783 94.012C-245.067 87.7975 -242.354 78.7772 -247.212 65.4091C-252.452 50.9744 -261.994 44.6904 -276.093 46.3715C-282.643 37.4092 -288.023 36.6788 -299.339 43.1599C-306.771 35.3802 -314.203 27.5889 -322.365 19.0556C-315.791 15.16 -309.148 11.218 -301.438 6.63828C-301.936 8.9919 -302.168 10.0122 -302.365 11.0325C-304.394 21.6527 -297.426 29.0846 -285.356 28.9223C-282.098 28.8759 -278.84 28.1918 -275.594 27.7281C-266.632 26.4411 -265.797 26.8817 -262.771 34.7889C-255.93 29.4788 -255.838 23.7629 -262.609 9.5948C-245.728 13.2238 -232.07 21.56 -220.07 34.7657C-231.699 34.1628 -241.287 36.8759 -242.168 49.6874C-242.991 61.5715 -234.586 66.9396 -223.733 70.2671C-235.93 79.5772 -233.728 90.5569 -228.846 102.279C-220.742 121.734 -226.817 138.371 -247.409 152.145ZM-236.545 159.067C-228.823 153.826 -221.565 148.887 -213.89 143.681C-210.516 155.09 -205.612 164.91 -190.377 167.148C-200.87 156.041 -192.893 148.018 -188.939 139.125C-178.365 145.687 -168.116 152.064 -157.89 158.418C-173.252 171.426 -215.977 171.994 -236.545 159.067ZM-111.606 73.5367C-110.69 70.4294 -107.768 67.8207 -104.568 70.0932C-102.945 71.2526 -101.797 75.5424 -102.667 77.2932C-105.264 82.441 -108.963 87.0207 -112.232 91.8323C-113.252 91.3801 -114.261 90.9395 -115.281 90.4989C-114.099 84.8294 -113.229 79.0671 -111.606 73.5367ZM-131.258 76.7251C-128.684 73.7454 -122.922 74.3946 -120.476 78.87C-118.203 83.0323 -117.45 88.0989 -116.383 92.8409C-115.989 94.5917 -116.603 96.5743 -116.754 98.4641C-116.731 98.4409 -116.708 98.4293 -116.684 98.4062C-116.638 98.3598 -116.603 98.3134 -116.557 98.267C-116.557 98.2786 -116.557 98.2786 -116.557 98.2902C-112.905 95.1134 -109.554 91.496 -105.484 89.0381C-103.142 87.612 -99.5482 87.6004 -96.6381 87.9482C-93.0786 88.3656 -90.5511 90.7308 -91.2816 94.7656C-91.954 98.5105 -94.8062 99.6351 -98.2381 99.125C-104.626 98.1743 -110.864 97.8496 -116.974 102.789C-116.777 100.69 -116.661 99.4844 -116.557 98.2902C-116.603 98.325 -116.638 98.3714 -116.684 98.4062C-117.589 99.3917 -118.516 100.4 -119.931 101.966C-120.36 94.8583 -123.931 90.2439 -128.905 86.3714C-132.035 83.925 -134.864 80.9105 -131.258 76.7251ZM-115.966 110.255C-116 111.102 -116.035 111.948 -116.07 112.795C-118.238 114.116 -120.65 116.748 -122.516 116.412C-124.58 116.041 -126.157 112.945 -127.942 111.032C-126.006 109.27 -124.186 106.313 -122.099 106.116C-120.197 105.931 -118.018 108.76 -115.966 110.255ZM-84.4642 166.128C-83.2932 160.203 -81.5424 154.267 -81.1598 148.238C-80.9859 145.49 -83.4787 142.557 -84.87 139.473C-87.1772 142.684 -88.3714 145.884 -90.5975 146.997C-92.8932 148.157 -96.1975 147.345 -99.0728 147.287C-104.221 147.183 -109.519 146.174 -114.505 147.044C-123.363 148.574 -126.841 154.684 -125.16 163.612C-125.021 164.307 -125.137 165.049 -125.137 166.765C-131.676 163.055 -137.612 159.681 -143.49 156.354C-138.076 148.064 -132.939 140.238 -128.023 132.702C-123.931 133.676 -119.444 135.902 -115.293 135.38C-111.49 134.905 -108.058 131.461 -103.073 128.493C-92.3366 130.51 -82.6555 123.983 -77.4497 109.467C-72.7192 96.2612 -75.6526 86.8584 -85.6815 81.1424C-85.6815 75.5077 -85.1018 70.7077 -85.8554 66.1164C-86.4931 62.2207 -87.2236 58.3947 -83.6642 56.215C-81.3105 54.7773 -77.9019 55.0671 -74.528 54.5222C-76.6149 48.2498 -82.2033 46.2903 -90.6902 45.7338C-82.4584 37.386 -75.1541 29.9774 -68.0352 22.7658C-49.0323 34.0237 -42.5744 52.1222 -49.902 71.5077C-50.6556 73.4903 -51.5947 75.4149 -52.3135 77.4091C-56.4758 88.9453 -54.47 95.6699 -44.1512 104.516C-48.3483 106.29 -52.7194 107.589 -56.499 109.85C-62.8179 113.641 -65.8207 119.531 -64.8353 127.021C-64.0121 133.281 -59.3048 138.302 -52.8585 139.612C-49.728 140.25 -46.4469 140.134 -42.4585 140.412C-54.2961 154.081 -68.4874 162.684 -84.4642 166.128ZM-21.4266 86.3714C-24.1397 84.0294 -26.8759 81.6874 -29.5889 79.3337C-32.4295 76.8758 -33.5889 73.8149 -31.1774 70.6961C-28.4991 67.2294 -25.2875 68.8294 -22.5513 70.9511C-18.1455 74.3714 -17.8093 80.1801 -21.4266 86.3714ZM-14.2035 71.5193C-14.7252 71.554 -15.2469 71.5888 -15.7571 71.6352C-17.5658 68.5048 -19.931 65.5599 -20.9977 62.2091C-21.7745 59.7744 -21.1948 56.7019 -20.4528 54.1396C-20.2093 53.3048 -16.5107 52.3889 -16.1629 52.8526C-14.4354 55.1599 -12.3137 57.8497 -12.1745 60.5048C-11.9774 64.1338 -13.4499 67.8439 -14.2035 71.5193ZM-10.2151 35.7628C-19.0151 21.0151 -19.2817 18.7078 -13.1948 7.89045C-26.8643 10.1745 -32.302 19.4498 -35.3629 31.4382C-42.702 26.4179 -49.7512 21.6064 -56.8469 16.7484C-36.6846 2.87018 -0.870178 3.34554 18.2486 17.8151C8.83417 23.7629 -0.522339 29.6527 -10.2151 35.7628ZM161.089 102.255C161.819 102.371 162.538 102.476 163.257 102.592C163.698 107.241 164.729 111.96 164.266 116.516C164.08 118.337 160.579 119.821 158.573 121.455C157.425 119.102 154.909 116.4 155.408 114.476C156.497 110.197 159.106 106.302 161.089 102.255ZM147.164 94.9279C149.808 92.4931 152.613 90.2439 155.605 87.6815C159.095 94.267 158.642 100.006 154.353 103.276C151.721 105.27 148.729 106.418 146.179 103.519C143.582 100.574 144.428 97.4438 147.164 94.9279ZM80.0571 105.873C75.9876 103.345 72.3006 101.061 67.547 98.1163C72.8455 95.7859 77.147 93.896 82.26 91.6467C81.46 96.8177 80.7992 101.096 80.0571 105.873ZM65.3325 84.6091C65.5297 82.7076 68.8107 79.6932 70.6542 79.7511C72.5789 79.8091 75.7673 82.8468 75.9064 84.7714C76.0687 86.8815 73.3789 89.2004 71.9296 91.4265C70.9789 91.4149 70.0281 91.4033 69.0775 91.3917C67.7094 89.1192 65.1238 86.7192 65.3325 84.6091ZM81.8774 75.3801C77.0891 75.1135 72.347 73.3743 67.6861 71.9598C66.1789 71.4961 64.9847 70.0352 63.5818 68.9801C62.6891 73.2352 62.1093 77.1656 60.9615 80.9221C60.3702 82.8584 58.9905 84.6902 57.576 86.2091C54.1442 89.9076 48.7181 90.5801 46.3065 87.6352C42.9442 83.5192 44.8572 79.983 48.2427 77.1308C53.9007 72.3888 58.4108 67.0903 58.2369 57.5135C65.2862 64.7251 73.0311 63.9367 80.9151 62.8816C84.7759 62.3599 87.8832 63.8207 88.3238 68.2381C88.7876 72.8642 85.8079 75.612 81.8774 75.3801ZM107.593 152.574C102.712 145.49 97.7846 138.36 92.4281 130.603C105.599 129.502 108.892 127.6 110.805 121.629C107.489 120.818 102.967 121.015 101.228 118.905C99.3846 116.679 100.127 112.261 99.8832 108.783C99.5701 104.226 99.3846 99.6583 99.118 94.5569C109.993 86.7424 112.428 77.8033 106.793 64.0874C101.077 50.186 91.9412 44.4353 78.747 46.4527C71.1296 37.3396 66.2949 36.702 55.1876 43.1831C47.8717 35.4614 40.6021 27.7629 32.7529 19.473C39.3848 15.4962 46.2253 11.3919 54.0399 6.71944C53.8079 8.53973 53.7731 9.16581 53.6456 9.76871C51.4427 19.9368 56.347 26.9745 66.8398 27.7049C71.7789 28.0411 76.8108 27.044 81.7847 26.5687C89.0078 25.873 90.5499 26.9281 92.289 33.9426C99.6513 29.2701 99.6977 21.2006 91.9528 8.44697C109.715 12.2499 123.767 20.8411 136.115 34.8121C124.544 34.1049 114.886 36.4585 113.53 48.8295C112.127 61.6874 121.831 66.3019 132.706 69.757C121.518 78.87 120.521 86.5337 125.483 98.6032C134.909 121.49 129.854 138.197 107.593 152.574ZM117.958 158.661C125.738 153.444 133.518 148.226 141.309 142.986C148.138 160.064 152.138 164.261 164.208 165.919C154.851 155.368 162.005 147.113 166.596 138.336C177.309 144.992 187.895 151.577 198.573 158.209C179.732 171.844 134.04 172.006 117.958 158.661ZM244.613 72.7019C245.147 71.1714 248.799 70.7309 251.025 69.7917C251.825 72.0526 253.749 74.6265 253.228 76.5279C251.547 82.6844 247.465 87.3801 242.549 91.2062C241.796 90.9395 241.042 90.6612 240.289 90.3946C241.645 84.47 242.619 78.4062 244.613 72.7019ZM224.544 76.5395C226.967 73.8265 232.034 74.812 235.164 78.5801C238.99 83.1598 239.964 88.5627 239.094 94.3482C238.758 96.5511 238.213 98.7308 237.75 100.91C237.796 100.922 237.831 100.922 237.877 100.934C241.761 96.9337 245.158 92.1453 249.761 89.3047C252.636 87.5192 257.506 88.2265 261.239 88.9801C262.642 89.2699 264.323 92.9569 264.115 94.9047C263.952 96.4815 261.065 99.0438 259.5 98.9627C252.196 98.6033 244.973 97.7221 238.549 102.418C238.318 101.919 238.097 101.432 237.877 100.934C237.819 101.003 237.761 101.061 237.703 101.119C237.715 101.05 237.738 100.98 237.75 100.91C236.961 100.783 235.697 100.69 235.674 100.482C235.118 94.1395 231.199 90.0583 226.596 86.3018C223.407 83.6931 220.95 80.5743 224.544 76.5395ZM239.697 110.128C239.686 110.951 239.662 111.774 239.651 112.597C237.494 113.989 235.152 116.679 233.216 116.412C231.176 116.122 229.529 113.015 227.721 111.137C229.599 109.363 231.373 106.36 233.413 106.151C235.361 105.954 237.587 108.69 239.697 110.128ZM268.961 165.664C274.41 156.771 278.375 148.528 270.294 140.122C268.544 142.638 267.465 145.768 265.355 146.823C263.036 147.994 259.744 147.438 256.903 147.299C253.065 147.102 249.216 146.128 245.413 146.267C233.309 146.742 228.567 153.316 230.909 167.009C224.277 163.252 218.179 159.797 212.15 156.377C217.692 147.89 222.921 139.879 228.149 131.867C238.41 138.116 244.393 137.177 250.515 128.18C263.442 130.313 272.81 123.948 278.201 109.409C282.978 96.5279 280.138 87.4033 269.749 80.9569C269.749 75.554 269.483 70.441 269.842 65.3859C270.074 62.186 270.422 58.3483 272.289 56.1222C273.645 54.499 277.575 55.0439 280.428 54.615C279.813 49.5831 276.439 47.1135 266.99 45.7686C266.387 45.073 265.784 44.3773 265.181 43.6817C272.277 37.2469 279.28 30.6962 286.596 24.5165C287.604 23.6701 290.63 23.96 291.894 24.8759C307.79 36.4005 312.427 52.6903 305.251 70.9743C305.112 71.3338 304.984 71.7048 304.845 72.0642C298.561 87.496 299.558 92.5743 311.117 103.855C294.584 110.012 288.706 116.284 290.387 125.931C292.033 135.334 298.306 139.252 312.914 139.438C301.054 153.084 287.025 161.629 268.961 165.664ZM299.059 16.2498C311.419 9.21219 324.091 5.93104 338.027 7.17161C327.442 11.3107 322.538 19.8209 320.01 30.6034C312.996 25.8034 306.387 21.2701 299.059 16.2498ZM334.225 85.8265C331.141 83.183 328.509 81.0265 325.981 78.754C322.955 76.0062 321.332 72.6091 324.636 69.328C327.848 66.128 331.256 68.2613 333.645 70.8584C337.877 75.4961 336.845 80.6091 334.225 85.8265ZM341.564 70.5917C340.822 70.6845 340.08 70.7888 339.338 70.8816C337.39 66.8816 335.083 62.9975 333.599 58.8352C332.474 55.6584 333.622 52.0179 337.32 51.9599C339.21 51.9251 342.584 55.0555 342.769 56.9802C343.187 61.4439 342.062 66.0468 341.564 70.5917ZM372.764 17.3977C363.581 23.2064 354.398 29.0266 344.949 34.9976C342.897 31.0904 340.706 27.4614 339.048 23.6122C336.88 18.6267 337.552 13.6759 341.03 9.51364C342.109 8.22668 344.648 6.96292 346.085 7.34553C355.106 9.73393 363.987 12.5977 372.926 15.2991C372.868 15.9948 372.822 16.702 372.764 17.3977ZM516.601 102.51C517.378 102.545 518.154 102.58 518.931 102.603C519.256 107.032 520.16 111.531 519.65 115.867C519.441 117.629 516.16 119.032 514.271 120.609C513.134 118.313 510.653 115.693 511.128 113.815C512.125 109.838 514.676 106.255 516.601 102.51ZM502.352 95.6815C503.128 93.9656 505.528 93.038 507.07 91.6236C508.462 90.3482 509.679 88.8757 511.256 87.183C514.723 95.1134 513.76 100.632 508.276 103.16C506.456 103.995 503.812 103.021 501.552 102.87C501.76 100.447 501.401 97.7685 502.352 95.6815ZM420.891 84.8642C420.288 81.4091 423.059 78.87 426.549 79.5424C428.821 79.983 430.723 82.325 432.787 83.8091C432.787 84.6439 432.775 85.4786 432.775 86.3134C430.491 87.7163 428.126 90.3018 425.958 90.1395C424.068 90.012 421.262 86.9743 420.891 84.8642ZM435.685 105.85C431.569 103.31 427.743 100.968 423.256 98.1975C428.474 95.8091 432.903 93.7801 437.888 91.496C437.123 96.4931 436.462 100.829 435.685 105.85ZM436.404 75.5424C430.433 74.7656 424.671 72.3077 419.697 70.8352C417.923 75.1598 416.346 80.899 413.343 85.7569C410.7 90.0236 405.042 90.5221 402.248 88.0178C399.094 85.1888 399.5 81.0729 403.987 77.0961C409.482 72.2033 414.085 67.0091 413.923 57.8497C420.729 64.0758 427.917 64.3309 435.534 62.9048C439.743 62.1164 443.337 63.357 444.137 68.2845C444.763 72.1569 441.262 76.1801 436.404 75.5424ZM462.363 151.681C457.818 144.852 453.215 137.965 448.195 130.429C460.995 129.792 464.566 127.705 466.537 121.281C463.36 120.737 458.897 121.247 457.262 119.345C455.337 117.096 455.604 112.76 455.418 109.305C455.152 104.632 455.349 99.925 455.349 94.1627C465.969 86.2555 468.218 77.2816 461.992 63.1599C456.068 49.7106 447.036 44.215 434.561 46.4759C426.248 37.3281 421.285 36.6672 410.943 43.2295C403.384 35.3223 395.836 27.415 387.639 18.8354C394.526 14.7426 401.505 10.5919 409.494 5.84988C409.03 8.26147 408.821 9.33973 408.624 10.418C406.874 19.7745 412.439 27.0788 422.491 27.7049C427.419 28.0063 432.45 27.044 437.424 26.5339C444.52 25.815 446.247 26.9861 447.905 33.8614C454.943 29.6875 455.21 23.5426 448.659 8.80639C465.656 12.4817 479.163 20.7948 490.595 33.5252C475.395 35.044 469.772 38.8353 468.659 47.9715C467.546 57.1541 473.645 64.47 487.5 69.6062C478.757 75.3338 476.798 83.2989 479.082 92.4815C479.824 95.4612 481.111 98.3134 482.236 101.189C489.946 120.934 484.613 138.626 462.363 151.681ZM473.575 158.661C481.355 153.42 489.111 148.203 497.181 142.765C500.659 154.244 505.54 164.191 520.949 166.371C509.946 155.194 518.027 147.078 522.178 138.255C533.053 145.003 543.488 151.484 553.934 157.954C538.873 172.133 488.021 171.704 473.575 158.661ZM600.786 71.9482C601.691 70.5338 605.331 69.27 606.409 69.9657C607.974 70.9859 609.435 74.0584 609.053 75.8555C607.638 82.4526 603.256 87.2178 597.389 92.0757C596.09 84.2381 597.064 77.7337 600.786 71.9482ZM580.16 76.7482C583.638 73.27 587.372 75.0555 590.293 77.9656C594.908 82.5569 595.65 88.412 594.827 94.5685C594.595 96.2496 594.201 97.8844 593.876 99.5424C593.934 99.5076 593.992 99.4612 594.05 99.4148C597.354 96.1105 600.195 92.0873 604.067 89.8844C607.221 88.0873 611.812 87.8439 615.534 88.412C617.389 88.7018 618.722 92.354 620.299 94.4757C618.015 96.0525 615.638 99.067 613.458 98.9279C606.699 98.4989 600.148 97.8033 594.05 103.253V99.4264C593.992 99.496 593.934 99.554 593.865 99.6235C593.865 99.6003 593.876 99.5656 593.876 99.5424C593.598 99.7743 593.331 99.983 593.157 100.122C589.377 95.3453 585.841 90.5801 581.98 86.1047C579.441 83.183 576.612 80.2961 580.16 76.7482ZM595.43 110.012V112.435C593.285 113.884 591.012 116.632 589.053 116.423C587.036 116.203 585.32 113.108 583.464 111.276C585.308 109.432 587.001 106.371 589.041 106.128C590.989 105.896 593.285 108.597 595.43 110.012ZM624.809 165.676C632.253 152.041 632.357 146 625.644 139.531C623.928 141.792 622.653 145.049 620.369 146.07C617.841 147.206 614.398 146.418 611.36 146.232C608.09 146.023 604.833 145.107 601.586 145.247C589.006 145.745 584.114 152.134 586.259 166.047C579.801 162.394 573.899 159.055 568.299 155.89C573.667 147.565 578.641 139.855 583.627 132.122C595.499 137.884 600.45 137.061 606.061 128.238C619.731 130.197 629.296 123.496 634.235 108.528C638.525 95.5076 635.511 86.5221 626.038 81.4671C625.702 75.1946 625.644 69.5599 625.064 63.9831C624.287 56.586 628.299 53.4092 637.099 55.4034C634.572 48.2266 629.111 46.2904 621.482 44.5048C628.74 37.5483 635.928 30.5339 643.337 23.7513C643.951 23.1948 646.247 23.7977 647.314 24.5281C662.769 35.1715 668.056 52.4353 661.389 70.0352C661.111 70.7541 660.786 71.4613 660.485 72.1685C654.247 87.2757 655.313 92.5163 666.943 103.867C650.537 109.815 644.658 116.006 646.085 125.838C647.395 134.823 654.085 139.079 668.589 139.519C656.624 153.409 642.34 161.803 624.809 165.676ZM654.653 16.2151C667.267 9.42088 679.835 5.76872 693.412 6.75422C689.598 9.88465 685.111 12.5165 682.119 16.331C679.024 20.2614 677.4 25.3397 675.047 30.0933C668.647 25.7455 662.027 21.2353 654.653 16.2151ZM689.748 85.5714C686.827 83.0787 684.206 80.9221 681.679 78.6497C678.641 75.925 676.925 72.5975 680.369 69.3048C683.615 66.186 686.815 68.3541 689.377 70.8468C693.006 74.3946 693.018 79.3221 689.748 85.5714ZM697.064 70.7656C696.415 70.7541 695.754 70.7425 695.093 70.7309C693.157 67.0439 690.826 63.4961 689.4 59.6236C688.195 56.3657 688.797 52.7367 692.867 51.8092C696.89 50.9048 698.595 54.3251 698.653 57.3164C698.734 61.7918 697.655 66.2787 697.064 70.7656ZM728.415 17.4788C719.337 23.2179 710.258 28.9571 700.612 35.0672C698.49 30.8005 696.113 26.6846 694.363 22.3136C692.276 17.1194 694.05 12.4006 697.551 8.42379C698.351 7.49625 700.345 6.8122 701.482 7.13683C710.652 9.72233 719.742 12.5861 728.855 15.3687C728.705 16.0759 728.554 16.7716 728.415 17.4788ZM876.449 103.693C877.029 107.89 878.107 112.087 878.061 116.284C878.038 119.6 876.345 123.194 872.078 122.209C868.148 121.293 867.382 117.768 868.809 114.348C870.385 110.592 872.565 107.079 874.478 103.45C875.127 103.531 875.788 103.612 876.449 103.693ZM860.855 95.5772C863.533 93.1772 866.281 90.8583 868.959 88.5395C872.472 94.4062 872.31 100.308 868.159 103.832C865.527 106.07 862.304 107.67 859.499 104.597C856.623 101.444 857.922 98.1859 860.855 95.5772ZM776.496 85.0381C775.765 81.8265 778.42 78.9627 782.015 79.554C784.287 79.925 786.247 82.1395 790.061 84.6671C786.409 87.4381 784.183 90.4062 782.444 90.1395C780.16 89.7917 776.994 87.1946 776.496 85.0381ZM791.278 105.803C786.989 103.125 783.336 100.853 778.965 98.1279C784.09 95.8207 788.461 93.8612 793.713 91.5076C792.82 96.7366 792.102 100.957 791.278 105.803ZM790.757 75.5772C785.145 74.6961 779.8 72.0874 774.826 70.3946C774.015 73.5598 773.667 78.3714 771.534 82.2091C769.864 85.2004 766.247 87.4728 763 89.0728C761.702 89.7105 758.142 88.1917 757.307 86.7076C756.322 84.9221 756.89 82.07 757.342 79.7975C757.563 78.6613 758.884 77.5946 759.928 76.7714C765.574 72.2613 769.794 66.9743 769.447 57.815C776.449 63.5425 782.977 64.3425 790.212 63.0323C796.229 61.9541 799.58 64.2381 799.951 68.4352C800.31 72.5859 796.299 76.4468 790.757 75.5772ZM818.003 151.554C813.528 144.899 808.959 138.128 803.638 130.209C812.716 130.499 819.58 129.142 823.07 120.238C821.655 120.505 820.867 120.574 820.136 120.806C813.574 122.916 809.69 118.661 810.536 111.067C811.104 105.873 810.641 100.563 810.641 94.5569C821.412 86.0236 823.754 77.4787 818.212 64.3077C812.183 49.9541 803.731 44.6324 789.76 46.3947C783.452 37.5136 777.562 36.702 768.461 42.0585C759.789 34.4643 751.557 27.2527 742.479 19.2991C750.328 14.6846 757.307 10.5803 764.96 6.07017C762.56 21.2933 768.623 27.8092 783.151 26.9165C785.841 26.7426 788.507 26.2092 791.174 25.815C799.383 24.6092 800.89 25.444 803.812 32.8179C810.803 27.5078 810.664 19.2875 802.838 7.65857C820.936 11.2412 834.942 20.1455 847.464 34.1513C835.777 33.1657 826.571 35.3918 824.531 47.7628C823.29 55.2758 826.803 60.7831 836.333 65.7222C838.675 66.9396 841.4 68.1338 844.496 69.3048C844.217 69.4671 843.962 69.6178 843.707 69.7685C842.467 70.4642 841.516 70.928 840.716 71.5888C834.536 76.6439 832.612 83.241 834.455 90.8236C835.452 94.9279 837.122 98.8699 838.548 102.858C845.62 122.65 837.91 141.699 818.003 151.554ZM884.843 167.809H884.809C864.565 169.2 849.585 166.325 848.101 166.023C848.09 166.023 848.078 166.023 848.078 166.023C848.02 166.012 847.985 166 847.985 166C840.994 163.913 833.922 161.815 826.246 159.531C829.62 157.281 832.786 155.183 835.8 153.177C841.667 149.281 846.965 145.757 852.182 142.29C853.203 141.583 853.574 141.339 854.026 141.189C854.501 141.873 854.594 142.707 854.907 143.577C856.229 148.273 857.829 152.69 860.194 156.4C863.545 161.652 868.449 165.525 876.31 166.847C871.452 154.081 871.73 152.249 880.229 139.357C890.617 145.815 901.017 152.284 911.939 159.09C903.266 164.307 894.154 166.696 884.843 167.809ZM959.127 72.2729C960.101 70.7541 963.684 69.4787 965.179 70.128C966.64 70.7541 968.252 74.6381 967.591 75.9946C964.855 81.5134 961.284 86.6149 958.014 91.8786C957.203 91.5192 956.391 91.1482 955.579 90.7888C954.988 84.3308 955.533 77.9077 959.127 72.2729ZM938.756 76.5975C941.133 73.8381 947.046 74.3946 949.168 78.6033C951.556 83.3337 952.391 88.9221 953.353 94.2438C953.713 96.238 952.785 98.4641 952.321 100.609C952.345 100.621 952.356 100.621 952.379 100.632C952.391 100.655 952.414 100.667 952.426 100.69C955.487 95.1134 959.208 90.1743 965.69 88.3424C967.858 87.7395 970.281 87.4613 972.495 87.7395C976.24 88.2265 979.382 90.1279 978.745 94.4873C978.153 98.4525 975.046 99.6931 971.348 99.1018C965.087 98.0931 959.046 97.9656 953.701 102.163C953.655 102.163 952.89 101.224 952.426 100.69C952.368 100.806 952.298 100.91 952.24 101.026C952.264 100.887 952.298 100.748 952.321 100.609C951.394 100.226 949.806 99.925 949.736 99.438C948.971 93.5598 945.179 89.896 940.936 86.383C937.806 83.7859 935.255 80.6671 938.756 76.5975ZM953.945 112.215C951.892 113.722 949.759 116.539 947.834 116.4C945.829 116.261 942.64 113.339 942.536 111.484C942.432 109.687 945.376 106.476 947.359 106.139C949.26 105.826 951.649 108.4 953.829 109.71C953.864 110.545 953.91 111.38 953.945 112.215ZM982.431 166.209C987.846 157.791 991.846 149.478 983.417 140.736C979.846 148.841 978.362 149.536 969.643 148.249C965.852 147.681 961.979 147.113 958.177 147.299C946.582 147.867 942.432 153.803 944.078 167.878C937.504 164.099 931.382 160.586 925.597 157.27C931.359 148.644 936.774 140.551 942.246 132.377C955.429 137.525 959.324 136.829 964.588 127.971C976.878 130.603 986.408 124.505 991.939 110.824C997.504 97.0496 994.802 87.5772 984.113 81.0381C984.113 75.6352 984.774 70.6497 983.974 65.9193C982.455 56.8874 986.049 53.1193 994.93 55.3918C993.562 49.2353 991.162 47.5077 979.487 45.1773C986.814 37.9889 993.4 31.3571 1000.27 25.0382C1001.07 24.2962 1003.9 24.7136 1005.07 25.5716C1021.33 37.4092 1025.94 54.0468 1018.36 72.6903C1017.64 74.4758 1016.84 76.2381 1016.23 78.07C1012.45 89.4439 1014.54 96.0525 1024.99 104.864C1013.2 107.937 1002.57 112.4 1003.94 127.009C1004.77 136.018 1011.13 139.565 1025.43 140.481C1018.51 151.693 998.802 163.623 982.431 166.209ZM1047.49 86.6033C1044.51 84.0526 1041.75 81.7685 1039.06 79.3801C1036.3 76.9337 1035.13 73.8845 1037.49 70.7309C1040.15 67.1946 1043.32 68.841 1046.06 70.8816C1050.49 74.1743 1050.9 79.2758 1047.49 86.6033ZM1054.79 71.3222C1054.14 71.4149 1053.48 71.5077 1052.83 71.6004C1050.94 68.099 1048.72 64.7135 1047.27 61.0381C1045.9 57.5135 1046.27 53.5251 1050.69 52.6787C1054.94 51.8556 1056.46 55.8208 1056.52 59.0207C1056.61 63.1019 1055.43 67.2178 1054.79 71.3222ZM1058.43 35.8092C1053.84 27.16 1046.56 18.9513 1056.38 7.72813C1041.56 10.302 1036.4 19.7281 1033.36 31.5194C1026.2 26.5687 1019.3 21.8035 1012.29 16.9687C1034.28 3.00931 1067.3 3.14844 1087.54 17.4325C1077.85 23.5426 1068.33 29.56 1058.43 35.8092ZM1229.94 103.403C1230.8 103.508 1231.66 103.612 1232.52 103.716C1232.7 108.319 1233.36 112.98 1232.82 117.49C1232.63 119.021 1229.4 120.192 1227.56 121.513C1226.43 119.392 1224.01 116.91 1224.46 115.206C1225.57 111.079 1228.03 107.31 1229.94 103.403ZM1216.37 95.7511C1217.79 94.4757 1219.46 93.4786 1220.88 92.2033C1222.12 91.0786 1223.14 89.7337 1224.66 88.0526C1227.9 95.4033 1227.36 100.829 1222.62 103.438C1220.6 104.539 1216.67 104.806 1215.13 103.566C1212.18 101.177 1213.82 98.0235 1216.37 95.7511ZM1149.9 105.884C1145.54 103.137 1141.9 100.841 1137.57 98.1163C1142.65 95.7859 1146.93 93.838 1152.43 91.3221C1151.46 96.8873 1150.72 101.096 1149.9 105.884ZM1135.21 84.9801C1135.21 83.0902 1138.11 80.0874 1140.22 79.5888C1143.57 78.7772 1146.43 81.3163 1145.99 84.8874C1145.71 87.183 1143.42 89.2236 1142.04 91.3685C1141.2 91.4381 1140.38 91.5076 1139.54 91.5656C1137.98 89.3743 1135.2 87.1714 1135.21 84.9801ZM1149.27 75.5656C1143.66 74.7077 1138.32 72.0874 1133.61 70.499C1132.52 74.1164 1131.64 79.0555 1129.5 83.3917C1128.29 85.8613 1125.31 88.0526 1122.63 89.0265C1120.81 89.6873 1117.1 88.7018 1116.14 87.2178C1114.96 85.4323 1115.09 82.0468 1115.96 79.8671C1116.81 77.7337 1119.63 76.47 1120.99 74.4294C1124.08 69.7801 1126.8 64.899 1130.03 59.5309C1134.88 63.6816 1141.62 64.3193 1149.01 63.0091C1154.81 61.9657 1158.37 64.4352 1158.59 68.5628C1158.81 72.8062 1154.98 76.4468 1149.27 75.5656ZM1177.05 152.145C1172.32 145.142 1167.59 138.128 1162.4 130.418C1175.23 129.815 1178.79 127.739 1180.82 121.409C1177.55 120.713 1173.04 121.073 1171.32 119.055C1169.43 116.818 1169.9 112.424 1169.74 108.945C1169.52 104.261 1169.68 99.554 1169.68 94.012C1179.38 87.7975 1182.09 78.7772 1177.24 65.4091C1172 50.9744 1162.47 44.6904 1148.37 46.3715C1141.8 37.4092 1136.43 36.6788 1125.12 43.1599C1117.68 35.3802 1110.25 27.5889 1102.09 19.0556C1108.66 15.16 1115.3 11.218 1123.02 6.63828C1122.52 8.9919 1122.29 10.0122 1122.09 11.0325C1120.05 21.6527 1127.02 29.0846 1139.1 28.9223C1142.36 28.8759 1145.61 28.1918 1148.85 27.7281C1157.83 26.4411 1158.65 26.8817 1161.69 34.7889C1168.52 29.4788 1168.61 23.7629 1161.84 9.5948C1178.73 13.2238 1192.39 21.56 1204.38 34.7657C1192.76 34.1628 1183.17 36.8759 1182.29 49.6874C1181.47 61.5715 1189.87 66.9396 1200.71 70.2671C1188.52 79.5772 1190.72 90.5569 1195.6 102.279C1203.71 121.734 1197.63 138.371 1177.05 152.145ZM1187.9 159.067C1195.63 153.826 1202.88 148.887 1210.56 143.681C1213.93 155.09 1218.85 164.91 1234.07 167.148C1223.58 156.041 1231.56 148.018 1235.52 139.125C1246.08 145.687 1256.33 152.064 1266.57 158.418C1251.2 171.426 1208.47 171.994 1187.9 159.067ZM1327.82 87.9482C1331.38 88.3656 1333.9 90.7308 1333.17 94.7656C1332.49 98.5105 1329.64 99.6351 1326.22 99.125C1319.82 98.1743 1313.58 97.8496 1307.47 102.789C1307.67 100.69 1307.79 99.4844 1307.9 98.2786C1311.56 95.1018 1314.92 91.496 1318.96 89.0381C1321.31 87.612 1324.9 87.6004 1327.82 87.9482ZM1308.49 110.255C1308.46 111.102 1308.41 111.948 1308.38 112.795C1306.21 114.116 1303.81 116.748 1301.93 116.412C1299.88 116.041 1298.3 112.945 1296.52 111.032C1298.45 109.27 1300.27 106.313 1302.35 106.116C1304.25 105.931 1306.43 108.76 1308.49 110.255ZM1312.85 73.5367C1313.77 70.4294 1316.68 67.8207 1319.89 70.0932C1321.51 71.2526 1322.66 75.5424 1321.78 77.2932C1319.2 82.441 1315.49 87.0207 1312.22 91.8323C1311.21 91.3801 1310.19 90.9395 1309.18 90.4989C1310.36 84.8294 1311.22 79.0671 1312.85 73.5367ZM1293.2 76.7251C1295.78 73.7454 1301.54 74.3946 1303.98 78.87C1306.26 83.0323 1307.01 88.0989 1308.08 92.8409C1308.47 94.5917 1307.86 96.5743 1307.69 98.4641C1307.74 98.4293 1307.79 98.383 1307.83 98.3366C1306.91 99.3453 1305.98 100.366 1304.52 101.966C1304.09 94.8583 1300.53 90.2439 1295.56 86.3714C1292.41 83.925 1289.58 80.9105 1293.2 76.7251ZM1339.98 166.128C1341.17 160.203 1342.91 154.267 1343.29 148.238C1343.46 145.49 1340.97 142.557 1339.58 139.473C1337.27 142.684 1336.09 145.884 1333.86 146.997C1331.57 148.157 1328.25 147.345 1325.39 147.287C1320.23 147.183 1314.93 146.174 1309.94 147.044C1301.1 148.574 1297.61 154.684 1299.3 163.612C1299.43 164.307 1299.31 165.049 1299.31 166.765C1292.77 163.055 1286.84 159.681 1280.96 156.354C1286.38 148.064 1291.51 140.238 1296.44 132.702C1300.52 133.676 1305.02 135.902 1309.17 135.38C1312.97 134.905 1316.4 131.461 1321.39 128.493C1332.11 130.51 1341.8 123.983 1347 109.467C1351.73 96.2612 1348.81 86.8584 1338.78 81.1424C1338.78 75.5077 1339.36 70.7077 1338.6 66.1164C1337.96 62.2207 1337.24 58.3947 1340.8 56.215C1343.14 54.7773 1346.55 55.0671 1349.93 54.5222C1347.85 48.2498 1342.26 46.2903 1333.76 45.7338C1341.99 37.386 1349.31 29.9774 1356.42 22.7658C1375.43 34.0237 1381.89 52.1222 1374.55 71.5077C1373.8 73.4903 1372.87 75.4149 1372.13 77.4091C1367.98 88.9453 1369.98 95.6699 1380.3 104.516C1376.1 106.29 1371.74 107.589 1367.96 109.85C1361.64 113.641 1358.63 119.531 1359.61 127.021C1360.45 133.281 1365.14 138.302 1371.59 139.612C1374.72 140.25 1378.01 140.134 1382 140.412C1370.16 154.081 1355.97 162.684 1339.98 166.128ZM1403.03 86.3714C1400.31 84.0294 1397.58 81.6874 1394.86 79.3337C1392.03 76.8758 1390.86 73.8149 1393.27 70.6961C1395.95 67.2294 1399.16 68.8294 1401.9 70.9511C1406.3 74.3714 1406.64 80.1801 1403.03 86.3714ZM1410.24 71.5193C1409.72 71.554 1409.21 71.5888 1408.69 71.6352C1406.88 68.5048 1404.53 65.5599 1403.45 62.2091C1402.67 59.7744 1403.25 56.7019 1404 54.1396C1404.24 53.3048 1407.94 52.3889 1408.29 52.8526C1410.02 55.1599 1412.13 57.8497 1412.29 60.5048C1412.47 64.1338 1411 67.8439 1410.24 71.5193ZM1414.24 35.7628C1405.44 21.0151 1405.17 18.7078 1411.25 7.89045C1397.6 10.1745 1392.16 19.4498 1389.09 31.4382C1381.76 26.4179 1374.71 21.6064 1367.61 16.7484C1387.78 2.87018 1423.59 3.34554 1442.71 17.8151C1433.28 23.7629 1423.94 29.6527 1414.24 35.7628ZM1585.55 102.255C1586.27 102.371 1586.99 102.476 1587.72 102.592C1588.15 107.241 1589.19 111.96 1588.73 116.516C1588.53 118.337 1585.03 119.821 1583.03 121.455C1581.89 119.102 1579.37 116.4 1579.86 114.476C1580.96 110.197 1583.55 106.302 1585.55 102.255ZM1571.61 94.9279C1574.26 92.4931 1577.06 90.2439 1580.06 87.6815C1583.55 94.267 1583.1 100.006 1578.8 103.276C1576.18 105.27 1573.19 106.418 1570.64 103.519C1568.04 100.574 1568.89 97.4438 1571.61 94.9279ZM1504.52 105.873C1500.44 103.345 1496.75 101.061 1492.01 98.1163C1497.31 95.7859 1501.61 93.896 1506.71 91.6467C1505.91 96.8177 1505.26 101.096 1504.52 105.873ZM1489.79 84.6091C1489.98 82.7076 1493.27 79.6932 1495.11 79.7511C1497.03 79.8091 1500.23 82.8468 1500.37 84.7714C1500.52 86.8815 1497.84 89.2004 1496.39 91.4265C1495.44 91.4149 1494.48 91.4033 1493.53 91.3917C1492.16 89.1192 1489.58 86.7192 1489.79 84.6091ZM1506.33 75.3801C1501.54 75.1135 1496.8 73.3743 1492.13 71.9598C1490.63 71.4961 1489.43 70.0352 1488.04 68.9801C1487.15 73.2352 1486.57 77.1656 1485.42 80.9221C1484.83 82.8584 1483.44 84.6902 1482.02 86.2091C1478.6 89.9076 1473.17 90.5801 1470.77 87.6352C1467.39 83.5192 1469.31 79.983 1472.7 77.1308C1478.35 72.3888 1482.86 67.0903 1482.7 57.5135C1489.75 64.7251 1497.48 63.9367 1505.36 62.8816C1509.22 62.3599 1512.33 63.8207 1512.77 68.2381C1513.24 72.8642 1510.26 75.612 1506.33 75.3801ZM1532.05 152.574C1527.16 145.49 1522.24 138.36 1516.89 130.603C1530.06 129.502 1533.34 127.6 1535.25 121.629C1531.95 120.818 1527.42 121.015 1525.68 118.905C1523.84 116.679 1524.57 112.261 1524.34 108.783C1524.02 104.226 1523.84 99.6583 1523.58 94.5569C1534.45 86.7424 1536.89 77.8033 1531.25 64.0874C1525.54 50.186 1516.39 44.4353 1503.2 46.4527C1495.58 37.3396 1490.75 36.702 1479.64 43.1831C1472.33 35.4614 1465.05 27.7629 1457.21 19.473C1463.83 15.4962 1470.69 11.3919 1478.49 6.71944C1478.26 8.53973 1478.23 9.16581 1478.11 9.76871C1475.9 19.9368 1480.8 26.9745 1491.29 27.7049C1496.23 28.0411 1501.26 27.044 1506.24 26.5687C1513.47 25.873 1515 26.9281 1516.74 33.9426C1524.11 29.2701 1524.16 21.2006 1516.41 8.44697C1534.16 12.2499 1548.22 20.8411 1560.56 34.8121C1548.99 34.1049 1539.33 36.4585 1537.99 48.8295C1536.57 61.6874 1546.28 66.3019 1557.17 69.757C1545.98 78.87 1544.97 86.5337 1549.94 98.6032C1559.36 121.49 1554.3 138.197 1532.05 152.574ZM1542.42 158.661C1550.2 153.444 1557.97 148.226 1565.76 142.986C1572.6 160.064 1576.6 164.261 1588.67 165.919C1579.31 155.368 1586.45 147.113 1591.04 138.336C1601.77 144.992 1612.35 151.577 1623.03 158.209C1604.18 171.844 1558.5 172.006 1542.42 158.661ZM1669.06 72.7019C1669.59 71.1714 1673.26 70.7309 1675.47 69.7917C1676.28 72.0526 1678.2 74.6265 1677.68 76.5279C1675.99 82.6844 1671.93 87.3801 1667.01 91.2062C1666.26 90.9395 1665.5 90.6612 1664.75 90.3946C1666.1 84.47 1667.07 78.4062 1669.06 72.7019ZM1649 76.5395C1651.43 73.8265 1656.49 74.812 1659.62 78.5801C1663.44 83.1598 1664.42 88.5627 1663.54 94.3482C1663.21 96.5511 1662.66 98.7308 1662.21 100.91C1662.26 100.922 1662.3 100.922 1662.34 100.934C1666.22 96.9337 1669.62 92.1453 1674.22 89.3047C1677.08 87.5192 1681.95 88.2265 1685.69 88.9801C1687.09 89.2699 1688.77 92.9569 1688.57 94.9047C1688.4 96.4815 1685.53 99.0438 1683.96 98.9627C1676.66 98.6033 1669.42 97.7221 1663 102.418C1662.78 101.919 1662.56 101.432 1662.34 100.934C1662.28 101.003 1662.22 101.061 1662.16 101.119C1662.17 101.05 1662.19 100.98 1662.21 100.91C1661.42 100.783 1660.15 100.69 1660.12 100.482C1659.57 94.1395 1655.66 90.0583 1651.04 86.3018C1647.86 83.6931 1645.4 80.5743 1649 76.5395ZM1664.16 110.128C1664.13 110.951 1664.12 111.774 1664.1 112.597C1661.94 113.989 1659.6 116.679 1657.68 116.412C1655.64 116.122 1653.99 113.015 1652.17 111.137C1654.06 109.363 1655.82 106.36 1657.87 106.151C1659.81 105.954 1662.05 108.69 1664.16 110.128ZM1693.42 165.664C1698.87 156.771 1702.82 148.528 1694.74 140.122C1693 142.638 1691.91 145.768 1689.8 146.823C1687.48 147.994 1684.2 147.438 1681.35 147.299C1677.51 147.102 1673.68 146.128 1669.86 146.267C1657.77 146.742 1653.02 153.316 1655.37 167.009C1648.73 163.252 1642.63 159.797 1636.6 156.377C1642.15 147.89 1647.37 139.879 1652.61 131.867C1662.86 138.116 1668.84 137.177 1674.96 128.18C1687.89 130.313 1697.27 123.948 1702.66 109.409C1707.44 96.5279 1704.6 87.4033 1694.2 80.9569C1694.2 75.554 1693.93 70.441 1694.3 65.3859C1694.53 62.186 1694.88 58.3483 1696.75 56.1222C1698.09 54.499 1702.04 55.0439 1704.88 54.615C1704.26 49.5831 1700.89 47.1135 1691.45 45.7686C1690.84 45.073 1690.23 44.3773 1689.63 43.6817C1696.74 37.2469 1703.74 30.6962 1711.04 24.5165C1712.05 23.6701 1715.09 23.96 1716.35 24.8759C1732.25 36.4005 1736.88 52.6903 1729.71 70.9743C1729.56 71.3338 1729.44 71.7048 1729.29 72.0642C1723.01 87.496 1724.02 92.5743 1735.58 103.855C1719.04 110.012 1713.15 116.284 1714.85 125.931C1716.48 135.334 1722.75 139.252 1737.37 139.438C1725.5 153.084 1711.48 161.629 1693.42 165.664ZM1723.52 16.2498C1735.87 9.21219 1748.55 5.93104 1762.48 7.17161C1751.9 11.3107 1746.99 19.8209 1744.46 30.6034C1737.46 25.8034 1730.85 21.2701 1723.52 16.2498ZM1758.67 85.8265C1755.59 83.183 1752.96 81.0265 1750.44 78.754C1747.4 76.0062 1745.78 72.6091 1749.08 69.328C1752.3 66.128 1755.7 68.2613 1758.09 70.8584C1762.34 75.4961 1761.3 80.6091 1758.67 85.8265ZM1766.01 70.5917C1765.27 70.6845 1764.54 70.7888 1763.8 70.8816C1761.84 66.8816 1759.54 62.9975 1758.06 58.8352C1756.92 55.6584 1758.08 52.0179 1761.78 51.9599C1763.66 51.9251 1767.04 55.0555 1767.22 56.9802C1767.64 61.4439 1766.51 66.0468 1766.01 70.5917ZM1797.21 17.3977C1788.03 23.2064 1778.85 29.0266 1769.4 34.9976C1767.35 31.0904 1765.17 27.4614 1763.5 23.6122C1761.34 18.6267 1762.01 13.6759 1765.48 9.51364C1766.57 8.22668 1769.11 6.96292 1770.55 7.34553C1779.55 9.73393 1788.45 12.5977 1797.37 15.2991C1797.33 15.9948 1797.27 16.702 1797.21 17.3977ZM1941.05 102.51C1941.83 102.545 1942.6 102.58 1943.38 102.603C1943.72 107.032 1944.62 111.531 1944.1 115.867C1943.89 117.629 1940.61 119.032 1938.73 120.609C1937.58 118.313 1935.1 115.693 1935.58 113.815C1936.59 109.838 1939.14 106.255 1941.05 102.51ZM1926.8 95.6815C1927.58 93.9656 1929.98 93.038 1931.53 91.6236C1932.92 90.3482 1934.13 88.8757 1935.72 87.183C1939.17 95.1134 1938.22 100.632 1932.72 103.16C1930.92 103.995 1928.27 103.021 1926 102.87C1926.21 100.447 1925.85 97.7685 1926.8 95.6815ZM1845.35 84.8642C1844.74 81.4091 1847.51 78.87 1851.01 79.5424C1853.28 79.983 1855.17 82.325 1857.25 83.8091C1857.24 84.6439 1857.24 85.4786 1857.22 86.3134C1854.95 87.7163 1852.57 90.3018 1850.41 90.1395C1848.52 90.012 1845.72 86.9743 1845.35 84.8642ZM1860.15 105.85C1856.02 103.31 1852.2 100.968 1847.7 98.1975C1852.92 95.8091 1857.35 93.7801 1862.35 91.496C1861.58 96.4931 1860.91 100.829 1860.15 105.85ZM1860.85 75.5424C1854.88 74.7656 1849.13 72.3077 1844.16 70.8352C1842.37 75.1598 1840.79 80.899 1837.79 85.7569C1835.16 90.0236 1829.5 90.5221 1826.7 88.0178C1823.55 85.1888 1823.95 81.0729 1828.44 77.0961C1833.93 72.2033 1838.53 67.0091 1838.38 57.8497C1845.19 64.0758 1852.37 64.3309 1859.98 62.9048C1864.19 62.1164 1867.79 63.357 1868.59 68.2845C1869.22 72.1569 1865.71 76.1801 1860.85 75.5424ZM1886.82 151.681C1882.27 144.852 1877.68 137.965 1872.64 130.429C1885.44 129.792 1889.01 127.705 1890.99 121.281C1887.81 120.737 1883.34 121.247 1881.71 119.345C1879.8 117.096 1880.06 112.76 1879.87 109.305C1879.6 104.632 1879.8 99.925 1879.8 94.1627C1890.42 86.2555 1892.67 77.2816 1886.45 63.1599C1880.53 49.7106 1871.48 44.215 1859.01 46.4759C1850.7 37.3281 1845.73 36.6672 1835.39 43.2295C1827.83 35.3223 1820.28 27.415 1812.09 18.8354C1818.97 14.7426 1825.95 10.5919 1833.94 5.84988C1833.48 8.26147 1833.27 9.33973 1833.07 10.418C1831.33 19.7745 1836.89 27.0788 1846.94 27.7049C1851.88 28.0063 1856.9 27.044 1861.87 26.5339C1868.98 25.815 1870.71 26.9861 1872.35 33.8614C1879.39 29.6875 1879.67 23.5426 1873.12 8.80639C1890.1 12.4817 1903.62 20.7948 1915.04 33.5252C1899.86 35.044 1894.22 38.8353 1893.12 47.9715C1892.01 57.1541 1898.1 64.47 1911.96 69.6062C1903.21 75.3338 1901.26 83.2989 1903.54 92.4815C1904.28 95.4612 1905.57 98.3134 1906.68 101.189C1914.39 120.934 1909.07 138.626 1886.82 151.681ZM1898.02 158.661C1905.8 153.42 1913.57 148.203 1921.63 142.765C1925.12 154.244 1930 164.191 1945.4 166.371C1934.39 155.194 1942.49 147.078 1946.64 138.255C1957.5 145.003 1967.95 151.484 1978.38 157.954C1963.33 172.133 1912.48 171.704 1898.02 158.661ZM2025.25 71.9482C2026.15 70.5338 2029.78 69.27 2030.86 69.9657C2032.42 70.9859 2033.9 74.0584 2033.51 75.8555C2032.1 82.4526 2027.7 87.2178 2021.85 92.0757C2020.54 84.2381 2021.51 77.7337 2025.25 71.9482ZM2004.62 76.7482C2008.09 73.27 2011.82 75.0555 2014.74 77.9656C2019.36 82.5569 2020.1 88.412 2019.28 94.5685C2019.05 96.2496 2018.66 97.8844 2018.34 99.5424C2018.38 99.5076 2018.44 99.4612 2018.5 99.4148C2018.5 99.4264 2018.5 99.4264 2018.5 99.438C2021.78 96.1337 2024.63 92.0989 2028.53 89.8844C2031.68 88.0873 2036.26 87.8439 2039.98 88.412C2041.84 88.7018 2043.18 92.354 2044.75 94.4757C2042.46 96.0525 2040.09 99.067 2037.92 98.9279C2031.15 98.4989 2024.61 97.8033 2018.5 103.253V99.438C2018.44 99.5076 2018.38 99.5656 2018.32 99.6235C2018.32 99.6003 2018.34 99.5656 2018.34 99.5424C2018.05 99.7859 2017.78 99.9946 2017.61 100.122C2013.83 95.3453 2010.3 90.5801 2006.43 86.1047C2003.9 83.183 2001.07 80.2961 2004.62 76.7482ZM2019.88 110.012V112.435C2017.74 113.884 2015.47 116.632 2013.5 116.423C2011.48 116.203 2009.77 113.108 2007.92 111.276C2009.77 109.432 2011.46 106.371 2013.49 106.128C2015.44 105.896 2017.73 108.597 2019.88 110.012ZM2049.26 165.676C2056.71 152.041 2056.81 146 2050.09 139.531C2048.39 141.792 2047.1 145.049 2044.82 146.07C2042.29 147.206 2038.85 146.418 2035.82 146.232C2032.55 146.023 2029.28 145.107 2026.05 145.247C2013.47 145.745 2008.57 152.134 2010.72 166.047C2004.26 162.394 1998.35 159.055 1992.75 155.89C1998.12 147.565 2003.09 139.855 2008.08 132.122C2019.96 137.884 2024.91 137.061 2030.52 128.238C2044.18 130.197 2053.74 123.496 2058.68 108.528C2062.99 95.5076 2059.96 86.5221 2050.49 81.4671C2050.16 75.1946 2050.1 69.5599 2049.51 63.9831C2048.74 56.586 2052.75 53.4092 2061.55 55.4034C2059.02 48.2266 2053.56 46.2904 2045.94 44.5048C2053.19 37.5483 2060.39 30.5339 2067.79 23.7513C2068.4 23.1948 2070.71 23.7977 2071.76 24.5281C2087.22 35.1715 2092.52 52.4353 2085.84 70.0352C2085.57 70.7541 2085.23 71.4613 2084.94 72.1685C2078.7 87.2757 2079.76 92.5163 2091.39 103.867C2074.99 109.815 2069.11 116.006 2070.54 125.838C2071.84 134.823 2078.53 139.079 2093.04 139.519C2081.07 153.409 2066.79 161.803 2049.26 165.676ZM2079.11 16.2151C2091.72 9.42088 2104.3 5.76872 2117.86 6.75422C2114.05 9.88465 2109.56 12.5165 2106.57 16.331C2103.48 20.2614 2101.85 25.3397 2099.5 30.0933C2093.11 25.7455 2086.49 21.2353 2079.11 16.2151ZM2114.21 85.5714C2111.29 83.0787 2108.65 80.9221 2106.13 78.6497C2103.1 75.925 2101.39 72.5975 2104.82 69.3048C2108.06 66.186 2111.27 68.3541 2113.84 70.8468C2117.47 74.3946 2117.48 79.3221 2114.21 85.5714ZM2121.52 70.7656C2120.86 70.7541 2120.2 70.7425 2119.55 70.7309C2117.61 67.0439 2115.29 63.4961 2113.85 59.6236C2112.64 56.3657 2113.26 52.7367 2117.33 51.8092C2121.34 50.9048 2123.05 54.3251 2123.1 57.3164C2123.18 61.7918 2122.1 66.2787 2121.52 70.7656ZM2152.86 17.4788C2143.79 23.2179 2134.71 28.9571 2125.06 35.0672C2122.94 30.8005 2120.56 26.6846 2118.81 22.3136C2116.74 17.1194 2118.5 12.4006 2122 8.42379C2122.8 7.49625 2124.81 6.8122 2125.94 7.13683C2135.1 9.72233 2144.19 12.5861 2153.3 15.3687C2153.15 16.0759 2153.01 16.7716 2152.86 17.4788ZM2200.94 85.0381C2200.21 81.8265 2202.87 78.9627 2206.47 79.554C2208.74 79.925 2210.71 82.1395 2214.51 84.6671C2210.86 87.4381 2208.63 90.4062 2206.89 90.1395C2204.61 89.7917 2201.44 87.1946 2200.94 85.0381ZM2215.73 105.803C2211.44 103.125 2207.78 100.853 2203.41 98.1279C2208.55 95.8207 2212.92 93.8612 2218.16 91.5076C2217.27 96.7366 2216.55 100.957 2215.73 105.803ZM2215.22 75.5772C2209.59 74.6961 2204.25 72.0874 2199.27 70.3946C2198.47 73.5598 2198.12 78.3714 2195.99 82.2091C2194.32 85.2004 2190.71 87.4728 2187.46 89.0728C2186.15 89.7105 2182.59 88.1917 2181.77 86.7076C2180.78 84.9221 2181.35 82.07 2181.79 79.7975C2182.02 78.6613 2183.34 77.5946 2184.38 76.7714C2190.02 72.2613 2194.25 66.9743 2193.91 57.815C2200.9 63.5425 2207.43 64.3425 2214.67 63.0323C2220.69 61.9541 2224.04 64.2381 2224.4 68.4352C2224.76 72.5859 2220.76 76.4468 2215.22 75.5772ZM2268.96 69.3048C2267.3 70.2903 2266.13 70.8004 2265.18 71.5888C2258.98 76.6439 2257.06 83.241 2258.92 90.8236C2259.91 94.9279 2261.57 98.8699 2263 102.858C2270.07 122.65 2262.36 141.699 2242.45 151.554C2237.98 144.899 2233.42 138.128 2228.1 130.209C2237.16 130.499 2244.04 129.142 2247.53 120.238C2246.1 120.505 2245.33 120.574 2244.6 120.806C2238.03 122.916 2234.15 118.661 2234.98 111.067C2235.56 105.873 2235.1 100.563 2235.1 94.5569C2245.86 86.0236 2248.21 77.4787 2242.67 64.3077C2236.63 49.9541 2228.18 44.6324 2214.21 46.3947C2207.91 37.5136 2202.01 36.702 2192.91 42.0585C2184.24 34.4643 2176.01 27.2527 2166.94 19.2991C2174.78 14.6846 2181.76 10.5803 2189.41 6.07017C2187.02 21.2933 2193.08 27.8092 2207.6 26.9165C2210.29 26.7426 2212.96 26.2092 2215.63 25.815C2223.84 24.6092 2225.34 25.444 2228.26 32.8179C2235.26 27.5078 2235.11 19.2875 2227.29 7.65857C2245.38 11.2412 2259.39 20.1455 2271.92 34.1513C2260.24 33.1657 2251.02 35.3918 2248.98 47.7628C2247.44 57.1309 2253.27 63.3686 2268.96 69.3048Z" fill="black" fill-opacity="0.03"/>
</svg>
